ChamferedBeveledAngled-Full.ufo
<glyph name="exclamation" format="2">
  <advance width="300.0"/>
  <unicode hex="0021"/>
  <outline>
    <contour>
      <point x="50" y="250" type="line"/>
      <point x="250" y="250" type="line"/>
      <point x="250" y="800" type="line"/>
      <point x="50" y="800" type="line"/>
    </contour>
    <contour>
      <point x="50.0" y="0" type="line"/>
      <point x="250.0" y="0" type="line"/>
      <point x="250.0" y="200" type="line"/>
      <point x="50.0" y="200" type="line"/>
    </contour>
  </outline>
</glyph>
<glyph name="quotedouble" format="2">
  <advance width="550.0"/>
  <unicode hex="0022"/>
  <outline>
    <contour>
      <point x="50.0" y="900.0" type="line"/>
      <point x="50.0" y="700.0" type="line"/>
      <point x="126.3932" y="700.0" type="line"/>
      <point x="250.0" y="823.6068" type="line"/>
      <point x="250.0" y="900.0" type="line"/>
    </contour>
    <contour>
      <point x="300.0" y="900.0" type="line"/>
      <point x="300.0" y="700.0" type="line"/>
      <point x="376.3932" y="700.0" type="line"/>
      <point x="500.0" y="823.6068" type="line"/>
      <point x="500.0" y="900.0" type="line"/>
    </contour>
  </outline>
</glyph>
<glyph name="numbersign" format="2">
  <advance width="850.0"/>
  <unicode hex="0023"/>
  <outline>
    <contour>
      <point x="173.60679626464844" y="350" type="line"/>
      <point x="50" y="226.39320373535156" type="line"/>
      <point x="50" y="150" type="line"/>
      <point x="200" y="150" type="line"/>
      <point x="200" y="-5" type="line"/>
      <point x="276.39320373535156" y="-5" type="line"/>
      <point x="400" y="118.60679626464844" type="line"/>
      <point x="400" y="150" type="line"/>
      <point x="450" y="150" type="line"/>
      <point x="450" y="-5" type="line"/>
      <point x="526.3932037353516" y="-5" type="line"/>
      <point x="650" y="118.60679626464844" type="line"/>
      <point x="650" y="150" type="line"/>
      <point x="676.3932037353516" y="150" type="line"/>
      <point x="800" y="273.60679626464844" type="line"/>
      <point x="800" y="350" type="line"/>
      <point x="650" y="350" type="line"/>
      <point x="650" y="450" type="line"/>
      <point x="676.3932037353516" y="450" type="line"/>
      <point x="800" y="573.6067962646484" type="line"/>
      <point x="800" y="650" type="line"/>
      <point x="650" y="650" type="line"/>
      <point x="650" y="805" type="line"/>
      <point x="573.6067962646484" y="805" type="line"/>
      <point x="450" y="681.3932037353516" type="line"/>
      <point x="450" y="650" type="line"/>
      <point x="400" y="650" type="line"/>
      <point x="400" y="805" type="line"/>
      <point x="323.60679626464844" y="805" type="line"/>
      <point x="200" y="681.3932037353516" type="line"/>
      <point x="200" y="650" type="line"/>
      <point x="173.60679626464844" y="650" type="line"/>
      <point x="50" y="526.3932037353516" type="line"/>
      <point x="50" y="450" type="line"/>
      <point x="200" y="450" type="line"/>
      <point x="200" y="350" type="line"/>
    </contour>
    <contour>
      <point x="450" y="450" type="line"/>
      <point x="450" y="350" type="line"/>
      <point x="400" y="350" type="line"/>
      <point x="400" y="450" type="line"/>
    </contour>
  </outline>
</glyph>
<glyph name="dollar" format="2">
  <advance width="550.0"/>
  <unicode hex="0024"/>
  <outline>
    <contour>
      <point x="50" y="576.3932037353516" type="line"/>
      <point x="50" y="423.60679626464844" type="line"/>
      <point x="173.60679626464844" y="300" type="line"/>
      <point x="250" y="300" type="line"/>
      <point x="250" y="800" type="line"/>
      <point x="150" y="800" type="line"/>
      <point x="150" y="676.3932037353516" type="line"/>
    </contour>
    <contour>
      <point x="493.75" y="700" type="line"/>
      <point x="393.75" y="700" type="line"/>
      <point x="393.75" y="800" type="line"/>
      <point x="293.75" y="800" type="line"/>
      <point x="293.75" y="623.6067962646484" type="line"/>
      <point x="417.35679626464844" y="500" type="line"/>
      <point x="493.75" y="500" type="line"/>
    </contour>
    <contour>
      <point x="300" y="0" type="line"/>
      <point x="400" y="0" type="line"/>
      <point x="400" y="123.60679626464844" type="line"/>
      <point x="500" y="223.60679626464844" type="line"/>
      <point x="500" y="376.39320373535156" type="line"/>
      <point x="376.39320373535156" y="500" type="line"/>
      <point x="300" y="500" type="line"/>
    </contour>
    <contour>
      <point x="50" y="100" type="line"/>
      <point x="150" y="100" type="line"/>
      <point x="150" y="0" type="line"/>
      <point x="250" y="0" type="line"/>
      <point x="250" y="176.39320373535156" type="line"/>
      <point x="126.39320373535156" y="300" type="line"/>
      <point x="50" y="300" type="line"/>
    </contour>
  </outline>
</glyph>
<glyph name="percent" format="2">
  <advance width="910.0"/>
  <unicode hex="0025"/>
  <outline>
    <contour>
      <point x="155.0" y="805.0" type="line"/>
      <point x="114.89357000000001" y="805.0" type="line"/>
      <point x="50.0" y="740.10643" type="line"/>
      <point x="50.0" y="659.89357" type="line"/>
      <point x="114.89357000000001" y="595.0" type="line"/>
      <point x="155.0" y="595.0" type="line"/>
    </contour>
    <contour>
      <point x="205.0" y="595.0" type="line"/>
      <point x="245.10643" y="595.0" type="line"/>
      <point x="310.0" y="659.89357" type="line"/>
      <point x="310.0" y="740.10643" type="line"/>
      <point x="245.10643" y="805.0" type="line"/>
      <point x="205.0" y="805.0" type="line"/>
    </contour>
    <contour>
      <point x="431.39320373535156" y="0" type="line"/>
      <point x="555" y="123.60679626464844" type="line"/>
      <point x="555" y="800" type="line"/>
      <point x="478.60679626464844" y="800" type="line"/>
      <point x="355" y="676.3932037353516" type="line"/>
      <point x="355" y="0" type="line"/>
    </contour>
    <contour>
      <point x="705.0" y="205.0" type="line"/>
      <point x="664.89357" y="205.0" type="line"/>
      <point x="600.0" y="140.10643" type="line"/>
      <point x="600.0" y="59.89357" type="line"/>
      <point x="664.89357" y="-5.0" type="line"/>
      <point x="705.0" y="-5.0" type="line"/>
    </contour>
    <contour>
      <point x="755.0" y="-5.0" type="line"/>
      <point x="795.10643" y="-5.0" type="line"/>
      <point x="860.0" y="59.89357" type="line"/>
      <point x="860.0" y="140.10643" type="line"/>
      <point x="795.10643" y="205.0" type="line"/>
      <point x="755.0" y="205.0" type="line"/>
    </contour>
  </outline>
</glyph>
<glyph name="ampersand" format="2">
  <advance width="750.0"/>
  <unicode hex="0026"/>
  <outline>
    <contour>
      <point x="173.60679626464844" y="400" type="line"/>
      <point x="50" y="276.39320373535156" type="line"/>
      <point x="50" y="118.60679626464844" type="line"/>
      <point x="173.60679626464844" y="-5" type="line"/>
      <point x="250" y="-5" type="line"/>
      <point x="250" y="800" type="line"/>
      <point x="173.60679626464844" y="800" type="line"/>
      <point x="50" y="676.3932037353516" type="line"/>
      <point x="50" y="523.6067962646484" type="line"/>
    </contour>
    <contour>
      <point x="487.5" y="800.0" type="line"/>
      <point x="287.5" y="800.0" type="line"/>
      <point x="287.5" y="723.6068" type="line"/>
      <point x="411.1068" y="600.0" type="line"/>
      <point x="487.5" y="600.0" type="line"/>
    </contour>
    <contour>
      <point x="300" y="376.39320373535156" type="line"/>
      <point x="300" y="-5" type="line"/>
      <point x="376.39320373535156" y="-5" type="line"/>
      <point x="500" y="118.60679626464844" type="line"/>
      <point x="500" y="300" type="line"/>
      <point x="576.3932037353516" y="300" type="line"/>
      <point x="700" y="423.60679626464844" type="line"/>
      <point x="700" y="500" type="line"/>
      <point x="423.60679626464844" y="500" type="line"/>
    </contour>
  </outline>
</glyph>
<glyph name="parenleft" format="2">
  <advance width="300.0"/>
  <unicode hex="0028"/>
  <outline>
    <contour>
      <point x="173.60679626464844" y="-100" type="line"/>
      <point x="250" y="-100" type="line"/>
      <point x="250" y="900" type="line"/>
      <point x="173.60679626464844" y="900" type="line"/>
      <point x="50" y="776.3932037353516" type="line"/>
      <point x="50" y="23.606796264648438" type="line"/>
    </contour>
  </outline>
</glyph>
<glyph name="parenright" format="2">
  <advance width="300.0"/>
  <unicode hex="0029"/>
  <outline>
    <contour>
      <point x="126.39320373535156" y="-100" type="line"/>
      <point x="250" y="23.606796264648438" type="line"/>
      <point x="250" y="776.3932037353516" type="line"/>
      <point x="126.39320373535156" y="900" type="line"/>
      <point x="50" y="900" type="line"/>
      <point x="50" y="-100" type="line"/>
    </contour>
  </outline>
</glyph>
<glyph name="asterisk" format="2">
  <advance width="628.5468820183673"/>
  <unicode hex="002A"/>
  <outline>
    <contour>
      <point x="247.60677337646484" y="266.66666412353516" type="line"/>
      <point x="380.9401092529297" y="266.66666412353516" type="line"/>
      <point x="380.9401092529297" y="417.86328125" type="line"/>
      <point x="511.8802185058594" y="342.26497650146484" type="line"/>
      <point x="578.5468826293945" y="457.73502349853516" type="line"/>
      <point x="447.60677337646484" y="533.3333358764648" type="line"/>
      <point x="578.5468826293945" y="608.931640625" type="line"/>
      <point x="511.8802185058594" y="724.4016952514648" type="line"/>
      <point x="380.9401092529297" y="648.8033905029297" type="line"/>
      <point x="380.9401092529297" y="800" type="line"/>
      <point x="247.60677337646484" y="800" type="line"/>
      <point x="247.60677337646484" y="648.8033905029297" type="line"/>
      <point x="116.66666412353516" y="724.4016952514648" type="line"/>
      <point x="50" y="608.931640625" type="line"/>
      <point x="180.9401092529297" y="533.3333358764648" type="line"/>
      <point x="50" y="457.73502349853516" type="line"/>
      <point x="116.66666412353516" y="342.26497650146484" type="line"/>
      <point x="247.60677337646484" y="417.86328125" type="line"/>
    </contour>
  </outline>
</glyph>
<glyph name="plus" format="2">
  <advance width="800.0"/>
  <unicode hex="002B"/>
  <outline>
    <contour>
      <point x="100" y="300" type="line"/>
      <point x="300" y="300" type="line"/>
      <point x="300" y="100" type="line"/>
      <point x="500" y="100" type="line"/>
      <point x="500" y="300" type="line"/>
      <point x="700" y="300" type="line"/>
      <point x="700" y="500" type="line"/>
      <point x="500" y="500" type="line"/>
      <point x="500" y="700" type="line"/>
      <point x="300" y="700" type="line"/>
      <point x="300" y="500" type="line"/>
      <point x="100" y="500" type="line"/>
    </contour>
  </outline>
</glyph>
<glyph name="comma" format="2">
  <advance width="300.0"/>
  <unicode hex="002C"/>
  <outline>
    <contour>
      <point x="126.39320373535156" y="-100" type="line"/>
      <point x="250" y="23.606796264648438" type="line"/>
      <point x="250" y="200" type="line"/>
      <point x="50" y="200" type="line"/>
      <point x="50" y="-100" type="line"/>
    </contour>
  </outline>
</glyph>
<glyph name="hyphen" format="2">
  <advance width="550.0"/>
  <unicode hex="002D"/>
  <outline>
    <contour>
      <point x="50" y="300" type="line"/>
      <point x="500" y="300" type="line"/>
      <point x="500" y="500" type="line"/>
      <point x="50" y="500" type="line"/>
    </contour>
  </outline>
</glyph>
<glyph name="two" format="2">
  <advance width="550.0"/>
  <unicode hex="0032"/>
  <outline>
    <contour>
      <point x="250.0" y="605.0" type="line"/>
      <point x="250.0" y="805.0" type="line"/>
      <point x="173.60680000000002" y="805.0" type="line"/>
      <point x="50.0" y="681.3932" type="line"/>
      <point x="50.0" y="605.0" type="line"/>
    </contour>
    <contour>
      <point x="376.39320373535156" y="245" type="line"/>
      <point x="500" y="368.60679626464844" type="line"/>
      <point x="500" y="681.3932037353516" type="line"/>
      <point x="376.39320373535156" y="805" type="line"/>
      <point x="300" y="805" type="line"/>
      <point x="300" y="245" type="line"/>
    </contour>
    <contour>
      <point x="50" y="76.39320373535156" type="line"/>
      <point x="50" y="0" type="line"/>
      <point x="500" y="0" type="line"/>
      <point x="500" y="200" type="line"/>
      <point x="173.60679626464844" y="200" type="line"/>
    </contour>
  </outline>
</glyph>
<glyph name="four" format="2">
  <advance width="550.0"/>
  <unicode hex="0034"/>
  <outline>
    <contour>
      <point x="126.39320373535156" y="300" type="line"/>
      <point x="250" y="423.60679626464844" type="line"/>
      <point x="250" y="800" type="line"/>
      <point x="50" y="800" type="line"/>
      <point x="50" y="300" type="line"/>
    </contour>
    <contour>
      <point x="300" y="0" type="line"/>
      <point x="500" y="0" type="line"/>
      <point x="500" y="500" type="line"/>
      <point x="300" y="500" type="line"/>
    </contour>
  </outline>
</glyph>
<glyph name="five" format="2">
  <advance width="550.0"/>
  <unicode hex="0035"/>
  <outline>
    <contour>
      <point x="179.85679626464844" y="300" type="line"/>
      <point x="256.25" y="300" type="line"/>
      <point x="256.25" y="800" type="line"/>
      <point x="56.25" y="800" type="line"/>
      <point x="56.25" y="423.60679626464844" type="line"/>
    </contour>
    <contour>
      <point x="493.75" y="800.0" type="line"/>
      <point x="293.75" y="800.0" type="line"/>
      <point x="293.75" y="723.6068" type="line"/>
      <point x="417.3568" y="600.0" type="line"/>
      <point x="493.75" y="600.0" type="line"/>
    </contour>
    <contour>
      <point x="376.39320373535156" y="-5" type="line"/>
      <point x="500" y="118.60679626464844" type="line"/>
      <point x="500" y="376.39320373535156" type="line"/>
      <point x="376.39320373535156" y="500" type="line"/>
      <point x="300" y="500" type="line"/>
      <point x="300" y="-5" type="line"/>
    </contour>
    <contour>
      <point x="250.0" y="195.0" type="line"/>
      <point x="50.0" y="195.0" type="line"/>
      <point x="50.0" y="118.6068" type="line"/>
      <point x="173.60680000000002" y="-5.0" type="line"/>
      <point x="250.0" y="-5.0" type="line"/>
    </contour>
  </outline>
</glyph>
<glyph name="six" format="2">
  <advance width="550.0"/>
  <unicode hex="0036"/>
  <outline>
    <contour>
      <point x="173.60679626464844" y="-5" type="line"/>
      <point x="250" y="-5" type="line"/>
      <point x="250" y="805" type="line"/>
      <point x="173.60679626464844" y="805" type="line"/>
      <point x="50" y="681.3932037353516" type="line"/>
      <point x="50" y="118.60679626464844" type="line"/>
    </contour>
    <contour>
      <point x="300.0" y="605.0" type="line"/>
      <point x="500.0" y="605.0" type="line"/>
      <point x="500.0" y="681.3932" type="line"/>
      <point x="376.3932" y="805.0" type="line"/>
      <point x="300.0" y="805.0" type="line"/>
    </contour>
    <contour>
      <point x="376.39320373535156" y="-5" type="line"/>
      <point x="500" y="118.60679626464844" type="line"/>
      <point x="500" y="376.39320373535156" type="line"/>
      <point x="376.39320373535156" y="500" type="line"/>
      <point x="300" y="500" type="line"/>
      <point x="300" y="-5" type="line"/>
    </contour>
  </outline>
</glyph>
<glyph name="seven" format="2">
  <advance width="550.0"/>
  <unicode hex="0037"/>
  <outline>
    <contour>
      <point x="50" y="600" type="line"/>
      <point x="376.39320373535156" y="600" type="line"/>
      <point x="500" y="723.6067962646484" type="line"/>
      <point x="500" y="800" type="line"/>
      <point x="50" y="800" type="line"/>
    </contour>
    <contour>
      <point x="300" y="0" type="line"/>
      <point x="500" y="0" type="line"/>
      <point x="500" y="600" type="line"/>
      <point x="423.60679626464844" y="600" type="line"/>
      <point x="300" y="476.39320373535156" type="line"/>
    </contour>
  </outline>
</glyph>
<glyph name="eight" format="2">
  <advance width="550.0"/>
  <unicode hex="0038"/>
  <outline>
    <contour>
      <point x="173.60679626464844" y="400" type="line"/>
      <point x="50" y="276.39320373535156" type="line"/>
      <point x="50" y="118.60679626464844" type="line"/>
      <point x="173.60679626464844" y="-5" type="line"/>
      <point x="250" y="-5" type="line"/>
      <point x="250" y="805" type="line"/>
      <point x="173.60679626464844" y="805" type="line"/>
      <point x="50" y="681.3932037353516" type="line"/>
      <point x="50" y="523.6067962646484" type="line"/>
    </contour>
    <contour>
      <point x="376.39320373535156" y="-5" type="line"/>
      <point x="500" y="118.60679626464844" type="line"/>
      <point x="500" y="276.39320373535156" type="line"/>
      <point x="376.39320373535156" y="400" type="line"/>
      <point x="500" y="523.6067962646484" type="line"/>
      <point x="500" y="681.3932037353516" type="line"/>
      <point x="376.39320373535156" y="805" type="line"/>
      <point x="300" y="805" type="line"/>
      <point x="300" y="-5" type="line"/>
    </contour>
  </outline>
</glyph>
<glyph name="colon" format="2">
  <advance width="300.0"/>
  <unicode hex="003A"/>
  <outline>
    <contour>
      <point x="50.0" y="400" type="line"/>
      <point x="250.0" y="400" type="line"/>
      <point x="250.0" y="600" type="line"/>
      <point x="50.0" y="600" type="line"/>
    </contour>
    <contour>
      <point x="50.0" y="0" type="line"/>
      <point x="250.0" y="0" type="line"/>
      <point x="250.0" y="200" type="line"/>
      <point x="50.0" y="200" type="line"/>
    </contour>
  </outline>
</glyph>
<glyph name="less" format="2">
  <advance width="500.0"/>
  <unicode hex="003C"/>
  <outline>
    <contour>
      <point x="50" y="576.3932037353516" type="line"/>
      <point x="50" y="223.60679626464844" type="line"/>
      <point x="173.60679626464844" y="100" type="line"/>
      <point x="450" y="100" type="line"/>
      <point x="450" y="176.39320373535156" type="line"/>
      <point x="326.39320373535156" y="300" type="line"/>
      <point x="250" y="300" type="line"/>
      <point x="250" y="500" type="line"/>
      <point x="326.39320373535156" y="500" type="line"/>
      <point x="450" y="623.6067962646484" type="line"/>
      <point x="450" y="700" type="line"/>
      <point x="173.60679626464844" y="700" type="line"/>
    </contour>
  </outline>
</glyph>
<glyph name="equal" format="2">
  <advance width="800.0"/>
  <unicode hex="003D"/>
  <outline>
    <contour>
      <point x="100" y="450" type="line"/>
      <point x="700" y="450" type="line"/>
      <point x="700" y="650" type="line"/>
      <point x="100" y="650" type="line"/>
    </contour>
    <contour>
      <point x="100" y="150" type="line"/>
      <point x="700" y="150" type="line"/>
      <point x="700" y="350" type="line"/>
      <point x="100" y="350" type="line"/>
    </contour>
  </outline>
</glyph>
<glyph name="greater" format="2">
  <advance width="500.0"/>
  <unicode hex="003E"/>
  <outline>
    <contour>
      <point x="250" y="300" type="line"/>
      <point x="173.60679626464844" y="300" type="line"/>
      <point x="50" y="176.39320373535156" type="line"/>
      <point x="50" y="100" type="line"/>
      <point x="326.39320373535156" y="100" type="line"/>
      <point x="450" y="223.60679626464844" type="line"/>
      <point x="450" y="576.3932037353516" type="line"/>
      <point x="326.39320373535156" y="700" type="line"/>
      <point x="50" y="700" type="line"/>
      <point x="50" y="623.6067962646484" type="line"/>
      <point x="173.60679626464844" y="500" type="line"/>
      <point x="250" y="500" type="line"/>
    </contour>
  </outline>
</glyph>
<glyph name="question" format="2">
  <advance width="550.0"/>
  <unicode hex="003F"/>
  <outline>
    <contour>
      <point x="50.0" y="805.0" type="line"/>
      <point x="50.0" y="605.0" type="line"/>
      <point x="126.3932" y="605.0" type="line"/>
      <point x="250.0" y="728.6068" type="line"/>
      <point x="250.0" y="805.0" type="line"/>
    </contour>
    <contour>
      <point x="376.39320373535156" y="405" type="line"/>
      <point x="500" y="528.6067962646484" type="line"/>
      <point x="500" y="681.3932037353516" type="line"/>
      <point x="376.39320373535156" y="805" type="line"/>
      <point x="300" y="805" type="line"/>
      <point x="300" y="405" type="line"/>
    </contour>
    <contour>
      <point x="50" y="250" type="line"/>
      <point x="250" y="250" type="line"/>
      <point x="250" y="595" type="line"/>
      <point x="173.60679626464844" y="595" type="line"/>
      <point x="50" y="471.39320373535156" type="line"/>
    </contour>
    <contour>
      <point x="50.0" y="0" type="line"/>
      <point x="250.0" y="0" type="line"/>
      <point x="250.0" y="200" type="line"/>
      <point x="50.0" y="200" type="line"/>
    </contour>
  </outline>
</glyph>
<glyph name="at" format="2">
  <advance width="1148.52814"/>
  <unicode hex="0040"/>
  <outline>
    <contour>
      <point x="998.5281399999999" y="575.73593" type="line"/>
      <point x="750.0" y="824.26407" type="line"/>
      <point x="398.52814" y="824.26407" type="line"/>
      <point x="150.0" y="575.73593" type="line"/>
      <point x="150.0" y="224.26407" type="line"/>
      <point x="398.52814" y="-24.26407" type="line"/>
      <point x="750.0" y="-24.26407" type="line"/>
      <point x="998.5281399999999" y="224.26407" type="line"/>
    </contour>
    <contour>
      <point x="460.3708724975586" y="200" type="line"/>
      <point x="336.7640686035156" y="323.60679626464844" type="line"/>
      <point x="336.7640686035156" y="476.39320373535156" type="line"/>
      <point x="460.3708724975586" y="600" type="line"/>
      <point x="536.7640686035156" y="600" type="line"/>
      <point x="536.7640686035156" y="200" type="line"/>
    </contour>
    <contour>
      <point x="710.3708724975586" y="200" type="line"/>
      <point x="586.7640686035156" y="323.60679626464844" type="line"/>
      <point x="586.7640686035156" y="600" type="line"/>
      <point x="786.7640686035156" y="600" type="line"/>
      <point x="786.7640686035156" y="200" type="line"/>
    </contour>
  </outline>
</glyph>
<glyph name="A" format="2">
  <advance width="550.0"/>
  <unicode hex="0041"/>
  <outline>
    <contour>
      <point x="50" y="0" type="line"/>
      <point x="250" y="0" type="line"/>
      <point x="250" y="805" type="line"/>
      <point x="173.60679626464844" y="805" type="line"/>
      <point x="50" y="681.3932037353516" type="line"/>
    </contour>
    <contour>
      <point x="300" y="0" type="line"/>
      <point x="500" y="0" type="line"/>
      <point x="500" y="681.3932037353516" type="line"/>
      <point x="376.39320373535156" y="805" type="line"/>
      <point x="300" y="805" type="line"/>
    </contour>
  </outline>
</glyph>
<glyph name="F" format="2">
  <advance width="550.0"/>
  <unicode hex="0046"/>
  <outline>
    <contour>
      <point x="50" y="0" type="line"/>
      <point x="250" y="0" type="line"/>
      <point x="250" y="800" type="line"/>
      <point x="50" y="800" type="line"/>
    </contour>
    <contour>
      <point x="500.0" y="800.0" type="line"/>
      <point x="300.0" y="800.0" type="line"/>
      <point x="300.0" y="723.6068" type="line"/>
      <point x="423.6068" y="600.0" type="line"/>
      <point x="500.0" y="600.0" type="line"/>
    </contour>
    <contour>
      <point x="500.0" y="500.0" type="line"/>
      <point x="300.0" y="500.0" type="line"/>
      <point x="300.0" y="423.6068" type="line"/>
      <point x="423.6068" y="300.0" type="line"/>
      <point x="500.0" y="300.0" type="line"/>
    </contour>
  </outline>
</glyph>
<glyph name="H" format="2">
  <advance width="800.0"/>
  <unicode hex="0048"/>
  <outline>
    <contour>
      <point x="50" y="0" type="line"/>
      <point x="250" y="0" type="line"/>
      <point x="250" y="800" type="line"/>
      <point x="50" y="800" type="line"/>
    </contour>
    <contour>
      <point x="550" y="0" type="line"/>
      <point x="750" y="0" type="line"/>
      <point x="750" y="800" type="line"/>
      <point x="550" y="800" type="line"/>
    </contour>
    <contour>
      <point x="500.0" y="500.0" type="line"/>
      <point x="300.0" y="500.0" type="line"/>
      <point x="300.0" y="423.6068" type="line"/>
      <point x="423.6068" y="300.0" type="line"/>
      <point x="500.0" y="300.0" type="line"/>
    </contour>
  </outline>
</glyph>
<glyph name="L" format="2">
  <advance width="550.0"/>
  <unicode hex="004C"/>
  <outline>
    <contour>
      <point x="50" y="0" type="line"/>
      <point x="250" y="0" type="line"/>
      <point x="250" y="800" type="line"/>
      <point x="50" y="800" type="line"/>
    </contour>
    <contour>
      <point x="500.0" y="0.0" type="line"/>
      <point x="500.0" y="200.0" type="line"/>
      <point x="423.6068" y="200.0" type="line"/>
      <point x="300.0" y="76.3932" type="line"/>
      <point x="300.0" y="0.0" type="line"/>
    </contour>
  </outline>
</glyph>
<glyph name="M" format="2">
  <advance width="800.0"/>
  <unicode hex="004D"/>
  <outline>
    <contour>
      <point x="50" y="0" type="line"/>
      <point x="250" y="0" type="line"/>
      <point x="250" y="800" type="line"/>
      <point x="50" y="800" type="line"/>
    </contour>
    <contour>
      <point x="300" y="0" type="line"/>
      <point x="500" y="0" type="line"/>
      <point x="500" y="800" type="line"/>
      <point x="300" y="800" type="line"/>
    </contour>
    <contour>
      <point x="550" y="0" type="line"/>
      <point x="750" y="0" type="line"/>
      <point x="750" y="676.3932037353516" type="line"/>
      <point x="626.3932037353516" y="800" type="line"/>
      <point x="550" y="800" type="line"/>
    </contour>
  </outline>
</glyph>
<glyph name="O" format="2">
  <advance width="550.0"/>
  <unicode hex="004F"/>
  <outline>
    <contour>
      <point x="173.60679626464844" y="-5" type="line"/>
      <point x="250" y="-5" type="line"/>
      <point x="250" y="805" type="line"/>
      <point x="173.60679626464844" y="805" type="line"/>
      <point x="50" y="681.3932037353516" type="line"/>
      <point x="50" y="118.60679626464844" type="line"/>
    </contour>
    <contour>
      <point x="376.39320373535156" y="-5" type="line"/>
      <point x="500" y="118.60679626464844" type="line"/>
      <point x="500" y="681.3932037353516" type="line"/>
      <point x="376.39320373535156" y="805" type="line"/>
      <point x="300" y="805" type="line"/>
      <point x="300" y="-5" type="line"/>
    </contour>
  </outline>
</glyph>
<glyph name="P" format="2">
  <advance width="550.0"/>
  <unicode hex="0050"/>
  <outline>
    <contour>
      <point x="50" y="0" type="line"/>
      <point x="250" y="0" type="line"/>
      <point x="250" y="800" type="line"/>
      <point x="50" y="800" type="line"/>
    </contour>
    <contour>
      <point x="376.39320373535156" y="200" type="line"/>
      <point x="500" y="323.60679626464844" type="line"/>
      <point x="500" y="676.3932037353516" type="line"/>
      <point x="376.39320373535156" y="800" type="line"/>
      <point x="300" y="800" type="line"/>
      <point x="300" y="200" type="line"/>
    </contour>
  </outline>
</glyph>
<glyph name="T" format="2">
  <advance width="800.0"/>
  <unicode hex="0054"/>
  <outline>
    <contour>
      <point x="50.0" y="800.0" type="line"/>
      <point x="50.0" y="600.0" type="line"/>
      <point x="126.3932" y="600.0" type="line"/>
      <point x="250.0" y="723.6068" type="line"/>
      <point x="250.0" y="800.0" type="line"/>
    </contour>
    <contour>
      <point x="300" y="0" type="line"/>
      <point x="500" y="0" type="line"/>
      <point x="500" y="800" type="line"/>
      <point x="300" y="800" type="line"/>
    </contour>
    <contour>
      <point x="750.0" y="800.0" type="line"/>
      <point x="550.0" y="800.0" type="line"/>
      <point x="550.0" y="723.6068" type="line"/>
      <point x="673.6068" y="600.0" type="line"/>
      <point x="750.0" y="600.0" type="line"/>
    </contour>
  </outline>
</glyph>
<glyph name="W" format="2">
  <advance width="800.0"/>
  <unicode hex="0057"/>
  <outline>
    <contour>
      <point x="173.60679626464844" y="0" type="line"/>
      <point x="250" y="0" type="line"/>
      <point x="250" y="676.3932037353516" type="line"/>
      <point x="126.39320373535156" y="800" type="line"/>
      <point x="50" y="800" type="line"/>
      <point x="50" y="123.60679626464844" type="line"/>
    </contour>
    <contour>
      <point x="300" y="0" type="line"/>
      <point x="500" y="0" type="line"/>
      <point x="500" y="676.3932037353516" type="line"/>
      <point x="376.39320373535156" y="800" type="line"/>
      <point x="300" y="800" type="line"/>
    </contour>
    <contour>
      <point x="626.3932037353516" y="0" type="line"/>
      <point x="750" y="123.60679626464844" type="line"/>
      <point x="750" y="800" type="line"/>
      <point x="550" y="800" type="line"/>
      <point x="550" y="0" type="line"/>
    </contour>
  </outline>
</glyph>
<glyph name="Z" format="2">
  <advance width="550.0"/>
  <unicode hex="005A"/>
  <outline>
    <contour>
      <point x="50.0" y="800.0" type="line"/>
      <point x="50.0" y="600.0" type="line"/>
      <point x="126.3932" y="600.0" type="line"/>
      <point x="250.0" y="723.6068" type="line"/>
      <point x="250.0" y="800.0" type="line"/>
    </contour>
    <contour>
      <point x="376.39320373535156" y="300" type="line"/>
      <point x="500" y="423.60679626464844" type="line"/>
      <point x="500" y="800" type="line"/>
      <point x="300" y="800" type="line"/>
      <point x="300" y="300" type="line"/>
    </contour>
    <contour>
      <point x="50" y="0" type="line"/>
      <point x="250" y="0" type="line"/>
      <point x="250" y="500" type="line"/>
      <point x="173.60679626464844" y="500" type="line"/>
      <point x="50" y="376.39320373535156" type="line"/>
    </contour>
    <contour>
      <point x="500.0" y="0.0" type="line"/>
      <point x="500.0" y="200.0" type="line"/>
      <point x="423.6068" y="200.0" type="line"/>
      <point x="300.0" y="76.3932" type="line"/>
      <point x="300.0" y="0.0" type="line"/>
    </contour>
  </outline>
</glyph>
<glyph name="bracketleft" format="2">
  <advance width="500.0"/>
  <unicode hex="005B"/>
  <outline>
    <contour>
      <point x="50" y="-100" type="line"/>
      <point x="450" y="-100" type="line"/>
      <point x="450" y="-23.606796264648438" type="line"/>
      <point x="326.39320373535156" y="100" type="line"/>
      <point x="250" y="100" type="line"/>
      <point x="250" y="700" type="line"/>
      <point x="326.39320373535156" y="700" type="line"/>
      <point x="450" y="823.6067962646484" type="line"/>
      <point x="450" y="900" type="line"/>
      <point x="50" y="900" type="line"/>
    </contour>
  </outline>
</glyph>
<glyph name="bracketright" format="2">
  <advance width="500.0"/>
  <unicode hex="005D"/>
  <outline>
    <contour>
      <point x="250" y="100" type="line"/>
      <point x="173.60679626464844" y="100" type="line"/>
      <point x="50" y="-23.606796264648438" type="line"/>
      <point x="50" y="-100" type="line"/>
      <point x="450" y="-100" type="line"/>
      <point x="450" y="900" type="line"/>
      <point x="50" y="900" type="line"/>
      <point x="50" y="823.6067962646484" type="line"/>
      <point x="173.60679626464844" y="700" type="line"/>
      <point x="250" y="700" type="line"/>
    </contour>
  </outline>
</glyph>
<glyph name="asciicircum" format="2">
  <advance width="500.0"/>
  <unicode hex="005E"/>
  <outline>
    <contour>
      <point x="50" y="900" type="line"/>
      <point x="50" y="700" type="line"/>
      <point x="126.39320373535156" y="700" type="line"/>
      <point x="250" y="823.6067962646484" type="line"/>
      <point x="373.60679626464844" y="700" type="line"/>
      <point x="450" y="700" type="line"/>
      <point x="450" y="900" type="line"/>
    </contour>
  </outline>
</glyph>
<glyph name="underscore" format="2">
  <advance width="550.0"/>
  <unicode hex="005F"/>
  <outline>
    <contour>
      <point x="50" y="-200" type="line"/>
      <point x="500" y="-200" type="line"/>
      <point x="500" y="0" type="line"/>
      <point x="50" y="0" type="line"/>
    </contour>
  </outline>
</glyph>
<glyph name="grave" format="2">
  <advance width="300.0"/>
  <unicode hex="0060"/>
  <outline>
    <contour>
      <point x="162.5" y="1000.0" type="line"/>
      <point x="-37.5" y="1000.0" type="line"/>
      <point x="-37.5" y="923.6068" type="line"/>
      <point x="86.10679999999999" y="800.0" type="line"/>
      <point x="162.5" y="800.0" type="line"/>
    </contour>
  </outline>
</glyph>
<glyph name="b" format="2">
  <advance width="550.0"/>
  <unicode hex="0062"/>
  <outline>
    <contour>
      <point x="50" y="0" type="line"/>
      <point x="250" y="0" type="line"/>
      <point x="250" y="800" type="line"/>
      <point x="50" y="800" type="line"/>
    </contour>
    <contour>
      <point x="376.39320373535156" y="0" type="line"/>
      <point x="500" y="123.60679626464844" type="line"/>
      <point x="500" y="481.39320373535156" type="line"/>
      <point x="376.39320373535156" y="605" type="line"/>
      <point x="300" y="605" type="line"/>
      <point x="300" y="0" type="line"/>
    </contour>
  </outline>
</glyph>
<glyph name="d" format="2">
  <advance width="550.0"/>
  <unicode hex="0064"/>
  <outline>
    <contour>
      <point x="300" y="0" type="line"/>
      <point x="500" y="0" type="line"/>
      <point x="500" y="800" type="line"/>
      <point x="300" y="800" type="line"/>
    </contour>
    <contour>
      <point x="173.60679626464844" y="0" type="line"/>
      <point x="250" y="0" type="line"/>
      <point x="250" y="605" type="line"/>
      <point x="173.60679626464844" y="605" type="line"/>
      <point x="50" y="481.39320373535156" type="line"/>
      <point x="50" y="123.60679626464844" type="line"/>
    </contour>
  </outline>
</glyph>
<glyph name="e" format="2">
  <advance width="550.0"/>
  <unicode hex="0065"/>
  <outline>
    <contour>
      <point x="173.60679626464844" y="-5" type="line"/>
      <point x="250" y="-5" type="line"/>
      <point x="250" y="605" type="line"/>
      <point x="173.60679626464844" y="605" type="line"/>
      <point x="50" y="481.39320373535156" type="line"/>
      <point x="50" y="118.60679626464844" type="line"/>
    </contour>
    <contour>
      <point x="300" y="195" type="line"/>
      <point x="500" y="195" type="line"/>
      <point x="500" y="481.39320373535156" type="line"/>
      <point x="376.39320373535156" y="605" type="line"/>
      <point x="300" y="605" type="line"/>
    </contour>
  </outline>
</glyph>
<glyph name="f" format="2">
  <advance width="550.0"/>
  <unicode hex="0066"/>
  <outline>
    <contour>
      <point x="50" y="0" type="line"/>
      <point x="250" y="0" type="line"/>
      <point x="250" y="800" type="line"/>
      <point x="173.60679626464844" y="800" type="line"/>
      <point x="50" y="676.3932037353516" type="line"/>
    </contour>
    <contour>
      <point x="500.0" y="800.0" type="line"/>
      <point x="300.0" y="800.0" type="line"/>
      <point x="300.0" y="723.6068" type="line"/>
      <point x="423.6068" y="600.0" type="line"/>
      <point x="500.0" y="600.0" type="line"/>
    </contour>
    <contour>
      <point x="500.0" y="587.5" type="line"/>
      <point x="300.0" y="587.5" type="line"/>
      <point x="300.0" y="511.1068" type="line"/>
      <point x="423.6068" y="387.5" type="line"/>
      <point x="500.0" y="387.5" type="line"/>
    </contour>
  </outline>
</glyph>
<glyph name="i" format="2">
  <advance width="300.0"/>
  <unicode hex="0069"/>
  <outline>
    <contour>
      <point x="50.0" y="633.33333" type="line"/>
      <point x="250.0" y="633.33333" type="line"/>
      <point x="250.0" y="833.33333" type="line"/>
      <point x="50.0" y="833.33333" type="line"/>
    </contour>
    <contour>
      <point x="50" y="0" type="line"/>
      <point x="250" y="0" type="line"/>
      <point x="250" y="600" type="line"/>
      <point x="50" y="600" type="line"/>
    </contour>
  </outline>
</glyph>
<glyph name="j" format="2">
  <advance width="550.0"/>
  <unicode hex="006A"/>
  <outline>
    <contour>
      <point x="300.0" y="633.33333" type="line"/>
      <point x="500.0" y="633.33333" type="line"/>
      <point x="500.0" y="833.33333" type="line"/>
      <point x="300.0" y="833.33333" type="line"/>
    </contour>
    <contour>
      <point x="376.39320373535156" y="-210" type="line"/>
      <point x="500" y="-86.39320373535156" type="line"/>
      <point x="500" y="600" type="line"/>
      <point x="300" y="600" type="line"/>
      <point x="300" y="-210" type="line"/>
    </contour>
    <contour>
      <point x="250.0" y="-10.0" type="line"/>
      <point x="50.0" y="-10.0" type="line"/>
      <point x="50.0" y="-86.3932" type="line"/>
      <point x="173.60680000000002" y="-210.0" type="line"/>
      <point x="250.0" y="-210.0" type="line"/>
    </contour>
  </outline>
</glyph>
<glyph name="l" format="2">
  <advance width="300.0"/>
  <unicode hex="006C"/>
  <outline>
    <contour>
      <point x="173.60679626464844" y="-5" type="line"/>
      <point x="250" y="-5" type="line"/>
      <point x="250" y="800" type="line"/>
      <point x="50" y="800" type="line"/>
      <point x="50" y="118.60679626464844" type="line"/>
    </contour>
  </outline>
</glyph>
<glyph name="m" format="2">
  <advance width="800.0"/>
  <unicode hex="006D"/>
  <outline>
    <contour>
      <point x="50" y="0" type="line"/>
      <point x="250" y="0" type="line"/>
      <point x="250" y="600" type="line"/>
      <point x="50" y="600" type="line"/>
    </contour>
    <contour>
      <point x="300" y="0" type="line"/>
      <point x="500" y="0" type="line"/>
      <point x="500" y="600" type="line"/>
      <point x="300" y="600" type="line"/>
    </contour>
    <contour>
      <point x="550" y="0" type="line"/>
      <point x="750" y="0" type="line"/>
      <point x="750" y="476.39320373535156" type="line"/>
      <point x="626.3932037353516" y="600" type="line"/>
      <point x="550" y="600" type="line"/>
    </contour>
  </outline>
</glyph>
<glyph name="r" format="2">
  <advance width="550.0"/>
  <unicode hex="0072"/>
  <outline>
    <contour>
      <point x="50" y="0" type="line"/>
      <point x="250" y="0" type="line"/>
      <point x="250" y="600" type="line"/>
      <point x="50" y="600" type="line"/>
    </contour>
    <contour>
      <point x="500.0" y="600.0" type="line"/>
      <point x="300.0" y="600.0" type="line"/>
      <point x="300.0" y="523.6068" type="line"/>
      <point x="423.6068" y="400.0" type="line"/>
      <point x="500.0" y="400.0" type="line"/>
    </contour>
  </outline>
</glyph>
<glyph name="v" format="2">
  <advance width="550.0"/>
  <unicode hex="0076"/>
  <outline>
    <contour>
      <point x="173.60679626464844" y="-5" type="line"/>
      <point x="250" y="-5" type="line"/>
      <point x="250" y="481.39320373535156" type="line"/>
      <point x="126.39320373535156" y="605" type="line"/>
      <point x="50" y="605" type="line"/>
      <point x="50" y="118.60679626464844" type="line"/>
    </contour>
    <contour>
      <point x="376.39320373535156" y="-5" type="line"/>
      <point x="500" y="118.60679626464844" type="line"/>
      <point x="500" y="600" type="line"/>
      <point x="300" y="600" type="line"/>
      <point x="300" y="-5" type="line"/>
    </contour>
  </outline>
</glyph>
<glyph name="braceleft" format="2">
  <advance width="300.0"/>
  <unicode hex="007B"/>
  <outline>
    <contour>
      <point x="173.60679626464844" y="-100" type="line"/>
      <point x="250" y="-100" type="line"/>
      <point x="250" y="276.39320373535156" type="line"/>
      <point x="126.39320373535156" y="400" type="line"/>
      <point x="250" y="523.6067962646484" type="line"/>
      <point x="250" y="900" type="line"/>
      <point x="173.60679626464844" y="900" type="line"/>
      <point x="50" y="776.3932037353516" type="line"/>
      <point x="50" y="23.606796264648438" type="line"/>
    </contour>
  </outline>
</glyph>
<glyph name="bar" format="2">
  <advance width="300.0"/>
  <unicode hex="007C"/>
  <outline>
    <contour>
      <point x="50" y="-100" type="line"/>
      <point x="250" y="-100" type="line"/>
      <point x="250" y="900" type="line"/>
      <point x="50" y="900" type="line"/>
    </contour>
  </outline>
</glyph>
<glyph name="tilde" format="2">
  <advance width="550.0"/>
  <unicode hex="007E"/>
  <outline>
    <contour>
      <point x="50" y="376.39320373535156" type="line"/>
      <point x="50" y="300" type="line"/>
      <point x="376.39320373535156" y="300" type="line"/>
      <point x="500" y="423.60679626464844" type="line"/>
      <point x="500" y="500" type="line"/>
      <point x="173.60679626464844" y="500" type="line"/>
    </contour>
  </outline>
</glyph>
<glyph name="invexclamation" format="2">
  <advance width="300.0"/>
  <unicode hex="00A1"/>
  <outline>
    <contour>
      <point x="50.0" y="400" type="line"/>
      <point x="250.0" y="400" type="line"/>
      <point x="250.0" y="600" type="line"/>
      <point x="50.0" y="600" type="line"/>
    </contour>
    <contour>
      <point x="50" y="-200" type="line"/>
      <point x="250" y="-200" type="line"/>
      <point x="250" y="350" type="line"/>
      <point x="50" y="350" type="line"/>
    </contour>
  </outline>
</glyph>
<glyph name="cent" format="2">
  <advance width="550.0"/>
  <unicode hex="00A2"/>
  <outline>
    <contour>
      <point x="150" y="0" type="line"/>
      <point x="250" y="0" type="line"/>
      <point x="250" y="600" type="line"/>
      <point x="150" y="600" type="line"/>
      <point x="150" y="481.39320373535156" type="line"/>
      <point x="50" y="381.39320373535156" type="line"/>
      <point x="50" y="218.60679626464844" type="line"/>
      <point x="150" y="118.60679626464844" type="line"/>
    </contour>
    <contour>
      <point x="500" y="510" type="line"/>
      <point x="400" y="510" type="line"/>
      <point x="400" y="600" type="line"/>
      <point x="300" y="600" type="line"/>
      <point x="300" y="433.60679626464844" type="line"/>
      <point x="423.60679626464844" y="310" type="line"/>
      <point x="500" y="310" type="line"/>
    </contour>
    <contour>
      <point x="300" y="0" type="line"/>
      <point x="400" y="0" type="line"/>
      <point x="400" y="90" type="line"/>
      <point x="500" y="90" type="line"/>
      <point x="500" y="290" type="line"/>
      <point x="423.60679626464844" y="290" type="line"/>
      <point x="300" y="166.39320373535156" type="line"/>
    </contour>
  </outline>
</glyph>
<glyph name="pound" format="2">
  <advance width="705.0"/>
  <unicode hex="00A3"/>
  <outline>
    <contour>
      <point x="200" y="0" type="line"/>
      <point x="400" y="0" type="line"/>
      <point x="400" y="805" type="line"/>
      <point x="323.60679626464844" y="805" type="line"/>
      <point x="200" y="681.3932037353516" type="line"/>
    </contour>
    <contour>
      <point x="655.0" y="740.10643" type="line"/>
      <point x="590.10643" y="805.0" type="line"/>
      <point x="509.89356999999995" y="805.0" type="line"/>
      <point x="445.0" y="740.10643" type="line"/>
      <point x="445.0" y="659.89357" type="line"/>
      <point x="509.89356999999995" y="595.0" type="line"/>
      <point x="590.10643" y="595.0" type="line"/>
      <point x="655.0" y="659.89357" type="line"/>
    </contour>
    <contour>
      <point x="50.0" y="350.0" type="line"/>
      <point x="150.0" y="350.0" type="line"/>
      <point x="150.0" y="450.0" type="line"/>
      <point x="50.0" y="450.0" type="line"/>
    </contour>
    <contour>
      <point x="450" y="350" type="line"/>
      <point x="600" y="350" type="line"/>
      <point x="600" y="450" type="line"/>
      <point x="450" y="450" type="line"/>
    </contour>
    <contour>
      <point x="650.0" y="0.0" type="line"/>
      <point x="650.0" y="200.0" type="line"/>
      <point x="573.6068" y="200.0" type="line"/>
      <point x="450.0" y="76.3932" type="line"/>
      <point x="450.0" y="0.0" type="line"/>
    </contour>
    <contour>
      <point x="50.0" y="0" type="line"/>
      <point x="150.0" y="0" type="line"/>
      <point x="150.0" y="100.0" type="line"/>
      <point x="50.0" y="100.0" type="line"/>
    </contour>
  </outline>
</glyph>
<glyph name="currency" format="2">
  <advance width="550.0"/>
  <unicode hex="00A4"/>
  <outline>
    <contour>
      <point x="50" y="200" type="line"/>
      <point x="150" y="200" type="line"/>
      <point x="150" y="223.60679626464844" type="line"/>
      <point x="173.60679626464844" y="200" type="line"/>
      <point x="250" y="200" type="line"/>
      <point x="250" y="600" type="line"/>
      <point x="173.60679626464844" y="600" type="line"/>
      <point x="150" y="576.3932037353516" type="line"/>
      <point x="150" y="600" type="line"/>
      <point x="50" y="600" type="line"/>
      <point x="50" y="500" type="line"/>
      <point x="73.60679626464844" y="500" type="line"/>
      <point x="50" y="476.39320373535156" type="line"/>
      <point x="50" y="323.60679626464844" type="line"/>
      <point x="73.60679626464844" y="300" type="line"/>
      <point x="50" y="300" type="line"/>
    </contour>
    <contour>
      <point x="400" y="200" type="line"/>
      <point x="500" y="200" type="line"/>
      <point x="500" y="300" type="line"/>
      <point x="476.39320373535156" y="300" type="line"/>
      <point x="500" y="323.60679626464844" type="line"/>
      <point x="500" y="476.39320373535156" type="line"/>
      <point x="476.39320373535156" y="500" type="line"/>
      <point x="500" y="500" type="line"/>
      <point x="500" y="600" type="line"/>
      <point x="400" y="600" type="line"/>
      <point x="400" y="576.3932037353516" type="line"/>
      <point x="376.39320373535156" y="600" type="line"/>
      <point x="300" y="600" type="line"/>
      <point x="300" y="200" type="line"/>
      <point x="376.39320373535156" y="200" type="line"/>
      <point x="400" y="223.60679626464844" type="line"/>
    </contour>
  </outline>
</glyph>
<glyph name="yen" format="2">
  <advance width="850.0"/>
  <unicode hex="00A5"/>
  <outline>
    <contour>
      <point x="323.60679626464844" y="200" type="line"/>
      <point x="400" y="200" type="line"/>
      <point x="400" y="681.3932037353516" type="line"/>
      <point x="276.39320373535156" y="805" type="line"/>
      <point x="200" y="805" type="line"/>
      <point x="200" y="323.60679626464844" type="line"/>
    </contour>
    <contour>
      <point x="526.3932037353516" y="-5" type="line"/>
      <point x="650" y="118.60679626464844" type="line"/>
      <point x="650" y="800" type="line"/>
      <point x="450" y="800" type="line"/>
      <point x="450" y="-5" type="line"/>
    </contour>
    <contour>
      <point x="50.0" y="525.0" type="line"/>
      <point x="150.0" y="525.0" type="line"/>
      <point x="150.0" y="625.0" type="line"/>
      <point x="50.0" y="625.0" type="line"/>
    </contour>
    <contour>
      <point x="700.0" y="525.0" type="line"/>
      <point x="800.0" y="525.0" type="line"/>
      <point x="800.0" y="625.0" type="line"/>
      <point x="700.0" y="625.0" type="line"/>
    </contour>
    <contour>
      <point x="50.0" y="375.0" type="line"/>
      <point x="150.0" y="375.0" type="line"/>
      <point x="150.0" y="475.0" type="line"/>
      <point x="50.0" y="475.0" type="line"/>
    </contour>
    <contour>
      <point x="700.0" y="375.0" type="line"/>
      <point x="800.0" y="375.0" type="line"/>
      <point x="800.0" y="475.0" type="line"/>
      <point x="700.0" y="475.0" type="line"/>
    </contour>
  </outline>
</glyph>
<glyph name="brokenbar" format="2">
  <advance width="300.0"/>
  <unicode hex="00A6"/>
  <outline>
    <contour>
      <point x="50" y="500" type="line"/>
      <point x="250" y="500" type="line"/>
      <point x="250" y="900" type="line"/>
      <point x="50" y="900" type="line"/>
    </contour>
    <contour>
      <point x="50" y="-100" type="line"/>
      <point x="250" y="-100" type="line"/>
      <point x="250" y="300" type="line"/>
      <point x="50" y="300" type="line"/>
    </contour>
  </outline>
</glyph>
<glyph name="section" format="2">
  <advance width="550.0"/>
  <unicode hex="00A7"/>
  <outline>
    <contour>
      <point x="50" y="376.39320373535156" type="line"/>
      <point x="50" y="223.60679626464844" type="line"/>
      <point x="173.60679626464844" y="100" type="line"/>
      <point x="250" y="100" type="line"/>
      <point x="250" y="800" type="line"/>
      <point x="173.60679626464844" y="800" type="line"/>
      <point x="50" y="676.3932037353516" type="line"/>
      <point x="50" y="523.6067962646484" type="line"/>
      <point x="123.60679626464844" y="450" type="line"/>
    </contour>
    <contour>
      <point x="500.0" y="800.0" type="line"/>
      <point x="300.0" y="800.0" type="line"/>
      <point x="300.0" y="723.6068" type="line"/>
      <point x="423.6068" y="600.0" type="line"/>
      <point x="500.0" y="600.0" type="line"/>
    </contour>
    <contour>
      <point x="376.39320373535156" y="-200" type="line"/>
      <point x="500" y="-76.39320373535156" type="line"/>
      <point x="500" y="76.39320373535156" type="line"/>
      <point x="426.39320373535156" y="150" type="line"/>
      <point x="500" y="223.60679626464844" type="line"/>
      <point x="500" y="376.39320373535156" type="line"/>
      <point x="376.39320373535156" y="500" type="line"/>
      <point x="300" y="500" type="line"/>
      <point x="300" y="-200" type="line"/>
    </contour>
    <contour>
      <point x="50.0" y="-200" type="line"/>
      <point x="250.0" y="-200" type="line"/>
      <point x="250.0" y="-123.6068" type="line"/>
      <point x="126.3932" y="0.0" type="line"/>
      <point x="50.0" y="0.0" type="line"/>
    </contour>
  </outline>
</glyph>
<glyph name="diaeresis" format="2">
  <advance width="550.0"/>
  <unicode hex="00A8"/>
  <outline>
    <contour>
      <point x="50.0" y="800" type="line"/>
      <point x="250.0" y="800" type="line"/>
      <point x="250.0" y="1000" type="line"/>
      <point x="50.0" y="1000" type="line"/>
    </contour>
    <contour>
      <point x="300.0" y="800" type="line"/>
      <point x="500.0" y="800" type="line"/>
      <point x="500.0" y="1000" type="line"/>
      <point x="300.0" y="1000" type="line"/>
    </contour>
  </outline>
</glyph>
<glyph name="copyright" format="2">
  <advance width="1148.52814"/>
  <unicode hex="00A9"/>
  <outline>
    <contour>
      <point x="998.5281399999999" y="575.73593" type="line"/>
      <point x="750.0" y="824.26407" type="line"/>
      <point x="398.52814" y="824.26407" type="line"/>
      <point x="150.0" y="575.73593" type="line"/>
      <point x="150.0" y="224.26407" type="line"/>
      <point x="398.52814" y="-24.26407" type="line"/>
      <point x="750.0" y="-24.26407" type="line"/>
      <point x="998.5281399999999" y="224.26407" type="line"/>
    </contour>
    <contour>
      <point x="460.3708724975586" y="190" type="line"/>
      <point x="336.7640686035156" y="313.60679626464844" type="line"/>
      <point x="336.7640686035156" y="486.39320373535156" type="line"/>
      <point x="460.3708724975586" y="610" type="line"/>
      <point x="536.7640686035156" y="610" type="line"/>
      <point x="536.7640686035156" y="190" type="line"/>
    </contour>
    <contour>
      <point x="786.76407" y="610.0" type="line"/>
      <point x="786.76407" y="410.0" type="line"/>
      <point x="710.37087" y="410.0" type="line"/>
      <point x="586.76407" y="533.6068" type="line"/>
      <point x="586.76407" y="610.0" type="line"/>
    </contour>
    <contour>
      <point x="786.76407" y="190.0" type="line"/>
      <point x="586.76407" y="190.0" type="line"/>
      <point x="586.76407" y="266.3932" type="line"/>
      <point x="710.37087" y="390.0" type="line"/>
      <point x="786.76407" y="390.0" type="line"/>
    </contour>
  </outline>
</glyph>
<glyph name="ordinalfeminine" format="2">
  <advance width="550.0"/>
  <unicode hex="00AA"/>
  <outline>
    <contour>
      <point x="173.60679626464844" y="400" type="line"/>
      <point x="250" y="400" type="line"/>
      <point x="250" y="800" type="line"/>
      <point x="173.60679626464844" y="800" type="line"/>
      <point x="50" y="676.3932037353516" type="line"/>
      <point x="50" y="523.6067962646484" type="line"/>
    </contour>
    <contour>
      <point x="423.60679626464844" y="400" type="line"/>
      <point x="500" y="400" type="line"/>
      <point x="500" y="800" type="line"/>
      <point x="300" y="800" type="line"/>
      <point x="300" y="523.6067962646484" type="line"/>
    </contour>
  </outline>
</glyph>
<glyph name="angledblleft" format="2">
  <advance width="550.0"/>
  <unicode hex="00AB"/>
  <outline>
    <contour>
      <point x="173.60679626464844" y="200" type="line"/>
      <point x="250" y="200" type="line"/>
      <point x="250" y="600" type="line"/>
      <point x="173.60679626464844" y="600" type="line"/>
      <point x="50" y="476.39320373535156" type="line"/>
      <point x="50" y="323.60679626464844" type="line"/>
    </contour>
    <contour>
      <point x="423.60679626464844" y="200" type="line"/>
      <point x="500" y="200" type="line"/>
      <point x="500" y="600" type="line"/>
      <point x="423.60679626464844" y="600" type="line"/>
      <point x="300" y="476.39320373535156" type="line"/>
      <point x="300" y="323.60679626464844" type="line"/>
    </contour>
  </outline>
</glyph>
<glyph name="registered" format="2">
  <advance width="1148.52814"/>
  <unicode hex="00AE"/>
  <outline>
    <contour>
      <point x="998.5281399999999" y="575.73593" type="line"/>
      <point x="750.0" y="824.26407" type="line"/>
      <point x="398.52814" y="824.26407" type="line"/>
      <point x="150.0" y="575.73593" type="line"/>
      <point x="150.0" y="224.26407" type="line"/>
      <point x="398.52814" y="-24.26407" type="line"/>
      <point x="750.0" y="-24.26407" type="line"/>
      <point x="998.5281399999999" y="224.26407" type="line"/>
    </contour>
    <contour>
      <point x="374.2640686035156" y="200" type="line"/>
      <point x="374.2640686035156" y="600" type="line"/>
      <point x="574.2640686035156" y="600" type="line"/>
      <point x="574.2640686035156" y="200" type="line"/>
    </contour>
    <contour>
      <point x="824.26407" y="600.0" type="line"/>
      <point x="824.26407" y="400.0" type="line"/>
      <point x="747.87087" y="400.0" type="line"/>
      <point x="624.26407" y="523.6068" type="line"/>
      <point x="624.26407" y="600.0" type="line"/>
    </contour>
  </outline>
</glyph>
<glyph name="macron" format="2">
  <advance width="550.0"/>
  <unicode hex="00AF"/>
  <outline>
    <contour>
      <point x="75" y="800" type="line"/>
      <point x="475" y="800" type="line"/>
      <point x="475" y="1000" type="line"/>
      <point x="75" y="1000" type="line"/>
    </contour>
  </outline>
</glyph>
<glyph name="degree" format="2">
  <advance width="360.0"/>
  <unicode hex="00B0"/>
  <outline>
    <contour>
      <point x="155.0" y="805.0" type="line"/>
      <point x="114.89357000000001" y="805.0" type="line"/>
      <point x="50.0" y="740.10643" type="line"/>
      <point x="50.0" y="659.89357" type="line"/>
      <point x="114.89357000000001" y="595.0" type="line"/>
      <point x="155.0" y="595.0" type="line"/>
    </contour>
    <contour>
      <point x="205.0" y="595.0" type="line"/>
      <point x="245.10643" y="595.0" type="line"/>
      <point x="310.0" y="659.89357" type="line"/>
      <point x="310.0" y="740.10643" type="line"/>
      <point x="245.10643" y="805.0" type="line"/>
      <point x="205.0" y="805.0" type="line"/>
    </contour>
  </outline>
</glyph>
<glyph name="plus_minus" format="2">
  <advance width="800.0"/>
  <unicode hex="00B1"/>
  <outline>
    <contour>
      <point x="100" y="100" type="line"/>
      <point x="700" y="100" type="line"/>
      <point x="700" y="300" type="line"/>
      <point x="500" y="300" type="line"/>
      <point x="500" y="400" type="line"/>
      <point x="700" y="400" type="line"/>
      <point x="700" y="600" type="line"/>
      <point x="500" y="600" type="line"/>
      <point x="500" y="700" type="line"/>
      <point x="300" y="700" type="line"/>
      <point x="300" y="600" type="line"/>
      <point x="100" y="600" type="line"/>
      <point x="100" y="400" type="line"/>
      <point x="300" y="400" type="line"/>
      <point x="300" y="300" type="line"/>
      <point x="100" y="300" type="line"/>
    </contour>
  </outline>
</glyph>
<glyph name="sup_three" format="2">
  <advance width="550.0"/>
  <unicode hex="00B3"/>
  <outline>
    <contour>
      <point x="50.0" y="800.0" type="line"/>
      <point x="50.0" y="600.0" type="line"/>
      <point x="126.3932" y="600.0" type="line"/>
      <point x="250.0" y="723.6068" type="line"/>
      <point x="250.0" y="800.0" type="line"/>
    </contour>
    <contour>
      <point x="300" y="800" type="line"/>
      <point x="300" y="195" type="line"/>
      <point x="376.39320373535156" y="195" type="line"/>
      <point x="500" y="318.60679626464844" type="line"/>
      <point x="500" y="476.39320373535156" type="line"/>
      <point x="376.39320373535156" y="600" type="line"/>
      <point x="500" y="723.6067962646484" type="line"/>
      <point x="500" y="800" type="line"/>
    </contour>
    <contour>
      <point x="250.0" y="395.0" type="line"/>
      <point x="50.0" y="395.0" type="line"/>
      <point x="50.0" y="318.6068" type="line"/>
      <point x="173.60680000000002" y="195.0" type="line"/>
      <point x="250.0" y="195.0" type="line"/>
    </contour>
  </outline>
</glyph>
<glyph name="acute" format="2">
  <advance width="300.0"/>
  <unicode hex="00B4"/>
  <outline>
    <contour>
      <point x="137.5" y="1000.0" type="line"/>
      <point x="137.5" y="800.0" type="line"/>
      <point x="213.8932" y="800.0" type="line"/>
      <point x="337.5" y="923.6068" type="line"/>
      <point x="337.5" y="1000.0" type="line"/>
    </contour>
  </outline>
</glyph>
<glyph name="mu" format="2">
  <advance width="600.0"/>
  <unicode hex="00B5"/>
  <outline>
    <contour>
      <point x="50" y="-200" type="line"/>
      <point x="250" y="-200" type="line"/>
      <point x="250" y="600" type="line"/>
      <point x="50" y="600" type="line"/>
    </contour>
    <contour>
      <point x="423.60679626464844" y="0" type="line"/>
      <point x="550" y="0" type="line"/>
      <point x="550" y="200" type="line"/>
      <point x="500" y="200" type="line"/>
      <point x="500" y="600" type="line"/>
      <point x="300" y="600" type="line"/>
      <point x="300" y="123.60679626464844" type="line"/>
    </contour>
  </outline>
</glyph>
<glyph name="periodcentered" format="2">
  <advance width="300.0"/>
  <unicode hex="00B7"/>
  <outline>
    <contour>
      <point x="50.0" y="300.0" type="line"/>
      <point x="250.0" y="300.0" type="line"/>
      <point x="250.0" y="500.0" type="line"/>
      <point x="50.0" y="500.0" type="line"/>
    </contour>
  </outline>
</glyph>
<glyph name="cedilla" format="2">
  <advance width="300.0"/>
  <unicode hex="00B8"/>
  <outline>
    <contour>
      <point x="137.5" y="-200" type="line"/>
      <point x="337.5" y="-200" type="line"/>
      <point x="337.5" y="-123.6068" type="line"/>
      <point x="213.8932" y="0.0" type="line"/>
      <point x="137.5" y="0.0" type="line"/>
    </contour>
  </outline>
</glyph>
<glyph name="sup_one" format="2">
  <advance width="300.0"/>
  <unicode hex="00B9"/>
  <outline>
    <contour>
      <point x="50" y="200" type="line"/>
      <point x="250" y="200" type="line"/>
      <point x="250" y="800" type="line"/>
      <point x="50" y="800" type="line"/>
    </contour>
  </outline>
</glyph>
<glyph name="angledblright" format="2">
  <advance width="550.0"/>
  <unicode hex="00BB"/>
  <outline>
    <contour>
      <point x="126.39320373535156" y="200" type="line"/>
      <point x="250" y="323.60679626464844" type="line"/>
      <point x="250" y="476.39320373535156" type="line"/>
      <point x="126.39320373535156" y="600" type="line"/>
      <point x="50" y="600" type="line"/>
      <point x="50" y="200" type="line"/>
    </contour>
    <contour>
      <point x="376.39320373535156" y="200" type="line"/>
      <point x="500" y="323.60679626464844" type="line"/>
      <point x="500" y="476.39320373535156" type="line"/>
      <point x="376.39320373535156" y="600" type="line"/>
      <point x="300" y="600" type="line"/>
      <point x="300" y="200" type="line"/>
    </contour>
  </outline>
</glyph>
<glyph name="one_over_four" format="2">
  <advance width="1050.0"/>
  <unicode hex="00BC"/>
  <outline>
    <contour>
      <point x="25" y="200" type="line"/>
      <point x="225" y="200" type="line"/>
      <point x="225" y="800" type="line"/>
      <point x="25" y="800" type="line"/>
    </contour>
    <contour>
      <point x="376.39320373535156" y="-200" type="line"/>
      <point x="500" y="-76.39320373535156" type="line"/>
      <point x="500" y="800" type="line"/>
      <point x="423.60679626464844" y="800" type="line"/>
      <point x="300" y="676.3932037353516" type="line"/>
      <point x="300" y="-200" type="line"/>
    </contour>
    <contour>
      <point x="651.3932037353516" y="0" type="line"/>
      <point x="775" y="123.60679626464844" type="line"/>
      <point x="775" y="400" type="line"/>
      <point x="575" y="400" type="line"/>
      <point x="575" y="0" type="line"/>
    </contour>
    <contour>
      <point x="825" y="-200" type="line"/>
      <point x="1025" y="-200" type="line"/>
      <point x="1025" y="200" type="line"/>
      <point x="825" y="200" type="line"/>
    </contour>
  </outline>
</glyph>
<glyph name="invquestion" format="2">
  <advance width="550.0"/>
  <unicode hex="00BF"/>
  <outline>
    <contour>
      <point x="300.0" y="400" type="line"/>
      <point x="500.0" y="400" type="line"/>
      <point x="500.0" y="600" type="line"/>
      <point x="300.0" y="600" type="line"/>
    </contour>
    <contour>
      <point x="300" y="350" type="line"/>
      <point x="300" y="5" type="line"/>
      <point x="376.39320373535156" y="5" type="line"/>
      <point x="500" y="128.60679626464844" type="line"/>
      <point x="500" y="350" type="line"/>
    </contour>
    <contour>
      <point x="173.60679626464844" y="-205" type="line"/>
      <point x="250" y="-205" type="line"/>
      <point x="250" y="195" type="line"/>
      <point x="173.60679626464844" y="195" type="line"/>
      <point x="50" y="71.39320373535156" type="line"/>
      <point x="50" y="-81.39320373535156" type="line"/>
    </contour>
    <contour>
      <point x="500.0" y="-205.0" type="line"/>
      <point x="500.0" y="-5.0" type="line"/>
      <point x="423.6068" y="-5.0" type="line"/>
      <point x="300.0" y="-128.6068" type="line"/>
      <point x="300.0" y="-205.0" type="line"/>
    </contour>
  </outline>
</glyph>
<glyph name="A_with_ring" format="2">
  <advance width="550.0"/>
  <unicode hex="00C5"/>
  <outline>
    <contour>
      <point x="250.0" y="1038.3333333333335" type="line"/>
      <point x="209.89357" y="1038.3333333333335" type="line"/>
      <point x="145.0" y="973.4397633333333" type="line"/>
      <point x="145.0" y="893.2269033333333" type="line"/>
      <point x="209.89357" y="828.3333333333334" type="line"/>
      <point x="250.0" y="828.3333333333334" type="line"/>
    </contour>
    <contour>
      <point x="300.0" y="828.3333333333334" type="line"/>
      <point x="340.10643" y="828.3333333333334" type="line"/>
      <point x="405.0" y="893.2269033333333" type="line"/>
      <point x="405.0" y="973.4397633333333" type="line"/>
      <point x="340.10643" y="1038.3333333333335" type="line"/>
      <point x="300.0" y="1038.3333333333335" type="line"/>
    </contour>
    <contour>
      <point x="50" y="0" type="line"/>
      <point x="250" y="0" type="line"/>
      <point x="250" y="805" type="line"/>
      <point x="173.60679626464844" y="805" type="line"/>
      <point x="50" y="681.3932037353516" type="line"/>
    </contour>
    <contour>
      <point x="300" y="0" type="line"/>
      <point x="500" y="0" type="line"/>
      <point x="500" y="681.3932037353516" type="line"/>
      <point x="376.39320373535156" y="805" type="line"/>
      <point x="300" y="805" type="line"/>
    </contour>
  </outline>
</glyph>
<glyph name="AE" format="2">
  <advance width="1050.0"/>
  <unicode hex="00C6"/>
  <outline>
    <contour>
      <point x="50" y="0" type="line"/>
      <point x="250" y="0" type="line"/>
      <point x="250" y="805" type="line"/>
      <point x="173.60679626464844" y="805" type="line"/>
      <point x="50" y="681.3932037353516" type="line"/>
    </contour>
    <contour>
      <point x="300" y="0" type="line"/>
      <point x="500" y="0" type="line"/>
      <point x="500" y="681.3932037353516" type="line"/>
      <point x="376.39320373535156" y="805" type="line"/>
      <point x="300" y="805" type="line"/>
    </contour>
    <contour>
      <point x="550" y="0" type="line"/>
      <point x="750" y="0" type="line"/>
      <point x="750" y="800" type="line"/>
      <point x="550" y="800" type="line"/>
    </contour>
    <contour>
      <point x="1000.0" y="800.0" type="line"/>
      <point x="800.0" y="800.0" type="line"/>
      <point x="800.0" y="723.6068" type="line"/>
      <point x="923.6068" y="600.0" type="line"/>
      <point x="1000.0" y="600.0" type="line"/>
    </contour>
    <contour>
      <point x="1000.0" y="500.0" type="line"/>
      <point x="800.0" y="500.0" type="line"/>
      <point x="800.0" y="423.6068" type="line"/>
      <point x="923.6068" y="300.0" type="line"/>
      <point x="1000.0" y="300.0" type="line"/>
    </contour>
    <contour>
      <point x="1000.0" y="0.0" type="line"/>
      <point x="1000.0" y="200.0" type="line"/>
      <point x="923.6068" y="200.0" type="line"/>
      <point x="800.0" y="76.3932" type="line"/>
      <point x="800.0" y="0.0" type="line"/>
    </contour>
  </outline>
</glyph>
<glyph name="E_with_acute" format="2">
  <advance width="550.0"/>
  <unicode hex="00C9"/>
  <outline>
    <contour>
      <point x="262.5" y="1033.3333333333335" type="line"/>
      <point x="262.5" y="833.3333333333334" type="line"/>
      <point x="338.8932" y="833.3333333333334" type="line"/>
      <point x="462.5" y="956.9401333333334" type="line"/>
      <point x="462.5" y="1033.3333333333335" type="line"/>
    </contour>
    <contour>
      <point x="50" y="0" type="line"/>
      <point x="250" y="0" type="line"/>
      <point x="250" y="800" type="line"/>
      <point x="50" y="800" type="line"/>
    </contour>
    <contour>
      <point x="500.0" y="800.0" type="line"/>
      <point x="300.0" y="800.0" type="line"/>
      <point x="300.0" y="723.6068" type="line"/>
      <point x="423.6068" y="600.0" type="line"/>
      <point x="500.0" y="600.0" type="line"/>
    </contour>
    <contour>
      <point x="500.0" y="500.0" type="line"/>
      <point x="300.0" y="500.0" type="line"/>
      <point x="300.0" y="423.6068" type="line"/>
      <point x="423.6068" y="300.0" type="line"/>
      <point x="500.0" y="300.0" type="line"/>
    </contour>
    <contour>
      <point x="500.0" y="0.0" type="line"/>
      <point x="500.0" y="200.0" type="line"/>
      <point x="423.6068" y="200.0" type="line"/>
      <point x="300.0" y="76.3932" type="line"/>
      <point x="300.0" y="0.0" type="line"/>
    </contour>
  </outline>
</glyph>
<glyph name="I_with_grave" format="2">
  <advance width="300.0"/>
  <unicode hex="00CC"/>
  <outline>
    <contour>
      <point x="162.5" y="1033.3333333333335" type="line"/>
      <point x="-37.5" y="1033.3333333333335" type="line"/>
      <point x="-37.5" y="956.9401333333334" type="line"/>
      <point x="86.10679999999999" y="833.3333333333334" type="line"/>
      <point x="162.5" y="833.3333333333334" type="line"/>
    </contour>
    <contour>
      <point x="50" y="0" type="line"/>
      <point x="250" y="0" type="line"/>
      <point x="250" y="800" type="line"/>
      <point x="50" y="800" type="line"/>
    </contour>
  </outline>
</glyph>
<glyph name="I_with_acute" format="2">
  <advance width="300.0"/>
  <unicode hex="00CD"/>
  <outline>
    <contour>
      <point x="137.5" y="1033.3333333333335" type="line"/>
      <point x="137.5" y="833.3333333333334" type="line"/>
      <point x="213.8932" y="833.3333333333334" type="line"/>
      <point x="337.5" y="956.9401333333334" type="line"/>
      <point x="337.5" y="1033.3333333333335" type="line"/>
    </contour>
    <contour>
      <point x="50" y="0" type="line"/>
      <point x="250" y="0" type="line"/>
      <point x="250" y="800" type="line"/>
      <point x="50" y="800" type="line"/>
    </contour>
  </outline>
</glyph>
<glyph name="I_with_circumflex" format="2">
  <advance width="300.0"/>
  <unicode hex="00CE"/>
  <outline>
    <contour>
      <point x="-56.25" y="1033.3333333333335" type="line"/>
      <point x="-56.25" y="833.3333333333334" type="line"/>
      <point x="20.143199999999993" y="833.3333333333334" type="line"/>
      <point x="143.75" y="956.9401333333334" type="line"/>
      <point x="143.75" y="1033.3333333333335" type="line"/>
    </contour>
    <contour>
      <point x="356.25" y="1033.3333333333335" type="line"/>
      <point x="156.25" y="1033.3333333333335" type="line"/>
      <point x="156.25" y="956.9401333333334" type="line"/>
      <point x="279.8568" y="833.3333333333334" type="line"/>
      <point x="356.25" y="833.3333333333334" type="line"/>
    </contour>
    <contour>
      <point x="50" y="0" type="line"/>
      <point x="250" y="0" type="line"/>
      <point x="250" y="800" type="line"/>
      <point x="50" y="800" type="line"/>
    </contour>
  </outline>
</glyph>
<glyph name="I_with_diaeresis" format="2">
  <advance width="300.0"/>
  <unicode hex="00CF"/>
  <outline>
    <contour>
      <point x="-75.0" y="833.3333333333334" type="line"/>
      <point x="125.0" y="833.3333333333334" type="line"/>
      <point x="125.0" y="1033.3333333333335" type="line"/>
      <point x="-75.0" y="1033.3333333333335" type="line"/>
    </contour>
    <contour>
      <point x="175.0" y="833.3333333333334" type="line"/>
      <point x="375.0" y="833.3333333333334" type="line"/>
      <point x="375.0" y="1033.3333333333335" type="line"/>
      <point x="175.0" y="1033.3333333333335" type="line"/>
    </contour>
    <contour>
      <point x="50" y="0" type="line"/>
      <point x="250" y="0" type="line"/>
      <point x="250" y="800" type="line"/>
      <point x="50" y="800" type="line"/>
    </contour>
  </outline>
</glyph>
<glyph name="ETH" format="2">
  <advance width="800.0"/>
  <unicode hex="00D0"/>
  <outline>
    <contour>
      <point x="300" y="0" type="line"/>
      <point x="500" y="0" type="line"/>
      <point x="500" y="800" type="line"/>
      <point x="300" y="800" type="line"/>
      <point x="300" y="500" type="line"/>
      <point x="298.60679626464844" y="500" type="line"/>
      <point x="175" y="376.39320373535156" type="line"/>
      <point x="175" y="300" type="line"/>
      <point x="300" y="300" type="line"/>
    </contour>
    <contour>
      <point x="626.3932037353516" y="0" type="line"/>
      <point x="750" y="123.60679626464844" type="line"/>
      <point x="750" y="676.3932037353516" type="line"/>
      <point x="626.3932037353516" y="800" type="line"/>
      <point x="550" y="800" type="line"/>
      <point x="550" y="0" type="line"/>
    </contour>
  </outline>
</glyph>
<glyph name="N_with_smalltilde" format="2">
  <advance width="550.0"/>
  <unicode hex="00D1"/>
  <outline>
    <contour>
      <point x="75" y="909.7265319824219" type="line"/>
      <point x="75" y="833.3333358764648" type="line"/>
      <point x="351.39320373535156" y="833.3333358764648" type="line"/>
      <point x="475" y="956.9401321411133" type="line"/>
      <point x="475" y="1033.3333358764648" type="line"/>
      <point x="198.60679626464844" y="1033.3333358764648" type="line"/>
    </contour>
    <contour>
      <point x="50" y="0" type="line"/>
      <point x="250" y="0" type="line"/>
      <point x="250" y="800" type="line"/>
      <point x="50" y="800" type="line"/>
    </contour>
    <contour>
      <point x="300" y="0" type="line"/>
      <point x="500" y="0" type="line"/>
      <point x="500" y="676.3932037353516" type="line"/>
      <point x="376.39320373535156" y="800" type="line"/>
      <point x="300" y="800" type="line"/>
    </contour>
  </outline>
</glyph>
<glyph name="O_with_acute" format="2">
  <advance width="550.0"/>
  <unicode hex="00D3"/>
  <outline>
    <contour>
      <point x="262.5" y="1033.3333333333335" type="line"/>
      <point x="262.5" y="833.3333333333334" type="line"/>
      <point x="338.8932" y="833.3333333333334" type="line"/>
      <point x="462.5" y="956.9401333333334" type="line"/>
      <point x="462.5" y="1033.3333333333335" type="line"/>
    </contour>
    <contour>
      <point x="173.60679626464844" y="-5" type="line"/>
      <point x="250" y="-5" type="line"/>
      <point x="250" y="805" type="line"/>
      <point x="173.60679626464844" y="805" type="line"/>
      <point x="50" y="681.3932037353516" type="line"/>
      <point x="50" y="118.60679626464844" type="line"/>
    </contour>
    <contour>
      <point x="376.39320373535156" y="-5" type="line"/>
      <point x="500" y="118.60679626464844" type="line"/>
      <point x="500" y="681.3932037353516" type="line"/>
      <point x="376.39320373535156" y="805" type="line"/>
      <point x="300" y="805" type="line"/>
      <point x="300" y="-5" type="line"/>
    </contour>
  </outline>
</glyph>
<glyph name="O_with_circumflex" format="2">
  <advance width="550.0"/>
  <unicode hex="00D4"/>
  <outline>
    <contour>
      <point x="68.75" y="1033.3333333333335" type="line"/>
      <point x="68.75" y="833.3333333333334" type="line"/>
      <point x="145.14319999999998" y="833.3333333333334" type="line"/>
      <point x="268.75" y="956.9401333333334" type="line"/>
      <point x="268.75" y="1033.3333333333335" type="line"/>
    </contour>
    <contour>
      <point x="481.25" y="1033.3333333333335" type="line"/>
      <point x="281.25" y="1033.3333333333335" type="line"/>
      <point x="281.25" y="956.9401333333334" type="line"/>
      <point x="404.8568" y="833.3333333333334" type="line"/>
      <point x="481.25" y="833.3333333333334" type="line"/>
    </contour>
    <contour>
      <point x="173.60679626464844" y="-5" type="line"/>
      <point x="250" y="-5" type="line"/>
      <point x="250" y="805" type="line"/>
      <point x="173.60679626464844" y="805" type="line"/>
      <point x="50" y="681.3932037353516" type="line"/>
      <point x="50" y="118.60679626464844" type="line"/>
    </contour>
    <contour>
      <point x="376.39320373535156" y="-5" type="line"/>
      <point x="500" y="118.60679626464844" type="line"/>
      <point x="500" y="681.3932037353516" type="line"/>
      <point x="376.39320373535156" y="805" type="line"/>
      <point x="300" y="805" type="line"/>
      <point x="300" y="-5" type="line"/>
    </contour>
  </outline>
</glyph>
<glyph name="multiply" format="2">
  <advance width="550.0"/>
  <unicode hex="00D7"/>
  <outline>
    <contour>
      <point x="250" y="200" type="line"/>
      <point x="250" y="600" type="line"/>
      <point x="50" y="600" type="line"/>
      <point x="50" y="523.6067962646484" type="line"/>
      <point x="173.60679626464844" y="400" type="line"/>
      <point x="50" y="276.39320373535156" type="line"/>
      <point x="50" y="200" type="line"/>
    </contour>
    <contour>
      <point x="300" y="200" type="line"/>
      <point x="500" y="200" type="line"/>
      <point x="500" y="276.39320373535156" type="line"/>
      <point x="376.39320373535156" y="400" type="line"/>
      <point x="500" y="523.6067962646484" type="line"/>
      <point x="500" y="600" type="line"/>
      <point x="300" y="600" type="line"/>
    </contour>
  </outline>
</glyph>
<glyph name="O_with_stroke" format="2">
  <advance width="550.0"/>
  <unicode hex="00D8"/>
  <outline>
    <contour>
      <point x="350" y="900" type="line"/>
      <point x="350" y="805" type="line"/>
      <point x="300" y="805" type="line"/>
      <point x="300" y="-5" type="line"/>
      <point x="376.39320373535156" y="-5" type="line"/>
      <point x="500" y="118.60679626464844" type="line"/>
      <point x="500" y="681.3932037353516" type="line"/>
      <point x="453.89320373535156" y="727.5" type="line"/>
      <point x="550" y="823.6067962646484" type="line"/>
      <point x="550" y="900" type="line"/>
    </contour>
    <contour>
      <point x="200" y="-100" type="line"/>
      <point x="200" y="-5" type="line"/>
      <point x="250" y="-5" type="line"/>
      <point x="250" y="805" type="line"/>
      <point x="173.60679626464844" y="805" type="line"/>
      <point x="50" y="681.3932037353516" type="line"/>
      <point x="50" y="118.60679626464844" type="line"/>
      <point x="96.10679626464844" y="72.5" type="line"/>
      <point x="0" y="-23.606796264648438" type="line"/>
      <point x="0" y="-100" type="line"/>
    </contour>
  </outline>
</glyph>
<glyph name="U_with_grave" format="2">
  <advance width="550.0"/>
  <unicode hex="00D9"/>
  <outline>
    <contour>
      <point x="287.5" y="1033.3333333333335" type="line"/>
      <point x="87.5" y="1033.3333333333335" type="line"/>
      <point x="87.5" y="956.9401333333334" type="line"/>
      <point x="211.1068" y="833.3333333333334" type="line"/>
      <point x="287.5" y="833.3333333333334" type="line"/>
    </contour>
    <contour>
      <point x="173.60679626464844" y="-5" type="line"/>
      <point x="250" y="-5" type="line"/>
      <point x="250" y="800" type="line"/>
      <point x="50" y="800" type="line"/>
      <point x="50" y="118.60679626464844" type="line"/>
    </contour>
    <contour>
      <point x="376.39320373535156" y="-5" type="line"/>
      <point x="500" y="118.60679626464844" type="line"/>
      <point x="500" y="800" type="line"/>
      <point x="300" y="800" type="line"/>
      <point x="300" y="-5" type="line"/>
    </contour>
  </outline>
</glyph>
<glyph name="U_with_circumflex" format="2">
  <advance width="550.0"/>
  <unicode hex="00DB"/>
  <outline>
    <contour>
      <point x="68.75" y="1033.3333333333335" type="line"/>
      <point x="68.75" y="833.3333333333334" type="line"/>
      <point x="145.14319999999998" y="833.3333333333334" type="line"/>
      <point x="268.75" y="956.9401333333334" type="line"/>
      <point x="268.75" y="1033.3333333333335" type="line"/>
    </contour>
    <contour>
      <point x="481.25" y="1033.3333333333335" type="line"/>
      <point x="281.25" y="1033.3333333333335" type="line"/>
      <point x="281.25" y="956.9401333333334" type="line"/>
      <point x="404.8568" y="833.3333333333334" type="line"/>
      <point x="481.25" y="833.3333333333334" type="line"/>
    </contour>
    <contour>
      <point x="173.60679626464844" y="-5" type="line"/>
      <point x="250" y="-5" type="line"/>
      <point x="250" y="800" type="line"/>
      <point x="50" y="800" type="line"/>
      <point x="50" y="118.60679626464844" type="line"/>
    </contour>
    <contour>
      <point x="376.39320373535156" y="-5" type="line"/>
      <point x="500" y="118.60679626464844" type="line"/>
      <point x="500" y="800" type="line"/>
      <point x="300" y="800" type="line"/>
      <point x="300" y="-5" type="line"/>
    </contour>
  </outline>
</glyph>
<glyph name="THORN" format="2">
  <advance width="550.0"/>
  <unicode hex="00DE"/>
  <outline>
    <contour>
      <point x="50" y="0" type="line"/>
      <point x="250" y="0" type="line"/>
      <point x="250" y="800" type="line"/>
      <point x="50" y="800" type="line"/>
    </contour>
    <contour>
      <point x="376.39320373535156" y="100" type="line"/>
      <point x="500" y="223.60679626464844" type="line"/>
      <point x="500" y="576.3932037353516" type="line"/>
      <point x="376.39320373535156" y="700" type="line"/>
      <point x="300" y="700" type="line"/>
      <point x="300" y="100" type="line"/>
    </contour>
  </outline>
</glyph>
<glyph name="eszett" format="2">
  <advance width="550.0"/>
  <unicode hex="00DF"/>
  <outline>
    <contour>
      <point x="50" y="0" type="line"/>
      <point x="250" y="0" type="line"/>
      <point x="250" y="800" type="line"/>
      <point x="173.60679626464844" y="800" type="line"/>
      <point x="50" y="676.3932037353516" type="line"/>
    </contour>
    <contour>
      <point x="376.39320373535156" y="0" type="line"/>
      <point x="500" y="123.60679626464844" type="line"/>
      <point x="500" y="276.39320373535156" type="line"/>
      <point x="376.39320373535156" y="400" type="line"/>
      <point x="500" y="523.6067962646484" type="line"/>
      <point x="500" y="676.3932037353516" type="line"/>
      <point x="376.39320373535156" y="800" type="line"/>
      <point x="300" y="800" type="line"/>
      <point x="300" y="0" type="line"/>
    </contour>
  </outline>
</glyph>
<glyph name="a_with_circumflex" format="2">
  <advance width="550.0"/>
  <unicode hex="00E2"/>
  <outline>
    <contour>
      <point x="68.75" y="833.3333333333334" type="line"/>
      <point x="68.75" y="633.3333333333334" type="line"/>
      <point x="145.14319999999998" y="633.3333333333334" type="line"/>
      <point x="268.75" y="756.9401333333334" type="line"/>
      <point x="268.75" y="833.3333333333334" type="line"/>
    </contour>
    <contour>
      <point x="481.25" y="833.3333333333334" type="line"/>
      <point x="281.25" y="833.3333333333334" type="line"/>
      <point x="281.25" y="756.9401333333334" type="line"/>
      <point x="404.8568" y="633.3333333333334" type="line"/>
      <point x="481.25" y="633.3333333333334" type="line"/>
    </contour>
    <contour>
      <point x="50.0" y="600.0" type="line"/>
      <point x="50.0" y="400.0" type="line"/>
      <point x="126.3932" y="400.0" type="line"/>
      <point x="250.0" y="523.6068" type="line"/>
      <point x="250.0" y="600.0" type="line"/>
    </contour>
    <contour>
      <point x="423.60679626464844" y="-5" type="line"/>
      <point x="500" y="-5" type="line"/>
      <point x="500" y="476.39320373535156" type="line"/>
      <point x="376.39320373535156" y="600" type="line"/>
      <point x="300" y="600" type="line"/>
      <point x="300" y="118.60679626464844" type="line"/>
    </contour>
    <contour>
      <point x="173.60679626464844" y="0" type="line"/>
      <point x="250" y="0" type="line"/>
      <point x="250" y="400" type="line"/>
      <point x="173.60679626464844" y="400" type="line"/>
      <point x="50" y="276.39320373535156" type="line"/>
      <point x="50" y="123.60679626464844" type="line"/>
    </contour>
  </outline>
</glyph>
<glyph name="a_with_ring" format="2">
  <advance width="550.0"/>
  <unicode hex="00E5"/>
  <outline>
    <contour>
      <point x="250.0" y="838.3333333333334" type="line"/>
      <point x="209.89357" y="838.3333333333334" type="line"/>
      <point x="145.0" y="773.4397633333333" type="line"/>
      <point x="145.0" y="693.2269033333333" type="line"/>
      <point x="209.89357" y="628.3333333333334" type="line"/>
      <point x="250.0" y="628.3333333333334" type="line"/>
    </contour>
    <contour>
      <point x="300.0" y="628.3333333333334" type="line"/>
      <point x="340.10643" y="628.3333333333334" type="line"/>
      <point x="405.0" y="693.2269033333333" type="line"/>
      <point x="405.0" y="773.4397633333333" type="line"/>
      <point x="340.10643" y="838.3333333333334" type="line"/>
      <point x="300.0" y="838.3333333333334" type="line"/>
    </contour>
    <contour>
      <point x="50.0" y="600.0" type="line"/>
      <point x="50.0" y="400.0" type="line"/>
      <point x="126.3932" y="400.0" type="line"/>
      <point x="250.0" y="523.6068" type="line"/>
      <point x="250.0" y="600.0" type="line"/>
    </contour>
    <contour>
      <point x="423.60679626464844" y="-5" type="line"/>
      <point x="500" y="-5" type="line"/>
      <point x="500" y="476.39320373535156" type="line"/>
      <point x="376.39320373535156" y="600" type="line"/>
      <point x="300" y="600" type="line"/>
      <point x="300" y="118.60679626464844" type="line"/>
    </contour>
    <contour>
      <point x="173.60679626464844" y="0" type="line"/>
      <point x="250" y="0" type="line"/>
      <point x="250" y="400" type="line"/>
      <point x="173.60679626464844" y="400" type="line"/>
      <point x="50" y="276.39320373535156" type="line"/>
      <point x="50" y="123.60679626464844" type="line"/>
    </contour>
  </outline>
</glyph>
<glyph name="ae" format="2">
  <advance width="1050.0"/>
  <unicode hex="00E6"/>
  <outline>
    <contour>
      <point x="376.39320373535156" y="-5" type="line"/>
      <point x="500" y="118.60679626464844" type="line"/>
      <point x="500" y="481.39320373535156" type="line"/>
      <point x="376.39320373535156" y="605" type="line"/>
      <point x="300" y="605" type="line"/>
      <point x="300" y="-5" type="line"/>
    </contour>
    <contour>
      <point x="673.6067962646484" y="-5" type="line"/>
      <point x="750" y="-5" type="line"/>
      <point x="750" y="605" type="line"/>
      <point x="673.6067962646484" y="605" type="line"/>
      <point x="550" y="481.39320373535156" type="line"/>
      <point x="550" y="118.60679626464844" type="line"/>
    </contour>
    <contour>
      <point x="800" y="195" type="line"/>
      <point x="1000" y="195" type="line"/>
      <point x="1000" y="481.39320373535156" type="line"/>
      <point x="876.3932037353516" y="605" type="line"/>
      <point x="800" y="605" type="line"/>
    </contour>
    <contour>
      <point x="53.125" y="600.0" type="line"/>
      <point x="53.125" y="400.0" type="line"/>
      <point x="129.51819999999998" y="400.0" type="line"/>
      <point x="253.125" y="523.6068" type="line"/>
      <point x="253.125" y="600.0" type="line"/>
    </contour>
    <contour>
      <point x="173.60679626464844" y="-5" type="line"/>
      <point x="250" y="-5" type="line"/>
      <point x="250" y="395" type="line"/>
      <point x="173.60679626464844" y="395" type="line"/>
      <point x="50" y="271.39320373535156" type="line"/>
      <point x="50" y="118.60679626464844" type="line"/>
    </contour>
  </outline>
</glyph>
<glyph name="c_with_cedilla" format="2">
  <advance width="550.0"/>
  <unicode hex="00E7"/>
  <outline>
    <contour>
      <point x="173.60679626464844" y="0" type="line"/>
      <point x="250" y="0" type="line"/>
      <point x="250" y="600" type="line"/>
      <point x="173.60679626464844" y="600" type="line"/>
      <point x="50" y="476.39320373535156" type="line"/>
      <point x="50" y="123.60679626464844" type="line"/>
    </contour>
    <contour>
      <point x="500.0" y="600.0" type="line"/>
      <point x="300.0" y="600.0" type="line"/>
      <point x="300.0" y="523.6068" type="line"/>
      <point x="423.6068" y="400.0" type="line"/>
      <point x="500.0" y="400.0" type="line"/>
    </contour>
    <contour>
      <point x="496.875" y="0.0" type="line"/>
      <point x="496.875" y="200.0" type="line"/>
      <point x="420.4818" y="200.0" type="line"/>
      <point x="296.875" y="76.3932" type="line"/>
      <point x="296.875" y="0.0" type="line"/>
    </contour>
    <contour>
      <point x="262.5" y="-225.0" type="line"/>
      <point x="462.5" y="-225.0" type="line"/>
      <point x="462.5" y="-148.60680000000002" type="line"/>
      <point x="338.8932" y="-25.0" type="line"/>
      <point x="262.5" y="-25.0" type="line"/>
    </contour>
  </outline>
</glyph>
<glyph name="e_with_acute" format="2">
  <advance width="550.0"/>
  <unicode hex="00E9"/>
  <outline>
    <contour>
      <point x="262.5" y="833.3333333333334" type="line"/>
      <point x="262.5" y="633.3333333333334" type="line"/>
      <point x="338.8932" y="633.3333333333334" type="line"/>
      <point x="462.5" y="756.9401333333334" type="line"/>
      <point x="462.5" y="833.3333333333334" type="line"/>
    </contour>
    <contour>
      <point x="173.60679626464844" y="-5" type="line"/>
      <point x="250" y="-5" type="line"/>
      <point x="250" y="605" type="line"/>
      <point x="173.60679626464844" y="605" type="line"/>
      <point x="50" y="481.39320373535156" type="line"/>
      <point x="50" y="118.60679626464844" type="line"/>
    </contour>
    <contour>
      <point x="300" y="195" type="line"/>
      <point x="500" y="195" type="line"/>
      <point x="500" y="481.39320373535156" type="line"/>
      <point x="376.39320373535156" y="605" type="line"/>
      <point x="300" y="605" type="line"/>
    </contour>
  </outline>
</glyph>
<glyph name="e_with_circumflex" format="2">
  <advance width="550.0"/>
  <unicode hex="00EA"/>
  <outline>
    <contour>
      <point x="68.75" y="833.3333333333334" type="line"/>
      <point x="68.75" y="633.3333333333334" type="line"/>
      <point x="145.14319999999998" y="633.3333333333334" type="line"/>
      <point x="268.75" y="756.9401333333334" type="line"/>
      <point x="268.75" y="833.3333333333334" type="line"/>
    </contour>
    <contour>
      <point x="481.25" y="833.3333333333334" type="line"/>
      <point x="281.25" y="833.3333333333334" type="line"/>
      <point x="281.25" y="756.9401333333334" type="line"/>
      <point x="404.8568" y="633.3333333333334" type="line"/>
      <point x="481.25" y="633.3333333333334" type="line"/>
    </contour>
    <contour>
      <point x="173.60679626464844" y="-5" type="line"/>
      <point x="250" y="-5" type="line"/>
      <point x="250" y="605" type="line"/>
      <point x="173.60679626464844" y="605" type="line"/>
      <point x="50" y="481.39320373535156" type="line"/>
      <point x="50" y="118.60679626464844" type="line"/>
    </contour>
    <contour>
      <point x="300" y="195" type="line"/>
      <point x="500" y="195" type="line"/>
      <point x="500" y="481.39320373535156" type="line"/>
      <point x="376.39320373535156" y="605" type="line"/>
      <point x="300" y="605" type="line"/>
    </contour>
  </outline>
</glyph>
<glyph name="e_with_diaeresis" format="2">
  <advance width="550.0"/>
  <unicode hex="00EB"/>
  <outline>
    <contour>
      <point x="50.0" y="633.3333333333334" type="line"/>
      <point x="250.0" y="633.3333333333334" type="line"/>
      <point x="250.0" y="833.3333333333334" type="line"/>
      <point x="50.0" y="833.3333333333334" type="line"/>
    </contour>
    <contour>
      <point x="300.0" y="633.3333333333334" type="line"/>
      <point x="500.0" y="633.3333333333334" type="line"/>
      <point x="500.0" y="833.3333333333334" type="line"/>
      <point x="300.0" y="833.3333333333334" type="line"/>
    </contour>
    <contour>
      <point x="173.60679626464844" y="-5" type="line"/>
      <point x="250" y="-5" type="line"/>
      <point x="250" y="605" type="line"/>
      <point x="173.60679626464844" y="605" type="line"/>
      <point x="50" y="481.39320373535156" type="line"/>
      <point x="50" y="118.60679626464844" type="line"/>
    </contour>
    <contour>
      <point x="300" y="195" type="line"/>
      <point x="500" y="195" type="line"/>
      <point x="500" y="481.39320373535156" type="line"/>
      <point x="376.39320373535156" y="605" type="line"/>
      <point x="300" y="605" type="line"/>
    </contour>
  </outline>
</glyph>
<glyph name="i_with_grave" format="2">
  <advance width="300.0"/>
  <unicode hex="00EC"/>
  <outline>
    <contour>
      <point x="162.5" y="833.3333333333334" type="line"/>
      <point x="-37.5" y="833.3333333333334" type="line"/>
      <point x="-37.5" y="756.9401333333334" type="line"/>
      <point x="86.10679999999999" y="633.3333333333334" type="line"/>
      <point x="162.5" y="633.3333333333334" type="line"/>
    </contour>
    <contour>
      <point x="50" y="0" type="line"/>
      <point x="250" y="0" type="line"/>
      <point x="250" y="600" type="line"/>
      <point x="50" y="600" type="line"/>
    </contour>
  </outline>
</glyph>
<glyph name="i_with_circumflex" format="2">
  <advance width="300.0"/>
  <unicode hex="00EE"/>
  <outline>
    <contour>
      <point x="-56.25" y="833.3333333333334" type="line"/>
      <point x="-56.25" y="633.3333333333334" type="line"/>
      <point x="20.143199999999993" y="633.3333333333334" type="line"/>
      <point x="143.75" y="756.9401333333334" type="line"/>
      <point x="143.75" y="833.3333333333334" type="line"/>
    </contour>
    <contour>
      <point x="356.25" y="833.3333333333334" type="line"/>
      <point x="156.25" y="833.3333333333334" type="line"/>
      <point x="156.25" y="756.9401333333334" type="line"/>
      <point x="279.8568" y="633.3333333333334" type="line"/>
      <point x="356.25" y="633.3333333333334" type="line"/>
    </contour>
    <contour>
      <point x="50" y="0" type="line"/>
      <point x="250" y="0" type="line"/>
      <point x="250" y="600" type="line"/>
      <point x="50" y="600" type="line"/>
    </contour>
  </outline>
</glyph>
<glyph name="i_with_diaeresis" format="2">
  <advance width="300.0"/>
  <unicode hex="00EF"/>
  <outline>
    <contour>
      <point x="-75.0" y="633.3333333333334" type="line"/>
      <point x="125.0" y="633.3333333333334" type="line"/>
      <point x="125.0" y="833.3333333333334" type="line"/>
      <point x="-75.0" y="833.3333333333334" type="line"/>
    </contour>
    <contour>
      <point x="175.0" y="633.3333333333334" type="line"/>
      <point x="375.0" y="633.3333333333334" type="line"/>
      <point x="375.0" y="833.3333333333334" type="line"/>
      <point x="175.0" y="833.3333333333334" type="line"/>
    </contour>
    <contour>
      <point x="50" y="0" type="line"/>
      <point x="250" y="0" type="line"/>
      <point x="250" y="600" type="line"/>
      <point x="50" y="600" type="line"/>
    </contour>
  </outline>
</glyph>
<glyph name="n_with_smalltilde" format="2">
  <advance width="550.0"/>
  <unicode hex="00F1"/>
  <outline>
    <contour>
      <point x="75" y="709.7265319824219" type="line"/>
      <point x="75" y="633.3333358764648" type="line"/>
      <point x="351.39320373535156" y="633.3333358764648" type="line"/>
      <point x="475" y="756.9401321411133" type="line"/>
      <point x="475" y="833.3333358764648" type="line"/>
      <point x="198.60679626464844" y="833.3333358764648" type="line"/>
    </contour>
    <contour>
      <point x="50" y="0" type="line"/>
      <point x="250" y="0" type="line"/>
      <point x="250" y="600" type="line"/>
      <point x="50" y="600" type="line"/>
    </contour>
    <contour>
      <point x="300" y="0" type="line"/>
      <point x="500" y="0" type="line"/>
      <point x="500" y="476.39320373535156" type="line"/>
      <point x="376.39320373535156" y="600" type="line"/>
      <point x="300" y="600" type="line"/>
    </contour>
  </outline>
</glyph>
<glyph name="divide" format="2">
  <advance width="800.0"/>
  <unicode hex="00F7"/>
  <outline>
    <contour>
      <point x="300.0" y="550.0" type="line"/>
      <point x="500.0" y="550.0" type="line"/>
      <point x="500.0" y="750.0" type="line"/>
      <point x="300.0" y="750.0" type="line"/>
    </contour>
    <contour>
      <point x="100" y="300" type="line"/>
      <point x="700" y="300" type="line"/>
      <point x="700" y="500" type="line"/>
      <point x="100" y="500" type="line"/>
    </contour>
    <contour>
      <point x="300.0" y="50.0" type="line"/>
      <point x="500.0" y="50.0" type="line"/>
      <point x="500.0" y="250.0" type="line"/>
      <point x="300.0" y="250.0" type="line"/>
    </contour>
  </outline>
</glyph>
<glyph name="u_with_circumflex" format="2">
  <advance width="550.0"/>
  <unicode hex="00FB"/>
  <outline>
    <contour>
      <point x="68.75" y="833.3333333333334" type="line"/>
      <point x="68.75" y="633.3333333333334" type="line"/>
      <point x="145.14319999999998" y="633.3333333333334" type="line"/>
      <point x="268.75" y="756.9401333333334" type="line"/>
      <point x="268.75" y="833.3333333333334" type="line"/>
    </contour>
    <contour>
      <point x="481.25" y="833.3333333333334" type="line"/>
      <point x="281.25" y="833.3333333333334" type="line"/>
      <point x="281.25" y="756.9401333333334" type="line"/>
      <point x="404.8568" y="633.3333333333334" type="line"/>
      <point x="481.25" y="633.3333333333334" type="line"/>
    </contour>
    <contour>
      <point x="173.60679626464844" y="-5" type="line"/>
      <point x="250" y="-5" type="line"/>
      <point x="250" y="600" type="line"/>
      <point x="50" y="600" type="line"/>
      <point x="50" y="118.60679626464844" type="line"/>
    </contour>
    <contour>
      <point x="376.39320373535156" y="-5" type="line"/>
      <point x="500" y="118.60679626464844" type="line"/>
      <point x="500" y="600" type="line"/>
      <point x="300" y="600" type="line"/>
      <point x="300" y="-5" type="line"/>
    </contour>
  </outline>
</glyph>
<glyph name="A_with_ogonek" format="2">
  <advance width="550.0"/>
  <unicode hex="0104"/>
  <outline>
    <contour>
      <point x="50" y="0" type="line"/>
      <point x="250" y="0" type="line"/>
      <point x="250" y="805" type="line"/>
      <point x="173.60679626464844" y="805" type="line"/>
      <point x="50" y="681.3932037353516" type="line"/>
    </contour>
    <contour>
      <point x="300" y="0" type="line"/>
      <point x="500" y="0" type="line"/>
      <point x="500" y="681.3932037353516" type="line"/>
      <point x="376.39320373535156" y="805" type="line"/>
      <point x="300" y="805" type="line"/>
    </contour>
    <contour>
      <point x="500.0" y="-225.0" type="line"/>
      <point x="500.0" y="-25.0" type="line"/>
      <point x="423.6068" y="-25.0" type="line"/>
      <point x="300.0" y="-148.60680000000002" type="line"/>
      <point x="300.0" y="-225.0" type="line"/>
    </contour>
  </outline>
</glyph>
<glyph name="C_with_acute" format="2">
  <advance width="550.0"/>
  <unicode hex="0106"/>
  <outline>
    <contour>
      <point x="262.5" y="1033.3333333333335" type="line"/>
      <point x="262.5" y="833.3333333333334" type="line"/>
      <point x="338.8932" y="833.3333333333334" type="line"/>
      <point x="462.5" y="956.9401333333334" type="line"/>
      <point x="462.5" y="1033.3333333333335" type="line"/>
    </contour>
    <contour>
      <point x="173.60679626464844" y="0" type="line"/>
      <point x="250" y="0" type="line"/>
      <point x="250" y="800" type="line"/>
      <point x="173.60679626464844" y="800" type="line"/>
      <point x="50" y="676.3932037353516" type="line"/>
      <point x="50" y="123.60679626464844" type="line"/>
    </contour>
    <contour>
      <point x="423.60679626464844" y="400" type="line"/>
      <point x="500" y="400" type="line"/>
      <point x="500" y="800" type="line"/>
      <point x="300" y="800" type="line"/>
      <point x="300" y="523.6067962646484" type="line"/>
    </contour>
    <contour>
      <point x="500.0" y="0.0" type="line"/>
      <point x="500.0" y="200.0" type="line"/>
      <point x="423.6068" y="200.0" type="line"/>
      <point x="300.0" y="76.3932" type="line"/>
      <point x="300.0" y="0.0" type="line"/>
    </contour>
  </outline>
</glyph>
<glyph name="c_with_circumflex" format="2">
  <advance width="550.0"/>
  <unicode hex="0109"/>
  <outline>
    <contour>
      <point x="68.75" y="833.3333333333334" type="line"/>
      <point x="68.75" y="633.3333333333334" type="line"/>
      <point x="145.14319999999998" y="633.3333333333334" type="line"/>
      <point x="268.75" y="756.9401333333334" type="line"/>
      <point x="268.75" y="833.3333333333334" type="line"/>
    </contour>
    <contour>
      <point x="481.25" y="833.3333333333334" type="line"/>
      <point x="281.25" y="833.3333333333334" type="line"/>
      <point x="281.25" y="756.9401333333334" type="line"/>
      <point x="404.8568" y="633.3333333333334" type="line"/>
      <point x="481.25" y="633.3333333333334" type="line"/>
    </contour>
    <contour>
      <point x="173.60679626464844" y="0" type="line"/>
      <point x="250" y="0" type="line"/>
      <point x="250" y="600" type="line"/>
      <point x="173.60679626464844" y="600" type="line"/>
      <point x="50" y="476.39320373535156" type="line"/>
      <point x="50" y="123.60679626464844" type="line"/>
    </contour>
    <contour>
      <point x="500.0" y="600.0" type="line"/>
      <point x="300.0" y="600.0" type="line"/>
      <point x="300.0" y="523.6068" type="line"/>
      <point x="423.6068" y="400.0" type="line"/>
      <point x="500.0" y="400.0" type="line"/>
    </contour>
    <contour>
      <point x="496.875" y="0.0" type="line"/>
      <point x="496.875" y="200.0" type="line"/>
      <point x="420.4818" y="200.0" type="line"/>
      <point x="296.875" y="76.3932" type="line"/>
      <point x="296.875" y="0.0" type="line"/>
    </contour>
  </outline>
</glyph>
<glyph name="c_with_dotabove" format="2">
  <advance width="550.0"/>
  <unicode hex="010B"/>
  <outline>
    <contour>
      <point x="175.0" y="633.3333333333334" type="line"/>
      <point x="375.0" y="633.3333333333334" type="line"/>
      <point x="375.0" y="833.3333333333334" type="line"/>
      <point x="175.0" y="833.3333333333334" type="line"/>
    </contour>
    <contour>
      <point x="173.60679626464844" y="0" type="line"/>
      <point x="250" y="0" type="line"/>
      <point x="250" y="600" type="line"/>
      <point x="173.60679626464844" y="600" type="line"/>
      <point x="50" y="476.39320373535156" type="line"/>
      <point x="50" y="123.60679626464844" type="line"/>
    </contour>
    <contour>
      <point x="500.0" y="600.0" type="line"/>
      <point x="300.0" y="600.0" type="line"/>
      <point x="300.0" y="523.6068" type="line"/>
      <point x="423.6068" y="400.0" type="line"/>
      <point x="500.0" y="400.0" type="line"/>
    </contour>
    <contour>
      <point x="496.875" y="0.0" type="line"/>
      <point x="496.875" y="200.0" type="line"/>
      <point x="420.4818" y="200.0" type="line"/>
      <point x="296.875" y="76.3932" type="line"/>
      <point x="296.875" y="0.0" type="line"/>
    </contour>
  </outline>
</glyph>
<glyph name="e_with_ogonek" format="2">
  <advance width="550.0"/>
  <unicode hex="0119"/>
  <outline>
    <contour>
      <point x="173.60679626464844" y="-5" type="line"/>
      <point x="250" y="-5" type="line"/>
      <point x="250" y="605" type="line"/>
      <point x="173.60679626464844" y="605" type="line"/>
      <point x="50" y="481.39320373535156" type="line"/>
      <point x="50" y="118.60679626464844" type="line"/>
    </contour>
    <contour>
      <point x="300" y="195" type="line"/>
      <point x="500" y="195" type="line"/>
      <point x="500" y="481.39320373535156" type="line"/>
      <point x="376.39320373535156" y="605" type="line"/>
      <point x="300" y="605" type="line"/>
    </contour>
    <contour>
      <point x="275.0" y="-230.0" type="line"/>
      <point x="275.0" y="-30.0" type="line"/>
      <point x="198.6068" y="-30.0" type="line"/>
      <point x="75.0" y="-153.60680000000002" type="line"/>
      <point x="75.0" y="-230.0" type="line"/>
    </contour>
  </outline>
</glyph>
<glyph name="G_with_breve" format="2">
  <advance width="550.0"/>
  <unicode hex="011E"/>
  <outline>
    <contour>
      <point x="75" y="956.9401321411133" type="line"/>
      <point x="198.60679626464844" y="833.3333358764648" type="line"/>
      <point x="351.39320373535156" y="833.3333358764648" type="line"/>
      <point x="475" y="956.9401321411133" type="line"/>
      <point x="475" y="1033.3333358764648" type="line"/>
      <point x="75" y="1033.3333358764648" type="line"/>
    </contour>
    <contour>
      <point x="173.60679626464844" y="0" type="line"/>
      <point x="250" y="0" type="line"/>
      <point x="250" y="800" type="line"/>
      <point x="173.60679626464844" y="800" type="line"/>
      <point x="50" y="676.3932037353516" type="line"/>
      <point x="50" y="123.60679626464844" type="line"/>
    </contour>
    <contour>
      <point x="500.0" y="800.0" type="line"/>
      <point x="300.0" y="800.0" type="line"/>
      <point x="300.0" y="723.6068" type="line"/>
      <point x="423.6068" y="600.0" type="line"/>
      <point x="500.0" y="600.0" type="line"/>
    </contour>
    <contour>
      <point x="423.60679626464844" y="0" type="line"/>
      <point x="500" y="0" type="line"/>
      <point x="500" y="400" type="line"/>
      <point x="300" y="400" type="line"/>
      <point x="300" y="123.60679626464844" type="line"/>
    </contour>
  </outline>
</glyph>
<glyph name="G_with_dotabove" format="2">
  <advance width="550.0"/>
  <unicode hex="0120"/>
  <outline>
    <contour>
      <point x="175.0" y="833.3333333333334" type="line"/>
      <point x="375.0" y="833.3333333333334" type="line"/>
      <point x="375.0" y="1033.3333333333335" type="line"/>
      <point x="175.0" y="1033.3333333333335" type="line"/>
    </contour>
    <contour>
      <point x="173.60679626464844" y="0" type="line"/>
      <point x="250" y="0" type="line"/>
      <point x="250" y="800" type="line"/>
      <point x="173.60679626464844" y="800" type="line"/>
      <point x="50" y="676.3932037353516" type="line"/>
      <point x="50" y="123.60679626464844" type="line"/>
    </contour>
    <contour>
      <point x="500.0" y="800.0" type="line"/>
      <point x="300.0" y="800.0" type="line"/>
      <point x="300.0" y="723.6068" type="line"/>
      <point x="423.6068" y="600.0" type="line"/>
      <point x="500.0" y="600.0" type="line"/>
    </contour>
    <contour>
      <point x="423.60679626464844" y="0" type="line"/>
      <point x="500" y="0" type="line"/>
      <point x="500" y="400" type="line"/>
      <point x="300" y="400" type="line"/>
      <point x="300" y="123.60679626464844" type="line"/>
    </contour>
  </outline>
</glyph>
<glyph name="g_with_dotabove" format="2">
  <advance width="550.0"/>
  <unicode hex="0121"/>
  <outline>
    <contour>
      <point x="175.0" y="633.3333333333334" type="line"/>
      <point x="375.0" y="633.3333333333334" type="line"/>
      <point x="375.0" y="833.3333333333334" type="line"/>
      <point x="175.0" y="833.3333333333334" type="line"/>
    </contour>
    <contour>
      <point x="173.60679626464844" y="5" type="line"/>
      <point x="250" y="5" type="line"/>
      <point x="250" y="600" type="line"/>
      <point x="173.60679626464844" y="600" type="line"/>
      <point x="50" y="476.39320373535156" type="line"/>
      <point x="50" y="128.60679626464844" type="line"/>
    </contour>
    <contour>
      <point x="376.39320373535156" y="-210" type="line"/>
      <point x="500" y="-86.39320373535156" type="line"/>
      <point x="500" y="600" type="line"/>
      <point x="300" y="600" type="line"/>
      <point x="300" y="-210" type="line"/>
    </contour>
    <contour>
      <point x="250.0" y="-10.0" type="line"/>
      <point x="50.0" y="-10.0" type="line"/>
      <point x="50.0" y="-86.3932" type="line"/>
      <point x="173.60680000000002" y="-210.0" type="line"/>
      <point x="250.0" y="-210.0" type="line"/>
    </contour>
  </outline>
</glyph>
<glyph name="I_with_smalltilde" format="2">
  <advance width="300.0"/>
  <unicode hex="0128"/>
  <outline>
    <contour>
      <point x="-50" y="909.7265319824219" type="line"/>
      <point x="-50" y="833.3333358764648" type="line"/>
      <point x="226.39320373535156" y="833.3333358764648" type="line"/>
      <point x="350" y="956.9401321411133" type="line"/>
      <point x="350" y="1033.3333358764648" type="line"/>
      <point x="73.60679626464844" y="1033.3333358764648" type="line"/>
    </contour>
    <contour>
      <point x="50" y="0" type="line"/>
      <point x="250" y="0" type="line"/>
      <point x="250" y="800" type="line"/>
      <point x="50" y="800" type="line"/>
    </contour>
  </outline>
</glyph>
<glyph name="i_with_smalltilde" format="2">
  <advance width="300.0"/>
  <unicode hex="0129"/>
  <outline>
    <contour>
      <point x="-50" y="709.7265319824219" type="line"/>
      <point x="-50" y="633.3333358764648" type="line"/>
      <point x="226.39320373535156" y="633.3333358764648" type="line"/>
      <point x="350" y="756.9401321411133" type="line"/>
      <point x="350" y="833.3333358764648" type="line"/>
      <point x="73.60679626464844" y="833.3333358764648" type="line"/>
    </contour>
    <contour>
      <point x="50" y="0" type="line"/>
      <point x="250" y="0" type="line"/>
      <point x="250" y="600" type="line"/>
      <point x="50" y="600" type="line"/>
    </contour>
  </outline>
</glyph>
<glyph name="I_with_macron" format="2">
  <advance width="300.0"/>
  <unicode hex="012A"/>
  <outline>
    <contour>
      <point x="-50" y="833.3333358764648" type="line"/>
      <point x="350" y="833.3333358764648" type="line"/>
      <point x="350" y="1033.3333358764648" type="line"/>
      <point x="-50" y="1033.3333358764648" type="line"/>
    </contour>
    <contour>
      <point x="50" y="0" type="line"/>
      <point x="250" y="0" type="line"/>
      <point x="250" y="800" type="line"/>
      <point x="50" y="800" type="line"/>
    </contour>
  </outline>
</glyph>
<glyph name="i_with_macron" format="2">
  <advance width="300.0"/>
  <unicode hex="012B"/>
  <outline>
    <contour>
      <point x="-50" y="633.3333358764648" type="line"/>
      <point x="350" y="633.3333358764648" type="line"/>
      <point x="350" y="833.3333358764648" type="line"/>
      <point x="-50" y="833.3333358764648" type="line"/>
    </contour>
    <contour>
      <point x="50" y="0" type="line"/>
      <point x="250" y="0" type="line"/>
      <point x="250" y="600" type="line"/>
      <point x="50" y="600" type="line"/>
    </contour>
  </outline>
</glyph>
<glyph name="I_with_breve" format="2">
  <advance width="300.0"/>
  <unicode hex="012C"/>
  <outline>
    <contour>
      <point x="-50" y="956.9401321411133" type="line"/>
      <point x="73.60679626464844" y="833.3333358764648" type="line"/>
      <point x="226.39320373535156" y="833.3333358764648" type="line"/>
      <point x="350" y="956.9401321411133" type="line"/>
      <point x="350" y="1033.3333358764648" type="line"/>
      <point x="-50" y="1033.3333358764648" type="line"/>
    </contour>
    <contour>
      <point x="50" y="0" type="line"/>
      <point x="250" y="0" type="line"/>
      <point x="250" y="800" type="line"/>
      <point x="50" y="800" type="line"/>
    </contour>
  </outline>
</glyph>
<glyph name="I_with_ogonek" format="2">
  <advance width="300.0"/>
  <unicode hex="012E"/>
  <outline>
    <contour>
      <point x="50" y="0" type="line"/>
      <point x="250" y="0" type="line"/>
      <point x="250" y="800" type="line"/>
      <point x="50" y="800" type="line"/>
    </contour>
    <contour>
      <point x="250.0" y="-225.0" type="line"/>
      <point x="250.0" y="-25.0" type="line"/>
      <point x="173.6068" y="-25.0" type="line"/>
      <point x="50.0" y="-148.60680000000002" type="line"/>
      <point x="50.0" y="-225.0" type="line"/>
    </contour>
  </outline>
</glyph>
<glyph name="i_with_ogonek" format="2">
  <advance width="300.0"/>
  <unicode hex="012F"/>
  <outline>
    <contour>
      <point x="50.0" y="633.33333" type="line"/>
      <point x="250.0" y="633.33333" type="line"/>
      <point x="250.0" y="833.33333" type="line"/>
      <point x="50.0" y="833.33333" type="line"/>
    </contour>
    <contour>
      <point x="50" y="0" type="line"/>
      <point x="250" y="0" type="line"/>
      <point x="250" y="600" type="line"/>
      <point x="50" y="600" type="line"/>
    </contour>
    <contour>
      <point x="250.0" y="-225.0" type="line"/>
      <point x="250.0" y="-25.0" type="line"/>
      <point x="173.6068" y="-25.0" type="line"/>
      <point x="50.0" y="-148.60680000000002" type="line"/>
      <point x="50.0" y="-225.0" type="line"/>
    </contour>
  </outline>
</glyph>
<glyph name="I_with_dotabove" format="2">
  <advance width="300.0"/>
  <unicode hex="0130"/>
  <outline>
    <contour>
      <point x="50.0" y="833.3333333333334" type="line"/>
      <point x="250.0" y="833.3333333333334" type="line"/>
      <point x="250.0" y="1033.3333333333335" type="line"/>
      <point x="50.0" y="1033.3333333333335" type="line"/>
    </contour>
    <contour>
      <point x="50" y="0" type="line"/>
      <point x="250" y="0" type="line"/>
      <point x="250" y="800" type="line"/>
      <point x="50" y="800" type="line"/>
    </contour>
  </outline>
</glyph>
<glyph name="i_dotless" format="2">
  <advance width="300.0"/>
  <unicode hex="0131"/>
  <outline>
    <contour>
      <point x="50" y="0" type="line"/>
      <point x="250" y="0" type="line"/>
      <point x="250" y="600" type="line"/>
      <point x="50" y="600" type="line"/>
    </contour>
  </outline>
</glyph>
<glyph name="IJ" format="2">
  <advance width="550.0"/>
  <unicode hex="0132"/>
  <outline>
    <contour>
      <point x="37.5" y="255" type="line"/>
      <point x="237.5" y="255" type="line"/>
      <point x="237.5" y="800" type="line"/>
      <point x="37.5" y="800" type="line"/>
    </contour>
    <contour>
      <point x="376.39320373535156" y="-5" type="line"/>
      <point x="500" y="118.60679626464844" type="line"/>
      <point x="500" y="800" type="line"/>
      <point x="300" y="800" type="line"/>
      <point x="300" y="-5" type="line"/>
    </contour>
    <contour>
      <point x="250.0" y="195.0" type="line"/>
      <point x="50.0" y="195.0" type="line"/>
      <point x="50.0" y="118.6068" type="line"/>
      <point x="173.60680000000002" y="-5.0" type="line"/>
      <point x="250.0" y="-5.0" type="line"/>
    </contour>
  </outline>
</glyph>
<glyph name="ij" format="2">
  <advance width="550.0"/>
  <unicode hex="0133"/>
  <outline>
    <contour>
      <point x="37.5" y="633.33333" type="line"/>
      <point x="237.5" y="633.33333" type="line"/>
      <point x="237.5" y="833.33333" type="line"/>
      <point x="37.5" y="833.33333" type="line"/>
    </contour>
    <contour>
      <point x="300.0" y="633.33333" type="line"/>
      <point x="500.0" y="633.33333" type="line"/>
      <point x="500.0" y="833.33333" type="line"/>
      <point x="300.0" y="833.33333" type="line"/>
    </contour>
    <contour>
      <point x="37.5" y="50" type="line"/>
      <point x="237.5" y="50" type="line"/>
      <point x="237.5" y="600" type="line"/>
      <point x="37.5" y="600" type="line"/>
    </contour>
    <contour>
      <point x="376.39320373535156" y="-210" type="line"/>
      <point x="500" y="-86.39320373535156" type="line"/>
      <point x="500" y="600" type="line"/>
      <point x="300" y="600" type="line"/>
      <point x="300" y="-210" type="line"/>
    </contour>
    <contour>
      <point x="256.25" y="-10.0" type="line"/>
      <point x="56.25" y="-10.0" type="line"/>
      <point x="56.25" y="-86.3932" type="line"/>
      <point x="179.8568" y="-210.0" type="line"/>
      <point x="256.25" y="-210.0" type="line"/>
    </contour>
  </outline>
</glyph>
<glyph name="J_with_circumflex" format="2">
  <advance width="550.0"/>
  <unicode hex="0134"/>
  <outline>
    <contour>
      <point x="191.25" y="1033.3333333333335" type="line"/>
      <point x="191.25" y="833.3333333333334" type="line"/>
      <point x="267.6432" y="833.3333333333334" type="line"/>
      <point x="391.25" y="956.9401333333334" type="line"/>
      <point x="391.25" y="1033.3333333333335" type="line"/>
    </contour>
    <contour>
      <point x="603.75" y="1033.3333333333335" type="line"/>
      <point x="403.75" y="1033.3333333333335" type="line"/>
      <point x="403.75" y="956.9401333333334" type="line"/>
      <point x="527.3568" y="833.3333333333334" type="line"/>
      <point x="603.75" y="833.3333333333334" type="line"/>
    </contour>
    <contour>
      <point x="376.39320373535156" y="-5" type="line"/>
      <point x="500" y="118.60679626464844" type="line"/>
      <point x="500" y="800" type="line"/>
      <point x="300" y="800" type="line"/>
      <point x="300" y="-5" type="line"/>
    </contour>
    <contour>
      <point x="250.0" y="195.0" type="line"/>
      <point x="50.0" y="195.0" type="line"/>
      <point x="50.0" y="118.6068" type="line"/>
      <point x="173.60680000000002" y="-5.0" type="line"/>
      <point x="250.0" y="-5.0" type="line"/>
    </contour>
  </outline>
</glyph>
<glyph name="j_with_circumflex" format="2">
  <advance width="550.0"/>
  <unicode hex="0135"/>
  <outline>
    <contour>
      <point x="194.375" y="833.3333333333334" type="line"/>
      <point x="194.375" y="633.3333333333334" type="line"/>
      <point x="270.7682" y="633.3333333333334" type="line"/>
      <point x="394.375" y="756.9401333333334" type="line"/>
      <point x="394.375" y="833.3333333333334" type="line"/>
    </contour>
    <contour>
      <point x="606.875" y="833.3333333333334" type="line"/>
      <point x="406.875" y="833.3333333333334" type="line"/>
      <point x="406.875" y="756.9401333333334" type="line"/>
      <point x="530.4818" y="633.3333333333334" type="line"/>
      <point x="606.875" y="633.3333333333334" type="line"/>
    </contour>
    <contour>
      <point x="376.39320373535156" y="-210" type="line"/>
      <point x="500" y="-86.39320373535156" type="line"/>
      <point x="500" y="600" type="line"/>
      <point x="300" y="600" type="line"/>
      <point x="300" y="-210" type="line"/>
    </contour>
    <contour>
      <point x="256.25" y="-10.0" type="line"/>
      <point x="56.25" y="-10.0" type="line"/>
      <point x="56.25" y="-86.3932" type="line"/>
      <point x="179.8568" y="-210.0" type="line"/>
      <point x="256.25" y="-210.0" type="line"/>
    </contour>
  </outline>
</glyph>
<glyph name="K_with_cedilla" format="2">
  <advance width="550.0"/>
  <unicode hex="0136"/>
  <outline>
    <contour>
      <point x="50" y="0" type="line"/>
      <point x="250" y="0" type="line"/>
      <point x="250" y="800" type="line"/>
      <point x="50" y="800" type="line"/>
    </contour>
    <contour>
      <point x="300" y="0" type="line"/>
      <point x="500" y="0" type="line"/>
      <point x="500" y="276.39320373535156" type="line"/>
      <point x="376.39320373535156" y="400" type="line"/>
      <point x="500" y="523.6067962646484" type="line"/>
      <point x="500" y="800" type="line"/>
      <point x="300" y="800" type="line"/>
    </contour>
    <contour>
      <point x="262.5" y="-225.0" type="line"/>
      <point x="462.5" y="-225.0" type="line"/>
      <point x="462.5" y="-148.60680000000002" type="line"/>
      <point x="338.8932" y="-25.0" type="line"/>
      <point x="262.5" y="-25.0" type="line"/>
    </contour>
  </outline>
</glyph>
<glyph name="k_with_cedilla" format="2">
  <advance width="550.0"/>
  <unicode hex="0137"/>
  <outline>
    <contour>
      <point x="50" y="0" type="line"/>
      <point x="250" y="0" type="line"/>
      <point x="250" y="800" type="line"/>
      <point x="50" y="800" type="line"/>
    </contour>
    <contour>
      <point x="300" y="0" type="line"/>
      <point x="500" y="0" type="line"/>
      <point x="500" y="176.39320373535156" type="line"/>
      <point x="376.39320373535156" y="300" type="line"/>
      <point x="500" y="423.60679626464844" type="line"/>
      <point x="500" y="600" type="line"/>
      <point x="300" y="600" type="line"/>
    </contour>
    <contour>
      <point x="262.5" y="-225.0" type="line"/>
      <point x="462.5" y="-225.0" type="line"/>
      <point x="462.5" y="-148.60680000000002" type="line"/>
      <point x="338.8932" y="-25.0" type="line"/>
      <point x="262.5" y="-25.0" type="line"/>
    </contour>
  </outline>
</glyph>
<glyph name="L_with_cedilla" format="2">
  <advance width="550.0"/>
  <unicode hex="013B"/>
  <outline>
    <contour>
      <point x="50" y="0" type="line"/>
      <point x="250" y="0" type="line"/>
      <point x="250" y="800" type="line"/>
      <point x="50" y="800" type="line"/>
    </contour>
    <contour>
      <point x="500.0" y="0.0" type="line"/>
      <point x="500.0" y="200.0" type="line"/>
      <point x="423.6068" y="200.0" type="line"/>
      <point x="300.0" y="76.3932" type="line"/>
      <point x="300.0" y="0.0" type="line"/>
    </contour>
    <contour>
      <point x="262.5" y="-225.0" type="line"/>
      <point x="462.5" y="-225.0" type="line"/>
      <point x="462.5" y="-148.60680000000002" type="line"/>
      <point x="338.8932" y="-25.0" type="line"/>
      <point x="262.5" y="-25.0" type="line"/>
    </contour>
  </outline>
</glyph>
<glyph name="l_with_cedilla" format="2">
  <advance width="300.0"/>
  <unicode hex="013C"/>
  <outline>
    <contour>
      <point x="173.60679626464844" y="-5" type="line"/>
      <point x="250" y="-5" type="line"/>
      <point x="250" y="800" type="line"/>
      <point x="50" y="800" type="line"/>
      <point x="50" y="118.60679626464844" type="line"/>
    </contour>
    <contour>
      <point x="137.5" y="-230.0" type="line"/>
      <point x="337.5" y="-230.0" type="line"/>
      <point x="337.5" y="-153.60680000000002" type="line"/>
      <point x="213.8932" y="-30.0" type="line"/>
      <point x="137.5" y="-30.0" type="line"/>
    </contour>
  </outline>
</glyph>
<glyph name="L_with_stroke" format="2">
  <advance width="575.0"/>
  <unicode hex="0141"/>
  <outline>
    <contour>
      <point x="75" y="0" type="line"/>
      <point x="275" y="0" type="line"/>
      <point x="275" y="400" type="line"/>
      <point x="276.39320373535156" y="400" type="line"/>
      <point x="400" y="523.6067962646484" type="line"/>
      <point x="400" y="600" type="line"/>
      <point x="275" y="600" type="line"/>
      <point x="275" y="800" type="line"/>
      <point x="75" y="800" type="line"/>
      <point x="75" y="500" type="line"/>
      <point x="73.60679626464844" y="500" type="line"/>
      <point x="-50" y="376.39320373535156" type="line"/>
      <point x="-50" y="300" type="line"/>
      <point x="75" y="300" type="line"/>
    </contour>
    <contour>
      <point x="525.0" y="0.0" type="line"/>
      <point x="525.0" y="200.0" type="line"/>
      <point x="448.6068" y="200.0" type="line"/>
      <point x="325.0" y="76.3932" type="line"/>
      <point x="325.0" y="0.0" type="line"/>
    </contour>
  </outline>
</glyph>
<glyph name="l_with_stroke" format="2">
  <advance width="350.0"/>
  <unicode hex="0142"/>
  <outline>
    <contour>
      <point x="73.60679626464844" y="500" type="line"/>
      <point x="-50" y="376.39320373535156" type="line"/>
      <point x="-50" y="300" type="line"/>
      <point x="75" y="300" type="line"/>
      <point x="75" y="118.60679626464844" type="line"/>
      <point x="198.60679626464844" y="-5" type="line"/>
      <point x="275" y="-5" type="line"/>
      <point x="275" y="400" type="line"/>
      <point x="276.39320373535156" y="400" type="line"/>
      <point x="400" y="523.6067962646484" type="line"/>
      <point x="400" y="600" type="line"/>
      <point x="275" y="600" type="line"/>
      <point x="275" y="800" type="line"/>
      <point x="75" y="800" type="line"/>
      <point x="75" y="500" type="line"/>
    </contour>
  </outline>
</glyph>
<glyph name="N_with_acute" format="2">
  <advance width="550.0"/>
  <unicode hex="0143"/>
  <outline>
    <contour>
      <point x="262.5" y="1033.3333333333335" type="line"/>
      <point x="262.5" y="833.3333333333334" type="line"/>
      <point x="338.8932" y="833.3333333333334" type="line"/>
      <point x="462.5" y="956.9401333333334" type="line"/>
      <point x="462.5" y="1033.3333333333335" type="line"/>
    </contour>
    <contour>
      <point x="50" y="0" type="line"/>
      <point x="250" y="0" type="line"/>
      <point x="250" y="800" type="line"/>
      <point x="50" y="800" type="line"/>
    </contour>
    <contour>
      <point x="300" y="0" type="line"/>
      <point x="500" y="0" type="line"/>
      <point x="500" y="676.3932037353516" type="line"/>
      <point x="376.39320373535156" y="800" type="line"/>
      <point x="300" y="800" type="line"/>
    </contour>
  </outline>
</glyph>
<glyph name="n_with_acute" format="2">
  <advance width="550.0"/>
  <unicode hex="0144"/>
  <outline>
    <contour>
      <point x="262.5" y="833.3333333333334" type="line"/>
      <point x="262.5" y="633.3333333333334" type="line"/>
      <point x="338.8932" y="633.3333333333334" type="line"/>
      <point x="462.5" y="756.9401333333334" type="line"/>
      <point x="462.5" y="833.3333333333334" type="line"/>
    </contour>
    <contour>
      <point x="50" y="0" type="line"/>
      <point x="250" y="0" type="line"/>
      <point x="250" y="600" type="line"/>
      <point x="50" y="600" type="line"/>
    </contour>
    <contour>
      <point x="300" y="0" type="line"/>
      <point x="500" y="0" type="line"/>
      <point x="500" y="476.39320373535156" type="line"/>
      <point x="376.39320373535156" y="600" type="line"/>
      <point x="300" y="600" type="line"/>
    </contour>
  </outline>
</glyph>
<glyph name="n_with_cedilla" format="2">
  <advance width="550.0"/>
  <unicode hex="0146"/>
  <outline>
    <contour>
      <point x="50" y="0" type="line"/>
      <point x="250" y="0" type="line"/>
      <point x="250" y="600" type="line"/>
      <point x="50" y="600" type="line"/>
    </contour>
    <contour>
      <point x="300" y="0" type="line"/>
      <point x="500" y="0" type="line"/>
      <point x="500" y="476.39320373535156" type="line"/>
      <point x="376.39320373535156" y="600" type="line"/>
      <point x="300" y="600" type="line"/>
    </contour>
    <contour>
      <point x="262.5" y="-225.0" type="line"/>
      <point x="462.5" y="-225.0" type="line"/>
      <point x="462.5" y="-148.60680000000002" type="line"/>
      <point x="338.8932" y="-25.0" type="line"/>
      <point x="262.5" y="-25.0" type="line"/>
    </contour>
  </outline>
</glyph>
<glyph name="eng" format="2">
  <advance width="550.0"/>
  <unicode hex="014B"/>
  <outline>
    <contour>
      <point x="50" y="0" type="line"/>
      <point x="250" y="0" type="line"/>
      <point x="250" y="600" type="line"/>
      <point x="50" y="600" type="line"/>
    </contour>
    <contour>
      <point x="376.39320373535156" y="-200" type="line"/>
      <point x="500" y="-76.39320373535156" type="line"/>
      <point x="500" y="476.39320373535156" type="line"/>
      <point x="376.39320373535156" y="600" type="line"/>
      <point x="300" y="600" type="line"/>
      <point x="300" y="-200" type="line"/>
    </contour>
  </outline>
</glyph>
<glyph name="o_with_macron" format="2">
  <advance width="550.0"/>
  <unicode hex="014D"/>
  <outline>
    <contour>
      <point x="75" y="633.3333358764648" type="line"/>
      <point x="475" y="633.3333358764648" type="line"/>
      <point x="475" y="833.3333358764648" type="line"/>
      <point x="75" y="833.3333358764648" type="line"/>
    </contour>
    <contour>
      <point x="173.60679626464844" y="-5" type="line"/>
      <point x="250" y="-5" type="line"/>
      <point x="250" y="605" type="line"/>
      <point x="173.60679626464844" y="605" type="line"/>
      <point x="50" y="481.39320373535156" type="line"/>
      <point x="50" y="118.60679626464844" type="line"/>
    </contour>
    <contour>
      <point x="376.39320373535156" y="-5" type="line"/>
      <point x="500" y="118.60679626464844" type="line"/>
      <point x="500" y="481.39320373535156" type="line"/>
      <point x="376.39320373535156" y="605" type="line"/>
      <point x="300" y="605" type="line"/>
      <point x="300" y="-5" type="line"/>
    </contour>
  </outline>
</glyph>
<glyph name="O_with_breve" format="2">
  <advance width="550.0"/>
  <unicode hex="014E"/>
  <outline>
    <contour>
      <point x="75" y="956.9401321411133" type="line"/>
      <point x="198.60679626464844" y="833.3333358764648" type="line"/>
      <point x="351.39320373535156" y="833.3333358764648" type="line"/>
      <point x="475" y="956.9401321411133" type="line"/>
      <point x="475" y="1033.3333358764648" type="line"/>
      <point x="75" y="1033.3333358764648" type="line"/>
    </contour>
    <contour>
      <point x="173.60679626464844" y="-5" type="line"/>
      <point x="250" y="-5" type="line"/>
      <point x="250" y="805" type="line"/>
      <point x="173.60679626464844" y="805" type="line"/>
      <point x="50" y="681.3932037353516" type="line"/>
      <point x="50" y="118.60679626464844" type="line"/>
    </contour>
    <contour>
      <point x="376.39320373535156" y="-5" type="line"/>
      <point x="500" y="118.60679626464844" type="line"/>
      <point x="500" y="681.3932037353516" type="line"/>
      <point x="376.39320373535156" y="805" type="line"/>
      <point x="300" y="805" type="line"/>
      <point x="300" y="-5" type="line"/>
    </contour>
  </outline>
</glyph>
<glyph name="o_with_breve" format="2">
  <advance width="550.0"/>
  <unicode hex="014F"/>
  <outline>
    <contour>
      <point x="75" y="756.9401321411133" type="line"/>
      <point x="198.60679626464844" y="633.3333358764648" type="line"/>
      <point x="351.39320373535156" y="633.3333358764648" type="line"/>
      <point x="475" y="756.9401321411133" type="line"/>
      <point x="475" y="833.3333358764648" type="line"/>
      <point x="75" y="833.3333358764648" type="line"/>
    </contour>
    <contour>
      <point x="173.60679626464844" y="-5" type="line"/>
      <point x="250" y="-5" type="line"/>
      <point x="250" y="605" type="line"/>
      <point x="173.60679626464844" y="605" type="line"/>
      <point x="50" y="481.39320373535156" type="line"/>
      <point x="50" y="118.60679626464844" type="line"/>
    </contour>
    <contour>
      <point x="376.39320373535156" y="-5" type="line"/>
      <point x="500" y="118.60679626464844" type="line"/>
      <point x="500" y="481.39320373535156" type="line"/>
      <point x="376.39320373535156" y="605" type="line"/>
      <point x="300" y="605" type="line"/>
      <point x="300" y="-5" type="line"/>
    </contour>
  </outline>
</glyph>
<glyph name="O_with_acutedbl" format="2">
  <advance width="550.0"/>
  <unicode hex="0150"/>
  <outline>
    <contour>
      <point x="50.0" y="1033.3333333333335" type="line"/>
      <point x="50.0" y="833.3333333333334" type="line"/>
      <point x="126.3932" y="833.3333333333334" type="line"/>
      <point x="250.0" y="956.9401333333334" type="line"/>
      <point x="250.0" y="1033.3333333333335" type="line"/>
    </contour>
    <contour>
      <point x="300.0" y="1033.3333333333335" type="line"/>
      <point x="300.0" y="833.3333333333334" type="line"/>
      <point x="376.3932" y="833.3333333333334" type="line"/>
      <point x="500.0" y="956.9401333333334" type="line"/>
      <point x="500.0" y="1033.3333333333335" type="line"/>
    </contour>
    <contour>
      <point x="173.60679626464844" y="-5" type="line"/>
      <point x="250" y="-5" type="line"/>
      <point x="250" y="805" type="line"/>
      <point x="173.60679626464844" y="805" type="line"/>
      <point x="50" y="681.3932037353516" type="line"/>
      <point x="50" y="118.60679626464844" type="line"/>
    </contour>
    <contour>
      <point x="376.39320373535156" y="-5" type="line"/>
      <point x="500" y="118.60679626464844" type="line"/>
      <point x="500" y="681.3932037353516" type="line"/>
      <point x="376.39320373535156" y="805" type="line"/>
      <point x="300" y="805" type="line"/>
      <point x="300" y="-5" type="line"/>
    </contour>
  </outline>
</glyph>
<glyph name="o_with_acutedbl" format="2">
  <advance width="550.0"/>
  <unicode hex="0151"/>
  <outline>
    <contour>
      <point x="50.0" y="833.3333333333334" type="line"/>
      <point x="50.0" y="633.3333333333334" type="line"/>
      <point x="126.3932" y="633.3333333333334" type="line"/>
      <point x="250.0" y="756.9401333333334" type="line"/>
      <point x="250.0" y="833.3333333333334" type="line"/>
    </contour>
    <contour>
      <point x="300.0" y="833.3333333333334" type="line"/>
      <point x="300.0" y="633.3333333333334" type="line"/>
      <point x="376.3932" y="633.3333333333334" type="line"/>
      <point x="500.0" y="756.9401333333334" type="line"/>
      <point x="500.0" y="833.3333333333334" type="line"/>
    </contour>
    <contour>
      <point x="173.60679626464844" y="-5" type="line"/>
      <point x="250" y="-5" type="line"/>
      <point x="250" y="605" type="line"/>
      <point x="173.60679626464844" y="605" type="line"/>
      <point x="50" y="481.39320373535156" type="line"/>
      <point x="50" y="118.60679626464844" type="line"/>
    </contour>
    <contour>
      <point x="376.39320373535156" y="-5" type="line"/>
      <point x="500" y="118.60679626464844" type="line"/>
      <point x="500" y="481.39320373535156" type="line"/>
      <point x="376.39320373535156" y="605" type="line"/>
      <point x="300" y="605" type="line"/>
      <point x="300" y="-5" type="line"/>
    </contour>
  </outline>
</glyph>
<glyph name="OE" format="2">
  <advance width="1050.0"/>
  <unicode hex="0152"/>
  <outline>
    <contour>
      <point x="173.60679626464844" y="-5" type="line"/>
      <point x="250" y="-5" type="line"/>
      <point x="250" y="805" type="line"/>
      <point x="173.60679626464844" y="805" type="line"/>
      <point x="50" y="681.3932037353516" type="line"/>
      <point x="50" y="118.60679626464844" type="line"/>
    </contour>
    <contour>
      <point x="376.39320373535156" y="-5" type="line"/>
      <point x="500" y="118.60679626464844" type="line"/>
      <point x="500" y="681.3932037353516" type="line"/>
      <point x="376.39320373535156" y="805" type="line"/>
      <point x="300" y="805" type="line"/>
      <point x="300" y="-5" type="line"/>
    </contour>
    <contour>
      <point x="550" y="0" type="line"/>
      <point x="750" y="0" type="line"/>
      <point x="750" y="800" type="line"/>
      <point x="550" y="800" type="line"/>
    </contour>
    <contour>
      <point x="1000.0" y="800.0" type="line"/>
      <point x="800.0" y="800.0" type="line"/>
      <point x="800.0" y="723.6068" type="line"/>
      <point x="923.6068" y="600.0" type="line"/>
      <point x="1000.0" y="600.0" type="line"/>
    </contour>
    <contour>
      <point x="1000.0" y="500.0" type="line"/>
      <point x="800.0" y="500.0" type="line"/>
      <point x="800.0" y="423.6068" type="line"/>
      <point x="923.6068" y="300.0" type="line"/>
      <point x="1000.0" y="300.0" type="line"/>
    </contour>
    <contour>
      <point x="1000.0" y="0.0" type="line"/>
      <point x="1000.0" y="200.0" type="line"/>
      <point x="923.6068" y="200.0" type="line"/>
      <point x="800.0" y="76.3932" type="line"/>
      <point x="800.0" y="0.0" type="line"/>
    </contour>
  </outline>
</glyph>
<glyph name="oe" format="2">
  <advance width="1050.0"/>
  <unicode hex="0153"/>
  <outline>
    <contour>
      <point x="173.60679626464844" y="-5" type="line"/>
      <point x="250" y="-5" type="line"/>
      <point x="250" y="605" type="line"/>
      <point x="173.60679626464844" y="605" type="line"/>
      <point x="50" y="481.39320373535156" type="line"/>
      <point x="50" y="118.60679626464844" type="line"/>
    </contour>
    <contour>
      <point x="376.39320373535156" y="-5" type="line"/>
      <point x="500" y="118.60679626464844" type="line"/>
      <point x="500" y="481.39320373535156" type="line"/>
      <point x="376.39320373535156" y="605" type="line"/>
      <point x="300" y="605" type="line"/>
      <point x="300" y="-5" type="line"/>
    </contour>
    <contour>
      <point x="673.6067962646484" y="-5" type="line"/>
      <point x="750" y="-5" type="line"/>
      <point x="750" y="605" type="line"/>
      <point x="673.6067962646484" y="605" type="line"/>
      <point x="550" y="481.39320373535156" type="line"/>
      <point x="550" y="118.60679626464844" type="line"/>
    </contour>
    <contour>
      <point x="800" y="195" type="line"/>
      <point x="1000" y="195" type="line"/>
      <point x="1000" y="481.39320373535156" type="line"/>
      <point x="876.3932037353516" y="605" type="line"/>
      <point x="800" y="605" type="line"/>
    </contour>
  </outline>
</glyph>
<glyph name="R_with_cedilla" format="2">
  <advance width="550.0"/>
  <unicode hex="0156"/>
  <outline>
    <contour>
      <point x="50" y="0" type="line"/>
      <point x="250" y="0" type="line"/>
      <point x="250" y="800" type="line"/>
      <point x="50" y="800" type="line"/>
    </contour>
    <contour>
      <point x="300" y="0" type="line"/>
      <point x="500" y="0" type="line"/>
      <point x="500" y="76.39320373535156" type="line"/>
      <point x="376.39320373535156" y="200" type="line"/>
      <point x="500" y="323.60679626464844" type="line"/>
      <point x="500" y="676.3932037353516" type="line"/>
      <point x="376.39320373535156" y="800" type="line"/>
      <point x="300" y="800" type="line"/>
    </contour>
    <contour>
      <point x="262.5" y="-225.0" type="line"/>
      <point x="462.5" y="-225.0" type="line"/>
      <point x="462.5" y="-148.60680000000002" type="line"/>
      <point x="338.8932" y="-25.0" type="line"/>
      <point x="262.5" y="-25.0" type="line"/>
    </contour>
  </outline>
</glyph>
<glyph name="r_with_cedilla" format="2">
  <advance width="550.0"/>
  <unicode hex="0157"/>
  <outline>
    <contour>
      <point x="50" y="0" type="line"/>
      <point x="250" y="0" type="line"/>
      <point x="250" y="600" type="line"/>
      <point x="50" y="600" type="line"/>
    </contour>
    <contour>
      <point x="500.0" y="600.0" type="line"/>
      <point x="300.0" y="600.0" type="line"/>
      <point x="300.0" y="523.6068" type="line"/>
      <point x="423.6068" y="400.0" type="line"/>
      <point x="500.0" y="400.0" type="line"/>
    </contour>
    <contour>
      <point x="262.5" y="-225.0" type="line"/>
      <point x="462.5" y="-225.0" type="line"/>
      <point x="462.5" y="-148.60680000000002" type="line"/>
      <point x="338.8932" y="-25.0" type="line"/>
      <point x="262.5" y="-25.0" type="line"/>
    </contour>
  </outline>
</glyph>
<glyph name="r_with_caron" format="2">
  <advance width="550.0"/>
  <unicode hex="0159"/>
  <outline>
    <contour>
      <point x="68.75" y="633.3333333333334" type="line"/>
      <point x="268.75" y="633.3333333333334" type="line"/>
      <point x="268.75" y="709.7265333333334" type="line"/>
      <point x="145.14319999999998" y="833.3333333333334" type="line"/>
      <point x="68.75" y="833.3333333333334" type="line"/>
    </contour>
    <contour>
      <point x="481.25" y="633.3333333333334" type="line"/>
      <point x="481.25" y="833.3333333333334" type="line"/>
      <point x="404.8568" y="833.3333333333334" type="line"/>
      <point x="281.25" y="709.7265333333334" type="line"/>
      <point x="281.25" y="633.3333333333334" type="line"/>
    </contour>
    <contour>
      <point x="50" y="0" type="line"/>
      <point x="250" y="0" type="line"/>
      <point x="250" y="600" type="line"/>
      <point x="50" y="600" type="line"/>
    </contour>
    <contour>
      <point x="500.0" y="600.0" type="line"/>
      <point x="300.0" y="600.0" type="line"/>
      <point x="300.0" y="523.6068" type="line"/>
      <point x="423.6068" y="400.0" type="line"/>
      <point x="500.0" y="400.0" type="line"/>
    </contour>
  </outline>
</glyph>
<glyph name="S_with_acute" format="2">
  <advance width="550.0"/>
  <unicode hex="015A"/>
  <outline>
    <contour>
      <point x="262.5" y="1033.3333333333335" type="line"/>
      <point x="262.5" y="833.3333333333334" type="line"/>
      <point x="338.8932" y="833.3333333333334" type="line"/>
      <point x="462.5" y="956.9401333333334" type="line"/>
      <point x="462.5" y="1033.3333333333335" type="line"/>
    </contour>
    <contour>
      <point x="173.60679626464844" y="300" type="line"/>
      <point x="250" y="300" type="line"/>
      <point x="250" y="800" type="line"/>
      <point x="173.60679626464844" y="800" type="line"/>
      <point x="50" y="676.3932037353516" type="line"/>
      <point x="50" y="423.60679626464844" type="line"/>
    </contour>
    <contour>
      <point x="493.75" y="800.0" type="line"/>
      <point x="293.75" y="800.0" type="line"/>
      <point x="293.75" y="723.6068" type="line"/>
      <point x="417.3568" y="600.0" type="line"/>
      <point x="493.75" y="600.0" type="line"/>
    </contour>
    <contour>
      <point x="376.39320373535156" y="0" type="line"/>
      <point x="500" y="123.60679626464844" type="line"/>
      <point x="500" y="376.39320373535156" type="line"/>
      <point x="376.39320373535156" y="500" type="line"/>
      <point x="300" y="500" type="line"/>
      <point x="300" y="0" type="line"/>
    </contour>
    <contour>
      <point x="53.125" y="0" type="line"/>
      <point x="253.125" y="0" type="line"/>
      <point x="253.125" y="76.3932" type="line"/>
      <point x="129.51819999999998" y="200.0" type="line"/>
      <point x="53.125" y="200.0" type="line"/>
    </contour>
  </outline>
</glyph>
<glyph name="s_with_circumflex" format="2">
  <advance width="550.0"/>
  <unicode hex="015D"/>
  <outline>
    <contour>
      <point x="68.75" y="833.3333333333334" type="line"/>
      <point x="68.75" y="633.3333333333334" type="line"/>
      <point x="145.14319999999998" y="633.3333333333334" type="line"/>
      <point x="268.75" y="756.9401333333334" type="line"/>
      <point x="268.75" y="833.3333333333334" type="line"/>
    </contour>
    <contour>
      <point x="481.25" y="833.3333333333334" type="line"/>
      <point x="281.25" y="833.3333333333334" type="line"/>
      <point x="281.25" y="756.9401333333334" type="line"/>
      <point x="404.8568" y="633.3333333333334" type="line"/>
      <point x="481.25" y="633.3333333333334" type="line"/>
    </contour>
    <contour>
      <point x="173.60679626464844" y="200" type="line"/>
      <point x="250" y="200" type="line"/>
      <point x="250" y="600" type="line"/>
      <point x="173.60679626464844" y="600" type="line"/>
      <point x="50" y="476.39320373535156" type="line"/>
      <point x="50" y="323.60679626464844" type="line"/>
    </contour>
    <contour>
      <point x="493.75" y="600.0" type="line"/>
      <point x="293.75" y="600.0" type="line"/>
      <point x="293.75" y="523.6068" type="line"/>
      <point x="417.3568" y="400.0" type="line"/>
      <point x="493.75" y="400.0" type="line"/>
    </contour>
    <contour>
      <point x="376.39320373535156" y="-5" type="line"/>
      <point x="500" y="118.60679626464844" type="line"/>
      <point x="500" y="271.39320373535156" type="line"/>
      <point x="376.39320373535156" y="395" type="line"/>
      <point x="300" y="395" type="line"/>
      <point x="300" y="-5" type="line"/>
    </contour>
    <contour>
      <point x="53.125" y="0" type="line"/>
      <point x="253.125" y="0" type="line"/>
      <point x="253.125" y="76.3932" type="line"/>
      <point x="129.51819999999998" y="200.0" type="line"/>
      <point x="53.125" y="200.0" type="line"/>
    </contour>
  </outline>
</glyph>
<glyph name="T_with_cedilla" format="2">
  <advance width="800.0"/>
  <unicode hex="0162"/>
  <outline>
    <contour>
      <point x="50.0" y="800.0" type="line"/>
      <point x="50.0" y="600.0" type="line"/>
      <point x="126.3932" y="600.0" type="line"/>
      <point x="250.0" y="723.6068" type="line"/>
      <point x="250.0" y="800.0" type="line"/>
    </contour>
    <contour>
      <point x="300" y="0" type="line"/>
      <point x="500" y="0" type="line"/>
      <point x="500" y="800" type="line"/>
      <point x="300" y="800" type="line"/>
    </contour>
    <contour>
      <point x="750.0" y="800.0" type="line"/>
      <point x="550.0" y="800.0" type="line"/>
      <point x="550.0" y="723.6068" type="line"/>
      <point x="673.6068" y="600.0" type="line"/>
      <point x="750.0" y="600.0" type="line"/>
    </contour>
    <contour>
      <point x="387.5" y="-225.0" type="line"/>
      <point x="587.5" y="-225.0" type="line"/>
      <point x="587.5" y="-148.60680000000002" type="line"/>
      <point x="463.8932" y="-25.0" type="line"/>
      <point x="387.5" y="-25.0" type="line"/>
    </contour>
  </outline>
</glyph>
<glyph name="t_with_cedilla" format="2">
  <advance width="550.0"/>
  <unicode hex="0163"/>
  <outline>
    <contour>
      <point x="50" y="0" type="line"/>
      <point x="250" y="0" type="line"/>
      <point x="250" y="800" type="line"/>
      <point x="173.60679626464844" y="800" type="line"/>
      <point x="50" y="676.3932037353516" type="line"/>
    </contour>
    <contour>
      <point x="300.0" y="600.0" type="line"/>
      <point x="300.0" y="400.0" type="line"/>
      <point x="376.3932" y="400.0" type="line"/>
      <point x="500.0" y="523.6068" type="line"/>
      <point x="500.0" y="600.0" type="line"/>
    </contour>
    <contour>
      <point x="150.0" y="-225.0" type="line"/>
      <point x="350.0" y="-225.0" type="line"/>
      <point x="350.0" y="-148.60680000000002" type="line"/>
      <point x="226.3932" y="-25.0" type="line"/>
      <point x="150.0" y="-25.0" type="line"/>
    </contour>
  </outline>
</glyph>
<glyph name="u_with_smalltilde" format="2">
  <advance width="550.0"/>
  <unicode hex="0169"/>
  <outline>
    <contour>
      <point x="75" y="709.7265319824219" type="line"/>
      <point x="75" y="633.3333358764648" type="line"/>
      <point x="351.39320373535156" y="633.3333358764648" type="line"/>
      <point x="475" y="756.9401321411133" type="line"/>
      <point x="475" y="833.3333358764648" type="line"/>
      <point x="198.60679626464844" y="833.3333358764648" type="line"/>
    </contour>
    <contour>
      <point x="173.60679626464844" y="-5" type="line"/>
      <point x="250" y="-5" type="line"/>
      <point x="250" y="600" type="line"/>
      <point x="50" y="600" type="line"/>
      <point x="50" y="118.60679626464844" type="line"/>
    </contour>
    <contour>
      <point x="376.39320373535156" y="-5" type="line"/>
      <point x="500" y="118.60679626464844" type="line"/>
      <point x="500" y="600" type="line"/>
      <point x="300" y="600" type="line"/>
      <point x="300" y="-5" type="line"/>
    </contour>
  </outline>
</glyph>
<glyph name="U_with_breve" format="2">
  <advance width="550.0"/>
  <unicode hex="016C"/>
  <outline>
    <contour>
      <point x="75" y="956.9401321411133" type="line"/>
      <point x="198.60679626464844" y="833.3333358764648" type="line"/>
      <point x="351.39320373535156" y="833.3333358764648" type="line"/>
      <point x="475" y="956.9401321411133" type="line"/>
      <point x="475" y="1033.3333358764648" type="line"/>
      <point x="75" y="1033.3333358764648" type="line"/>
    </contour>
    <contour>
      <point x="173.60679626464844" y="-5" type="line"/>
      <point x="250" y="-5" type="line"/>
      <point x="250" y="800" type="line"/>
      <point x="50" y="800" type="line"/>
      <point x="50" y="118.60679626464844" type="line"/>
    </contour>
    <contour>
      <point x="376.39320373535156" y="-5" type="line"/>
      <point x="500" y="118.60679626464844" type="line"/>
      <point x="500" y="800" type="line"/>
      <point x="300" y="800" type="line"/>
      <point x="300" y="-5" type="line"/>
    </contour>
  </outline>
</glyph>
<glyph name="U_with_ring" format="2">
  <advance width="550.0"/>
  <unicode hex="016E"/>
  <outline>
    <contour>
      <point x="250.0" y="1038.3333333333335" type="line"/>
      <point x="209.89357" y="1038.3333333333335" type="line"/>
      <point x="145.0" y="973.4397633333333" type="line"/>
      <point x="145.0" y="893.2269033333333" type="line"/>
      <point x="209.89357" y="828.3333333333334" type="line"/>
      <point x="250.0" y="828.3333333333334" type="line"/>
    </contour>
    <contour>
      <point x="300.0" y="828.3333333333334" type="line"/>
      <point x="340.10643" y="828.3333333333334" type="line"/>
      <point x="405.0" y="893.2269033333333" type="line"/>
      <point x="405.0" y="973.4397633333333" type="line"/>
      <point x="340.10643" y="1038.3333333333335" type="line"/>
      <point x="300.0" y="1038.3333333333335" type="line"/>
    </contour>
    <contour>
      <point x="173.60679626464844" y="-5" type="line"/>
      <point x="250" y="-5" type="line"/>
      <point x="250" y="800" type="line"/>
      <point x="50" y="800" type="line"/>
      <point x="50" y="118.60679626464844" type="line"/>
    </contour>
    <contour>
      <point x="376.39320373535156" y="-5" type="line"/>
      <point x="500" y="118.60679626464844" type="line"/>
      <point x="500" y="800" type="line"/>
      <point x="300" y="800" type="line"/>
      <point x="300" y="-5" type="line"/>
    </contour>
  </outline>
</glyph>
<glyph name="u_with_ring" format="2">
  <advance width="550.0"/>
  <unicode hex="016F"/>
  <outline>
    <contour>
      <point x="250.0" y="838.3333333333334" type="line"/>
      <point x="209.89357" y="838.3333333333334" type="line"/>
      <point x="145.0" y="773.4397633333333" type="line"/>
      <point x="145.0" y="693.2269033333333" type="line"/>
      <point x="209.89357" y="628.3333333333334" type="line"/>
      <point x="250.0" y="628.3333333333334" type="line"/>
    </contour>
    <contour>
      <point x="300.0" y="628.3333333333334" type="line"/>
      <point x="340.10643" y="628.3333333333334" type="line"/>
      <point x="405.0" y="693.2269033333333" type="line"/>
      <point x="405.0" y="773.4397633333333" type="line"/>
      <point x="340.10643" y="838.3333333333334" type="line"/>
      <point x="300.0" y="838.3333333333334" type="line"/>
    </contour>
    <contour>
      <point x="173.60679626464844" y="-5" type="line"/>
      <point x="250" y="-5" type="line"/>
      <point x="250" y="600" type="line"/>
      <point x="50" y="600" type="line"/>
      <point x="50" y="118.60679626464844" type="line"/>
    </contour>
    <contour>
      <point x="376.39320373535156" y="-5" type="line"/>
      <point x="500" y="118.60679626464844" type="line"/>
      <point x="500" y="600" type="line"/>
      <point x="300" y="600" type="line"/>
      <point x="300" y="-5" type="line"/>
    </contour>
  </outline>
</glyph>
<glyph name="U_with_ogonek" format="2">
  <advance width="550.0"/>
  <unicode hex="0172"/>
  <outline>
    <contour>
      <point x="173.60679626464844" y="-5" type="line"/>
      <point x="250" y="-5" type="line"/>
      <point x="250" y="800" type="line"/>
      <point x="50" y="800" type="line"/>
      <point x="50" y="118.60679626464844" type="line"/>
    </contour>
    <contour>
      <point x="376.39320373535156" y="-5" type="line"/>
      <point x="500" y="118.60679626464844" type="line"/>
      <point x="500" y="800" type="line"/>
      <point x="300" y="800" type="line"/>
      <point x="300" y="-5" type="line"/>
    </contour>
    <contour>
      <point x="275.0" y="-230.0" type="line"/>
      <point x="275.0" y="-30.0" type="line"/>
      <point x="198.6068" y="-30.0" type="line"/>
      <point x="75.0" y="-153.60680000000002" type="line"/>
      <point x="75.0" y="-230.0" type="line"/>
    </contour>
  </outline>
</glyph>
<glyph name="W_with_circumflex" format="2">
  <advance width="800.0"/>
  <unicode hex="0174"/>
  <outline>
    <contour>
      <point x="193.75" y="1033.3333333333335" type="line"/>
      <point x="193.75" y="833.3333333333334" type="line"/>
      <point x="270.1432" y="833.3333333333334" type="line"/>
      <point x="393.75" y="956.9401333333334" type="line"/>
      <point x="393.75" y="1033.3333333333335" type="line"/>
    </contour>
    <contour>
      <point x="606.25" y="1033.3333333333335" type="line"/>
      <point x="406.25" y="1033.3333333333335" type="line"/>
      <point x="406.25" y="956.9401333333334" type="line"/>
      <point x="529.8568" y="833.3333333333334" type="line"/>
      <point x="606.25" y="833.3333333333334" type="line"/>
    </contour>
    <contour>
      <point x="173.60679626464844" y="0" type="line"/>
      <point x="250" y="0" type="line"/>
      <point x="250" y="676.3932037353516" type="line"/>
      <point x="126.39320373535156" y="800" type="line"/>
      <point x="50" y="800" type="line"/>
      <point x="50" y="123.60679626464844" type="line"/>
    </contour>
    <contour>
      <point x="300" y="0" type="line"/>
      <point x="500" y="0" type="line"/>
      <point x="500" y="676.3932037353516" type="line"/>
      <point x="376.39320373535156" y="800" type="line"/>
      <point x="300" y="800" type="line"/>
    </contour>
    <contour>
      <point x="626.3932037353516" y="0" type="line"/>
      <point x="750" y="123.60679626464844" type="line"/>
      <point x="750" y="800" type="line"/>
      <point x="550" y="800" type="line"/>
      <point x="550" y="0" type="line"/>
    </contour>
  </outline>
</glyph>
<glyph name="Z_with_acute" format="2">
  <advance width="550.0"/>
  <unicode hex="0179"/>
  <outline>
    <contour>
      <point x="262.5" y="1033.3333333333335" type="line"/>
      <point x="262.5" y="833.3333333333334" type="line"/>
      <point x="338.8932" y="833.3333333333334" type="line"/>
      <point x="462.5" y="956.9401333333334" type="line"/>
      <point x="462.5" y="1033.3333333333335" type="line"/>
    </contour>
    <contour>
      <point x="50.0" y="800.0" type="line"/>
      <point x="50.0" y="600.0" type="line"/>
      <point x="126.3932" y="600.0" type="line"/>
      <point x="250.0" y="723.6068" type="line"/>
      <point x="250.0" y="800.0" type="line"/>
    </contour>
    <contour>
      <point x="376.39320373535156" y="300" type="line"/>
      <point x="500" y="423.60679626464844" type="line"/>
      <point x="500" y="800" type="line"/>
      <point x="300" y="800" type="line"/>
      <point x="300" y="300" type="line"/>
    </contour>
    <contour>
      <point x="50" y="0" type="line"/>
      <point x="250" y="0" type="line"/>
      <point x="250" y="500" type="line"/>
      <point x="173.60679626464844" y="500" type="line"/>
      <point x="50" y="376.39320373535156" type="line"/>
    </contour>
    <contour>
      <point x="500.0" y="0.0" type="line"/>
      <point x="500.0" y="200.0" type="line"/>
      <point x="423.6068" y="200.0" type="line"/>
      <point x="300.0" y="76.3932" type="line"/>
      <point x="300.0" y="0.0" type="line"/>
    </contour>
  </outline>
</glyph>
<glyph name="Z_with_dotabove" format="2">
  <advance width="550.0"/>
  <unicode hex="017B"/>
  <outline>
    <contour>
      <point x="175.0" y="833.3333333333334" type="line"/>
      <point x="375.0" y="833.3333333333334" type="line"/>
      <point x="375.0" y="1033.3333333333335" type="line"/>
      <point x="175.0" y="1033.3333333333335" type="line"/>
    </contour>
    <contour>
      <point x="50.0" y="800.0" type="line"/>
      <point x="50.0" y="600.0" type="line"/>
      <point x="126.3932" y="600.0" type="line"/>
      <point x="250.0" y="723.6068" type="line"/>
      <point x="250.0" y="800.0" type="line"/>
    </contour>
    <contour>
      <point x="376.39320373535156" y="300" type="line"/>
      <point x="500" y="423.60679626464844" type="line"/>
      <point x="500" y="800" type="line"/>
      <point x="300" y="800" type="line"/>
      <point x="300" y="300" type="line"/>
    </contour>
    <contour>
      <point x="50" y="0" type="line"/>
      <point x="250" y="0" type="line"/>
      <point x="250" y="500" type="line"/>
      <point x="173.60679626464844" y="500" type="line"/>
      <point x="50" y="376.39320373535156" type="line"/>
    </contour>
    <contour>
      <point x="500.0" y="0.0" type="line"/>
      <point x="500.0" y="200.0" type="line"/>
      <point x="423.6068" y="200.0" type="line"/>
      <point x="300.0" y="76.3932" type="line"/>
      <point x="300.0" y="0.0" type="line"/>
    </contour>
  </outline>
</glyph>
<glyph name="Z_with_caron" format="2">
  <advance width="550.0"/>
  <unicode hex="017D"/>
  <outline>
    <contour>
      <point x="68.75" y="833.3333333333334" type="line"/>
      <point x="268.75" y="833.3333333333334" type="line"/>
      <point x="268.75" y="909.7265333333334" type="line"/>
      <point x="145.14319999999998" y="1033.3333333333335" type="line"/>
      <point x="68.75" y="1033.3333333333335" type="line"/>
    </contour>
    <contour>
      <point x="481.25" y="833.3333333333334" type="line"/>
      <point x="481.25" y="1033.3333333333335" type="line"/>
      <point x="404.8568" y="1033.3333333333335" type="line"/>
      <point x="281.25" y="909.7265333333334" type="line"/>
      <point x="281.25" y="833.3333333333334" type="line"/>
    </contour>
    <contour>
      <point x="50.0" y="800.0" type="line"/>
      <point x="50.0" y="600.0" type="line"/>
      <point x="126.3932" y="600.0" type="line"/>
      <point x="250.0" y="723.6068" type="line"/>
      <point x="250.0" y="800.0" type="line"/>
    </contour>
    <contour>
      <point x="376.39320373535156" y="300" type="line"/>
      <point x="500" y="423.60679626464844" type="line"/>
      <point x="500" y="800" type="line"/>
      <point x="300" y="800" type="line"/>
      <point x="300" y="300" type="line"/>
    </contour>
    <contour>
      <point x="50" y="0" type="line"/>
      <point x="250" y="0" type="line"/>
      <point x="250" y="500" type="line"/>
      <point x="173.60679626464844" y="500" type="line"/>
      <point x="50" y="376.39320373535156" type="line"/>
    </contour>
    <contour>
      <point x="500.0" y="0.0" type="line"/>
      <point x="500.0" y="200.0" type="line"/>
      <point x="423.6068" y="200.0" type="line"/>
      <point x="300.0" y="76.3932" type="line"/>
      <point x="300.0" y="0.0" type="line"/>
    </contour>
  </outline>
</glyph>
<glyph name="florin" format="2">
  <advance width="800.0"/>
  <unicode hex="0192"/>
  <outline>
    <contour>
      <point x="376.39320373535156" y="0" type="line"/>
      <point x="500" y="123.60679626464844" type="line"/>
      <point x="500" y="805" type="line"/>
      <point x="423.60679626464844" y="805" type="line"/>
      <point x="300" y="681.3932037353516" type="line"/>
      <point x="300" y="0" type="line"/>
    </contour>
    <contour>
      <point x="755.0" y="740.10643" type="line"/>
      <point x="690.10643" y="805.0" type="line"/>
      <point x="609.89357" y="805.0" type="line"/>
      <point x="545.0" y="740.10643" type="line"/>
      <point x="545.0" y="659.89357" type="line"/>
      <point x="609.89357" y="595.0" type="line"/>
      <point x="690.10643" y="595.0" type="line"/>
      <point x="755.0" y="659.89357" type="line"/>
    </contour>
    <contour>
      <point x="125" y="400" type="line"/>
      <point x="250" y="400" type="line"/>
      <point x="250" y="500" type="line"/>
      <point x="125" y="500" type="line"/>
    </contour>
    <contour>
      <point x="550" y="400" type="line"/>
      <point x="700" y="400" type="line"/>
      <point x="700" y="500" type="line"/>
      <point x="550" y="500" type="line"/>
    </contour>
    <contour>
      <point x="255.0" y="140.10643" type="line"/>
      <point x="190.10643" y="205.0" type="line"/>
      <point x="109.89357" y="205.0" type="line"/>
      <point x="45.0" y="140.10643" type="line"/>
      <point x="45.0" y="59.89357" type="line"/>
      <point x="109.89357" y="-5.0" type="line"/>
      <point x="190.10643" y="-5.0" type="line"/>
      <point x="255.0" y="59.89357" type="line"/>
    </contour>
  </outline>
</glyph>
<glyph name="g_with_caron" format="2">
  <advance width="550.0"/>
  <unicode hex="01E7"/>
  <outline>
    <contour>
      <point x="68.75" y="633.3333333333334" type="line"/>
      <point x="268.75" y="633.3333333333334" type="line"/>
      <point x="268.75" y="709.7265333333334" type="line"/>
      <point x="145.14319999999998" y="833.3333333333334" type="line"/>
      <point x="68.75" y="833.3333333333334" type="line"/>
    </contour>
    <contour>
      <point x="481.25" y="633.3333333333334" type="line"/>
      <point x="481.25" y="833.3333333333334" type="line"/>
      <point x="404.8568" y="833.3333333333334" type="line"/>
      <point x="281.25" y="709.7265333333334" type="line"/>
      <point x="281.25" y="633.3333333333334" type="line"/>
    </contour>
    <contour>
      <point x="173.60679626464844" y="5" type="line"/>
      <point x="250" y="5" type="line"/>
      <point x="250" y="600" type="line"/>
      <point x="173.60679626464844" y="600" type="line"/>
      <point x="50" y="476.39320373535156" type="line"/>
      <point x="50" y="128.60679626464844" type="line"/>
    </contour>
    <contour>
      <point x="376.39320373535156" y="-210" type="line"/>
      <point x="500" y="-86.39320373535156" type="line"/>
      <point x="500" y="600" type="line"/>
      <point x="300" y="600" type="line"/>
      <point x="300" y="-210" type="line"/>
    </contour>
    <contour>
      <point x="250.0" y="-10.0" type="line"/>
      <point x="50.0" y="-10.0" type="line"/>
      <point x="50.0" y="-86.3932" type="line"/>
      <point x="173.60680000000002" y="-210.0" type="line"/>
      <point x="250.0" y="-210.0" type="line"/>
    </contour>
  </outline>
</glyph>
<glyph name="A_with_gravedbl" format="2">
  <advance width="550.0"/>
  <unicode hex="0200"/>
  <outline>
    <contour>
      <point x="250.0" y="1033.3333333333335" type="line"/>
      <point x="50.0" y="1033.3333333333335" type="line"/>
      <point x="50.0" y="956.9401333333334" type="line"/>
      <point x="173.60680000000002" y="833.3333333333334" type="line"/>
      <point x="250.0" y="833.3333333333334" type="line"/>
    </contour>
    <contour>
      <point x="500.0" y="1033.3333333333335" type="line"/>
      <point x="300.0" y="1033.3333333333335" type="line"/>
      <point x="300.0" y="956.9401333333334" type="line"/>
      <point x="423.6068" y="833.3333333333334" type="line"/>
      <point x="500.0" y="833.3333333333334" type="line"/>
    </contour>
    <contour>
      <point x="50" y="0" type="line"/>
      <point x="250" y="0" type="line"/>
      <point x="250" y="805" type="line"/>
      <point x="173.60679626464844" y="805" type="line"/>
      <point x="50" y="681.3932037353516" type="line"/>
    </contour>
    <contour>
      <point x="300" y="0" type="line"/>
      <point x="500" y="0" type="line"/>
      <point x="500" y="681.3932037353516" type="line"/>
      <point x="376.39320373535156" y="805" type="line"/>
      <point x="300" y="805" type="line"/>
    </contour>
  </outline>
</glyph>
<glyph name="A_with_breveinv" format="2">
  <advance width="550.0"/>
  <unicode hex="0202"/>
  <outline>
    <contour>
      <point x="75" y="909.7265319824219" type="line"/>
      <point x="75" y="833.3333358764648" type="line"/>
      <point x="475" y="833.3333358764648" type="line"/>
      <point x="475" y="909.7265319824219" type="line"/>
      <point x="351.39320373535156" y="1033.3333358764648" type="line"/>
      <point x="198.60679626464844" y="1033.3333358764648" type="line"/>
    </contour>
    <contour>
      <point x="50" y="0" type="line"/>
      <point x="250" y="0" type="line"/>
      <point x="250" y="805" type="line"/>
      <point x="173.60679626464844" y="805" type="line"/>
      <point x="50" y="681.3932037353516" type="line"/>
    </contour>
    <contour>
      <point x="300" y="0" type="line"/>
      <point x="500" y="0" type="line"/>
      <point x="500" y="681.3932037353516" type="line"/>
      <point x="376.39320373535156" y="805" type="line"/>
      <point x="300" y="805" type="line"/>
    </contour>
  </outline>
</glyph>
<glyph name="a_with_breveinv" format="2">
  <advance width="550.0"/>
  <unicode hex="0203"/>
  <outline>
    <contour>
      <point x="75" y="709.7265319824219" type="line"/>
      <point x="75" y="633.3333358764648" type="line"/>
      <point x="475" y="633.3333358764648" type="line"/>
      <point x="475" y="709.7265319824219" type="line"/>
      <point x="351.39320373535156" y="833.3333358764648" type="line"/>
      <point x="198.60679626464844" y="833.3333358764648" type="line"/>
    </contour>
    <contour>
      <point x="50.0" y="600.0" type="line"/>
      <point x="50.0" y="400.0" type="line"/>
      <point x="126.3932" y="400.0" type="line"/>
      <point x="250.0" y="523.6068" type="line"/>
      <point x="250.0" y="600.0" type="line"/>
    </contour>
    <contour>
      <point x="423.60679626464844" y="-5" type="line"/>
      <point x="500" y="-5" type="line"/>
      <point x="500" y="476.39320373535156" type="line"/>
      <point x="376.39320373535156" y="600" type="line"/>
      <point x="300" y="600" type="line"/>
      <point x="300" y="118.60679626464844" type="line"/>
    </contour>
    <contour>
      <point x="173.60679626464844" y="0" type="line"/>
      <point x="250" y="0" type="line"/>
      <point x="250" y="400" type="line"/>
      <point x="173.60679626464844" y="400" type="line"/>
      <point x="50" y="276.39320373535156" type="line"/>
      <point x="50" y="123.60679626464844" type="line"/>
    </contour>
  </outline>
</glyph>
<glyph name="I_with_gravedbl" format="2">
  <advance width="300.0"/>
  <unicode hex="0208"/>
  <outline>
    <contour>
      <point x="125.0" y="1033.3333333333335" type="line"/>
      <point x="-75.0" y="1033.3333333333335" type="line"/>
      <point x="-75.0" y="956.9401333333334" type="line"/>
      <point x="48.60680000000001" y="833.3333333333334" type="line"/>
      <point x="125.0" y="833.3333333333334" type="line"/>
    </contour>
    <contour>
      <point x="375.0" y="1033.3333333333335" type="line"/>
      <point x="175.0" y="1033.3333333333335" type="line"/>
      <point x="175.0" y="956.9401333333334" type="line"/>
      <point x="298.6068" y="833.3333333333334" type="line"/>
      <point x="375.0" y="833.3333333333334" type="line"/>
    </contour>
    <contour>
      <point x="50" y="0" type="line"/>
      <point x="250" y="0" type="line"/>
      <point x="250" y="800" type="line"/>
      <point x="50" y="800" type="line"/>
    </contour>
  </outline>
</glyph>
<glyph name="i_with_gravedbl" format="2">
  <advance width="300.0"/>
  <unicode hex="0209"/>
  <outline>
    <contour>
      <point x="125.0" y="833.3333333333334" type="line"/>
      <point x="-75.0" y="833.3333333333334" type="line"/>
      <point x="-75.0" y="756.9401333333334" type="line"/>
      <point x="48.60680000000001" y="633.3333333333334" type="line"/>
      <point x="125.0" y="633.3333333333334" type="line"/>
    </contour>
    <contour>
      <point x="375.0" y="833.3333333333334" type="line"/>
      <point x="175.0" y="833.3333333333334" type="line"/>
      <point x="175.0" y="756.9401333333334" type="line"/>
      <point x="298.6068" y="633.3333333333334" type="line"/>
      <point x="375.0" y="633.3333333333334" type="line"/>
    </contour>
    <contour>
      <point x="50" y="0" type="line"/>
      <point x="250" y="0" type="line"/>
      <point x="250" y="600" type="line"/>
      <point x="50" y="600" type="line"/>
    </contour>
  </outline>
</glyph>
<glyph name="o_with_gravedbl" format="2">
  <advance width="550.0"/>
  <unicode hex="020D"/>
  <outline>
    <contour>
      <point x="250.0" y="833.3333333333334" type="line"/>
      <point x="50.0" y="833.3333333333334" type="line"/>
      <point x="50.0" y="756.9401333333334" type="line"/>
      <point x="173.60680000000002" y="633.3333333333334" type="line"/>
      <point x="250.0" y="633.3333333333334" type="line"/>
    </contour>
    <contour>
      <point x="500.0" y="833.3333333333334" type="line"/>
      <point x="300.0" y="833.3333333333334" type="line"/>
      <point x="300.0" y="756.9401333333334" type="line"/>
      <point x="423.6068" y="633.3333333333334" type="line"/>
      <point x="500.0" y="633.3333333333334" type="line"/>
    </contour>
    <contour>
      <point x="173.60679626464844" y="-5" type="line"/>
      <point x="250" y="-5" type="line"/>
      <point x="250" y="605" type="line"/>
      <point x="173.60679626464844" y="605" type="line"/>
      <point x="50" y="481.39320373535156" type="line"/>
      <point x="50" y="118.60679626464844" type="line"/>
    </contour>
    <contour>
      <point x="376.39320373535156" y="-5" type="line"/>
      <point x="500" y="118.60679626464844" type="line"/>
      <point x="500" y="481.39320373535156" type="line"/>
      <point x="376.39320373535156" y="605" type="line"/>
      <point x="300" y="605" type="line"/>
      <point x="300" y="-5" type="line"/>
    </contour>
  </outline>
</glyph>
<glyph name="R_with_gravedbl" format="2">
  <advance width="550.0"/>
  <unicode hex="0210"/>
  <outline>
    <contour>
      <point x="250.0" y="1033.3333333333335" type="line"/>
      <point x="50.0" y="1033.3333333333335" type="line"/>
      <point x="50.0" y="956.9401333333334" type="line"/>
      <point x="173.60680000000002" y="833.3333333333334" type="line"/>
      <point x="250.0" y="833.3333333333334" type="line"/>
    </contour>
    <contour>
      <point x="500.0" y="1033.3333333333335" type="line"/>
      <point x="300.0" y="1033.3333333333335" type="line"/>
      <point x="300.0" y="956.9401333333334" type="line"/>
      <point x="423.6068" y="833.3333333333334" type="line"/>
      <point x="500.0" y="833.3333333333334" type="line"/>
    </contour>
    <contour>
      <point x="50" y="0" type="line"/>
      <point x="250" y="0" type="line"/>
      <point x="250" y="800" type="line"/>
      <point x="50" y="800" type="line"/>
    </contour>
    <contour>
      <point x="300" y="0" type="line"/>
      <point x="500" y="0" type="line"/>
      <point x="500" y="76.39320373535156" type="line"/>
      <point x="376.39320373535156" y="200" type="line"/>
      <point x="500" y="323.60679626464844" type="line"/>
      <point x="500" y="676.3932037353516" type="line"/>
      <point x="376.39320373535156" y="800" type="line"/>
      <point x="300" y="800" type="line"/>
    </contour>
  </outline>
</glyph>
<glyph name="r_with_gravedbl" format="2">
  <advance width="550.0"/>
  <unicode hex="0211"/>
  <outline>
    <contour>
      <point x="250.0" y="833.3333333333334" type="line"/>
      <point x="50.0" y="833.3333333333334" type="line"/>
      <point x="50.0" y="756.9401333333334" type="line"/>
      <point x="173.60680000000002" y="633.3333333333334" type="line"/>
      <point x="250.0" y="633.3333333333334" type="line"/>
    </contour>
    <contour>
      <point x="500.0" y="833.3333333333334" type="line"/>
      <point x="300.0" y="833.3333333333334" type="line"/>
      <point x="300.0" y="756.9401333333334" type="line"/>
      <point x="423.6068" y="633.3333333333334" type="line"/>
      <point x="500.0" y="633.3333333333334" type="line"/>
    </contour>
    <contour>
      <point x="50" y="0" type="line"/>
      <point x="250" y="0" type="line"/>
      <point x="250" y="600" type="line"/>
      <point x="50" y="600" type="line"/>
    </contour>
    <contour>
      <point x="500.0" y="600.0" type="line"/>
      <point x="300.0" y="600.0" type="line"/>
      <point x="300.0" y="523.6068" type="line"/>
      <point x="423.6068" y="400.0" type="line"/>
      <point x="500.0" y="400.0" type="line"/>
    </contour>
  </outline>
</glyph>
<glyph name="r_with_breveinv" format="2">
  <advance width="550.0"/>
  <unicode hex="0213"/>
  <outline>
    <contour>
      <point x="75" y="709.7265319824219" type="line"/>
      <point x="75" y="633.3333358764648" type="line"/>
      <point x="475" y="633.3333358764648" type="line"/>
      <point x="475" y="709.7265319824219" type="line"/>
      <point x="351.39320373535156" y="833.3333358764648" type="line"/>
      <point x="198.60679626464844" y="833.3333358764648" type="line"/>
    </contour>
    <contour>
      <point x="50" y="0" type="line"/>
      <point x="250" y="0" type="line"/>
      <point x="250" y="600" type="line"/>
      <point x="50" y="600" type="line"/>
    </contour>
    <contour>
      <point x="500.0" y="600.0" type="line"/>
      <point x="300.0" y="600.0" type="line"/>
      <point x="300.0" y="523.6068" type="line"/>
      <point x="423.6068" y="400.0" type="line"/>
      <point x="500.0" y="400.0" type="line"/>
    </contour>
  </outline>
</glyph>
<glyph name="U_with_breveinv" format="2">
  <advance width="550.0"/>
  <unicode hex="0216"/>
  <outline>
    <contour>
      <point x="75" y="909.7265319824219" type="line"/>
      <point x="75" y="833.3333358764648" type="line"/>
      <point x="475" y="833.3333358764648" type="line"/>
      <point x="475" y="909.7265319824219" type="line"/>
      <point x="351.39320373535156" y="1033.3333358764648" type="line"/>
      <point x="198.60679626464844" y="1033.3333358764648" type="line"/>
    </contour>
    <contour>
      <point x="173.60679626464844" y="-5" type="line"/>
      <point x="250" y="-5" type="line"/>
      <point x="250" y="800" type="line"/>
      <point x="50" y="800" type="line"/>
      <point x="50" y="118.60679626464844" type="line"/>
    </contour>
    <contour>
      <point x="376.39320373535156" y="-5" type="line"/>
      <point x="500" y="118.60679626464844" type="line"/>
      <point x="500" y="800" type="line"/>
      <point x="300" y="800" type="line"/>
      <point x="300" y="-5" type="line"/>
    </contour>
  </outline>
</glyph>
<glyph name="S_with_commabelow" format="2">
  <advance width="550.0"/>
  <unicode hex="0218"/>
  <outline>
    <contour>
      <point x="173.60679626464844" y="300" type="line"/>
      <point x="250" y="300" type="line"/>
      <point x="250" y="800" type="line"/>
      <point x="173.60679626464844" y="800" type="line"/>
      <point x="50" y="676.3932037353516" type="line"/>
      <point x="50" y="423.60679626464844" type="line"/>
    </contour>
    <contour>
      <point x="493.75" y="800.0" type="line"/>
      <point x="293.75" y="800.0" type="line"/>
      <point x="293.75" y="723.6068" type="line"/>
      <point x="417.3568" y="600.0" type="line"/>
      <point x="493.75" y="600.0" type="line"/>
    </contour>
    <contour>
      <point x="376.39320373535156" y="0" type="line"/>
      <point x="500" y="123.60679626464844" type="line"/>
      <point x="500" y="376.39320373535156" type="line"/>
      <point x="376.39320373535156" y="500" type="line"/>
      <point x="300" y="500" type="line"/>
      <point x="300" y="0" type="line"/>
    </contour>
    <contour>
      <point x="53.125" y="0" type="line"/>
      <point x="253.125" y="0" type="line"/>
      <point x="253.125" y="76.3932" type="line"/>
      <point x="129.51819999999998" y="200.0" type="line"/>
      <point x="53.125" y="200.0" type="line"/>
    </contour>
    <contour>
      <point x="175.0" y="-25.0" type="line"/>
      <point x="175.0" y="-225.0" type="line"/>
      <point x="251.39319999999998" y="-225.0" type="line"/>
      <point x="375.0" y="-101.3932" type="line"/>
      <point x="375.0" y="-25.0" type="line"/>
    </contour>
  </outline>
</glyph>
<glyph name="s_with_commabelow" format="2">
  <advance width="550.0"/>
  <unicode hex="0219"/>
  <outline>
    <contour>
      <point x="173.60679626464844" y="200" type="line"/>
      <point x="250" y="200" type="line"/>
      <point x="250" y="600" type="line"/>
      <point x="173.60679626464844" y="600" type="line"/>
      <point x="50" y="476.39320373535156" type="line"/>
      <point x="50" y="323.60679626464844" type="line"/>
    </contour>
    <contour>
      <point x="493.75" y="600.0" type="line"/>
      <point x="293.75" y="600.0" type="line"/>
      <point x="293.75" y="523.6068" type="line"/>
      <point x="417.3568" y="400.0" type="line"/>
      <point x="493.75" y="400.0" type="line"/>
    </contour>
    <contour>
      <point x="376.39320373535156" y="-5" type="line"/>
      <point x="500" y="118.60679626464844" type="line"/>
      <point x="500" y="271.39320373535156" type="line"/>
      <point x="376.39320373535156" y="395" type="line"/>
      <point x="300" y="395" type="line"/>
      <point x="300" y="-5" type="line"/>
    </contour>
    <contour>
      <point x="53.125" y="0" type="line"/>
      <point x="253.125" y="0" type="line"/>
      <point x="253.125" y="76.3932" type="line"/>
      <point x="129.51819999999998" y="200.0" type="line"/>
      <point x="53.125" y="200.0" type="line"/>
    </contour>
    <contour>
      <point x="175.0" y="-30.0" type="line"/>
      <point x="175.0" y="-230.0" type="line"/>
      <point x="251.39319999999998" y="-230.0" type="line"/>
      <point x="375.0" y="-106.3932" type="line"/>
      <point x="375.0" y="-30.0" type="line"/>
    </contour>
  </outline>
</glyph>
<glyph name="T_with_commabelow" format="2">
  <advance width="800.0"/>
  <unicode hex="021A"/>
  <outline>
    <contour>
      <point x="50.0" y="800.0" type="line"/>
      <point x="50.0" y="600.0" type="line"/>
      <point x="126.3932" y="600.0" type="line"/>
      <point x="250.0" y="723.6068" type="line"/>
      <point x="250.0" y="800.0" type="line"/>
    </contour>
    <contour>
      <point x="300" y="0" type="line"/>
      <point x="500" y="0" type="line"/>
      <point x="500" y="800" type="line"/>
      <point x="300" y="800" type="line"/>
    </contour>
    <contour>
      <point x="750.0" y="800.0" type="line"/>
      <point x="550.0" y="800.0" type="line"/>
      <point x="550.0" y="723.6068" type="line"/>
      <point x="673.6068" y="600.0" type="line"/>
      <point x="750.0" y="600.0" type="line"/>
    </contour>
    <contour>
      <point x="300.0" y="-25.0" type="line"/>
      <point x="300.0" y="-225.0" type="line"/>
      <point x="376.3932" y="-225.0" type="line"/>
      <point x="500.0" y="-101.3932" type="line"/>
      <point x="500.0" y="-25.0" type="line"/>
    </contour>
  </outline>
</glyph>
<glyph name="turnedcomma" format="2">
  <advance width="300.0"/>
  <unicode hex="02BB"/>
  <outline>
    <contour>
      <point x="50" y="500" type="line"/>
      <point x="250" y="500" type="line"/>
      <point x="250" y="800" type="line"/>
      <point x="173.60679626464844" y="800" type="line"/>
      <point x="50" y="676.3932037353516" type="line"/>
    </contour>
  </outline>
</glyph>
<glyph name="apostrophe" format="2">
  <advance width="300.0"/>
  <unicode hex="02BC"/>
  <outline>
    <contour>
      <point x="50.0" y="800.0" type="line"/>
      <point x="50.0" y="600.0" type="line"/>
      <point x="126.3932" y="600.0" type="line"/>
      <point x="250.0" y="723.6068" type="line"/>
      <point x="250.0" y="800.0" type="line"/>
    </contour>
  </outline>
</glyph>
<glyph name="circumflex" format="2">
  <advance width="550.0"/>
  <unicode hex="02C6"/>
  <outline>
    <contour>
      <point x="68.75" y="1000.0" type="line"/>
      <point x="68.75" y="800.0" type="line"/>
      <point x="145.14319999999998" y="800.0" type="line"/>
      <point x="268.75" y="923.6068" type="line"/>
      <point x="268.75" y="1000.0" type="line"/>
    </contour>
    <contour>
      <point x="481.25" y="1000.0" type="line"/>
      <point x="281.25" y="1000.0" type="line"/>
      <point x="281.25" y="923.6068" type="line"/>
      <point x="404.8568" y="800.0" type="line"/>
      <point x="481.25" y="800.0" type="line"/>
    </contour>
  </outline>
</glyph>
<glyph name="breve" format="2">
  <advance width="550.0"/>
  <unicode hex="02D8"/>
  <outline>
    <contour>
      <point x="75" y="923.6067962646484" type="line"/>
      <point x="198.60679626464844" y="800" type="line"/>
      <point x="351.39320373535156" y="800" type="line"/>
      <point x="475" y="923.6067962646484" type="line"/>
      <point x="475" y="1000" type="line"/>
      <point x="75" y="1000" type="line"/>
    </contour>
  </outline>
</glyph>
<glyph name="dotabove" format="2">
  <advance width="300.0"/>
  <unicode hex="02D9"/>
  <outline>
    <contour>
      <point x="50.0" y="800" type="line"/>
      <point x="250.0" y="800" type="line"/>
      <point x="250.0" y="1000" type="line"/>
      <point x="50.0" y="1000" type="line"/>
    </contour>
  </outline>
</glyph>
<glyph name="ring" format="2">
  <advance width="550.0"/>
  <unicode hex="02DA"/>
  <outline>
    <contour>
      <point x="250.0" y="1005.0" type="line"/>
      <point x="209.89357" y="1005.0" type="line"/>
      <point x="145.0" y="940.10643" type="line"/>
      <point x="145.0" y="859.89357" type="line"/>
      <point x="209.89357" y="795.0" type="line"/>
      <point x="250.0" y="795.0" type="line"/>
    </contour>
    <contour>
      <point x="300.0" y="795.0" type="line"/>
      <point x="340.10643" y="795.0" type="line"/>
      <point x="405.0" y="859.89357" type="line"/>
      <point x="405.0" y="940.10643" type="line"/>
      <point x="340.10643" y="1005.0" type="line"/>
      <point x="300.0" y="1005.0" type="line"/>
    </contour>
  </outline>
</glyph>
<glyph name="ogonek" format="2">
  <advance width="300.0"/>
  <unicode hex="02DB"/>
  <outline>
    <contour>
      <point x="150.0" y="-200.0" type="line"/>
      <point x="150.0" y="0.0" type="line"/>
      <point x="73.60679999999999" y="0.0" type="line"/>
      <point x="-50.0" y="-123.6068" type="line"/>
      <point x="-50.0" y="-200.0" type="line"/>
    </contour>
  </outline>
</glyph>
<glyph name="smalltilde" format="2">
  <advance width="550.0"/>
  <unicode hex="02DC"/>
  <outline>
    <contour>
      <point x="75" y="876.3932037353516" type="line"/>
      <point x="75" y="800" type="line"/>
      <point x="351.39320373535156" y="800" type="line"/>
      <point x="475" y="923.6067962646484" type="line"/>
      <point x="475" y="1000" type="line"/>
      <point x="198.60679626464844" y="1000" type="line"/>
    </contour>
  </outline>
</glyph>
<glyph name="acutedbl" format="2">
  <advance width="550.0"/>
  <unicode hex="02DD"/>
  <outline>
    <contour>
      <point x="50.0" y="1000.0" type="line"/>
      <point x="50.0" y="800.0" type="line"/>
      <point x="126.3932" y="800.0" type="line"/>
      <point x="250.0" y="923.6068" type="line"/>
      <point x="250.0" y="1000.0" type="line"/>
    </contour>
    <contour>
      <point x="300.0" y="1000.0" type="line"/>
      <point x="300.0" y="800.0" type="line"/>
      <point x="376.3932" y="800.0" type="line"/>
      <point x="500.0" y="923.6068" type="line"/>
      <point x="500.0" y="1000.0" type="line"/>
    </contour>
  </outline>
</glyph>
<glyph name="combining_grave" format="2">
  <advance width="300.0"/>
  <unicode hex="0300"/>
  <outline>
    <contour>
      <point x="-387.5" y="833.33333" type="line"/>
      <point x="-587.5" y="833.33333" type="line"/>
      <point x="-587.5" y="756.94013" type="line"/>
      <point x="-463.8932" y="633.3333299999999" type="line"/>
      <point x="-387.5" y="633.3333299999999" type="line"/>
    </contour>
  </outline>
</glyph>
<glyph name="combining_acute" format="2">
  <advance width="300.0"/>
  <unicode hex="0301"/>
  <outline>
    <contour>
      <point x="-412.5" y="833.33333" type="line"/>
      <point x="-412.5" y="633.3333299999999" type="line"/>
      <point x="-336.1068" y="633.3333299999999" type="line"/>
      <point x="-212.5" y="756.94013" type="line"/>
      <point x="-212.5" y="833.33333" type="line"/>
    </contour>
  </outline>
</glyph>
<glyph name="combining_circumflex" format="2">
  <advance width="550.0"/>
  <unicode hex="0302"/>
  <outline>
    <contour>
      <point x="-481.25" y="833.33333" type="line"/>
      <point x="-481.25" y="633.3333299999999" type="line"/>
      <point x="-404.8568" y="633.3333299999999" type="line"/>
      <point x="-281.25" y="756.94013" type="line"/>
      <point x="-281.25" y="833.33333" type="line"/>
    </contour>
    <contour>
      <point x="-68.75" y="833.33333" type="line"/>
      <point x="-268.75" y="833.33333" type="line"/>
      <point x="-268.75" y="756.94013" type="line"/>
      <point x="-145.1432" y="633.3333299999999" type="line"/>
      <point x="-68.75" y="633.3333299999999" type="line"/>
    </contour>
  </outline>
</glyph>
<glyph name="combining_macron" format="2">
  <advance width="550.0"/>
  <unicode hex="0304"/>
  <outline>
    <contour>
      <point x="-475" y="633.3333282470703" type="line"/>
      <point x="-75" y="633.3333282470703" type="line"/>
      <point x="-75" y="833.3333282470703" type="line"/>
      <point x="-475" y="833.3333282470703" type="line"/>
    </contour>
  </outline>
</glyph>
<glyph name="combining_breve" format="2">
  <advance width="550.0"/>
  <unicode hex="0306"/>
  <outline>
    <contour>
      <point x="-475" y="756.9401321411133" type="line"/>
      <point x="-351.39320373535156" y="633.3333282470703" type="line"/>
      <point x="-198.60679626464844" y="633.3333282470703" type="line"/>
      <point x="-75" y="756.9401321411133" type="line"/>
      <point x="-75" y="833.3333282470703" type="line"/>
      <point x="-475" y="833.3333282470703" type="line"/>
    </contour>
  </outline>
</glyph>
<glyph name="combining_dotabove" format="2">
  <advance width="300.0"/>
  <unicode hex="0307"/>
  <outline>
    <contour>
      <point x="-500.0" y="633.3333299999999" type="line"/>
      <point x="-300.0" y="633.3333299999999" type="line"/>
      <point x="-300.0" y="833.33333" type="line"/>
      <point x="-500.0" y="833.33333" type="line"/>
    </contour>
  </outline>
</glyph>
<glyph name="combining_diaeresis" format="2">
  <advance width="550.0"/>
  <unicode hex="0308"/>
  <outline>
    <contour>
      <point x="-500.0" y="633.3333299999999" type="line"/>
      <point x="-300.0" y="633.3333299999999" type="line"/>
      <point x="-300.0" y="833.33333" type="line"/>
      <point x="-500.0" y="833.33333" type="line"/>
    </contour>
    <contour>
      <point x="-250.0" y="633.3333299999999" type="line"/>
      <point x="-50.0" y="633.3333299999999" type="line"/>
      <point x="-50.0" y="833.33333" type="line"/>
      <point x="-250.0" y="833.33333" type="line"/>
    </contour>
  </outline>
</glyph>
<glyph name="combining_hook" format="2">
  <advance width="300.0"/>
  <unicode hex="0309"/>
  <outline>
    <contour>
      <point x="-412.5" y="633.3333299999999" type="line"/>
      <point x="-212.5" y="633.3333299999999" type="line"/>
      <point x="-212.5" y="709.72653" type="line"/>
      <point x="-336.1068" y="833.33333" type="line"/>
      <point x="-412.5" y="833.33333" type="line"/>
    </contour>
  </outline>
</glyph>
<glyph name="combining_ring" format="2">
  <advance width="550.0"/>
  <unicode hex="030A"/>
  <outline>
    <contour>
      <point x="-300.0" y="838.33333" type="line"/>
      <point x="-340.10643" y="838.33333" type="line"/>
      <point x="-405.0" y="773.43976" type="line"/>
      <point x="-405.0" y="693.2269" type="line"/>
      <point x="-340.10643" y="628.3333299999999" type="line"/>
      <point x="-300.0" y="628.3333299999999" type="line"/>
    </contour>
    <contour>
      <point x="-250.0" y="628.3333299999999" type="line"/>
      <point x="-209.89357" y="628.3333299999999" type="line"/>
      <point x="-145.0" y="693.2269" type="line"/>
      <point x="-145.0" y="773.43976" type="line"/>
      <point x="-209.89357" y="838.33333" type="line"/>
      <point x="-250.0" y="838.33333" type="line"/>
    </contour>
  </outline>
</glyph>
<glyph name="combining_acutedbl" format="2">
  <advance width="550.0"/>
  <unicode hex="030B"/>
  <outline>
    <contour>
      <point x="-500.0" y="833.33333" type="line"/>
      <point x="-500.0" y="633.3333299999999" type="line"/>
      <point x="-423.6068" y="633.3333299999999" type="line"/>
      <point x="-300.0" y="756.94013" type="line"/>
      <point x="-300.0" y="833.33333" type="line"/>
    </contour>
    <contour>
      <point x="-250.0" y="833.33333" type="line"/>
      <point x="-250.0" y="633.3333299999999" type="line"/>
      <point x="-173.6068" y="633.3333299999999" type="line"/>
      <point x="-50.0" y="756.94013" type="line"/>
      <point x="-50.0" y="833.33333" type="line"/>
    </contour>
  </outline>
</glyph>
<glyph name="combining_gravedbl" format="2">
  <advance width="550.0"/>
  <unicode hex="030F"/>
  <outline>
    <contour>
      <point x="-300.0" y="833.33333" type="line"/>
      <point x="-500.0" y="833.33333" type="line"/>
      <point x="-500.0" y="756.94013" type="line"/>
      <point x="-376.3932" y="633.3333299999999" type="line"/>
      <point x="-300.0" y="633.3333299999999" type="line"/>
    </contour>
    <contour>
      <point x="-50.0" y="833.33333" type="line"/>
      <point x="-250.0" y="833.33333" type="line"/>
      <point x="-250.0" y="756.94013" type="line"/>
      <point x="-126.39320000000001" y="633.3333299999999" type="line"/>
      <point x="-50.0" y="633.3333299999999" type="line"/>
    </contour>
  </outline>
</glyph>
<glyph name="combining_breveinv" format="2">
  <advance width="550.0"/>
  <unicode hex="0311"/>
  <outline>
    <contour>
      <point x="-475" y="709.7265319824219" type="line"/>
      <point x="-475" y="633.3333282470703" type="line"/>
      <point x="-75" y="633.3333282470703" type="line"/>
      <point x="-75" y="709.7265319824219" type="line"/>
      <point x="-198.60679626464844" y="833.3333282470703" type="line"/>
      <point x="-351.39320373535156" y="833.3333282470703" type="line"/>
    </contour>
  </outline>
</glyph>
<glyph name="combining_dotbelow" format="2">
  <advance width="300.0"/>
  <unicode hex="0323"/>
  <outline>
    <contour>
      <point x="-500.0" y="-200" type="line"/>
      <point x="-300.0" y="-200" type="line"/>
      <point x="-300.0" y="0" type="line"/>
      <point x="-500.0" y="0" type="line"/>
    </contour>
  </outline>
</glyph>
<glyph name="combining_diaeresisbelow" format="2">
  <advance width="550.0"/>
  <unicode hex="0324"/>
  <outline>
    <contour>
      <point x="-500.0" y="-200" type="line"/>
      <point x="-300.0" y="-200" type="line"/>
      <point x="-300.0" y="0" type="line"/>
      <point x="-500.0" y="0" type="line"/>
    </contour>
    <contour>
      <point x="-250.0" y="-200" type="line"/>
      <point x="-50.0" y="-200" type="line"/>
      <point x="-50.0" y="0" type="line"/>
      <point x="-250.0" y="0" type="line"/>
    </contour>
  </outline>
</glyph>
<glyph name="combining_commabelow" format="2">
  <advance width="300.0"/>
  <unicode hex="0326"/>
  <outline>
    <contour>
      <point x="-500.0" y="0.0" type="line"/>
      <point x="-500.0" y="-200.0" type="line"/>
      <point x="-423.6068" y="-200.0" type="line"/>
      <point x="-300.0" y="-76.3932" type="line"/>
      <point x="-300.0" y="0.0" type="line"/>
    </contour>
  </outline>
</glyph>
<glyph name="combining_cedilla" format="2">
  <advance width="300.0"/>
  <unicode hex="0327"/>
  <outline>
    <contour>
      <point x="-412.5" y="-200" type="line"/>
      <point x="-212.5" y="-200" type="line"/>
      <point x="-212.5" y="-123.6068" type="line"/>
      <point x="-336.1068" y="0.0" type="line"/>
      <point x="-412.5" y="0.0" type="line"/>
    </contour>
  </outline>
</glyph>
<glyph name="PI" format="2">
  <advance width="650.0"/>
  <unicode hex="03A0"/>
  <outline>
    <contour>
      <point x="50" y="600" type="line"/>
      <point x="600" y="600" type="line"/>
      <point x="600" y="800" type="line"/>
      <point x="50" y="800" type="line"/>
    </contour>
    <contour>
      <point x="100" y="0" type="line"/>
      <point x="300" y="0" type="line"/>
      <point x="300" y="562.5" type="line"/>
      <point x="100" y="562.5" type="line"/>
    </contour>
    <contour>
      <point x="350" y="0" type="line"/>
      <point x="550" y="0" type="line"/>
      <point x="550" y="562.5" type="line"/>
      <point x="350" y="562.5" type="line"/>
    </contour>
  </outline>
</glyph>
<glyph name="SIGMA" format="2">
  <advance width="550.0"/>
  <unicode hex="03A3"/>
  <outline>
    <contour>
      <point x="50" y="0" type="line"/>
      <point x="250" y="0" type="line"/>
      <point x="250" y="800" type="line"/>
      <point x="50" y="800" type="line"/>
      <point x="50" y="523.6067962646484" type="line"/>
      <point x="173.60679626464844" y="400" type="line"/>
      <point x="50" y="276.39320373535156" type="line"/>
    </contour>
    <contour>
      <point x="500.0" y="800.0" type="line"/>
      <point x="300.0" y="800.0" type="line"/>
      <point x="300.0" y="723.6068" type="line"/>
      <point x="423.6068" y="600.0" type="line"/>
      <point x="500.0" y="600.0" type="line"/>
    </contour>
    <contour>
      <point x="500.0" y="0.0" type="line"/>
      <point x="500.0" y="200.0" type="line"/>
      <point x="423.6068" y="200.0" type="line"/>
      <point x="300.0" y="76.3932" type="line"/>
      <point x="300.0" y="0.0" type="line"/>
    </contour>
  </outline>
</glyph>
<glyph name="pi" format="2">
  <advance width="775.0"/>
  <unicode hex="03C0"/>
  <outline>
    <contour>
      <point x="50" y="476.39320373535156" type="line"/>
      <point x="50" y="400" type="line"/>
      <point x="601.3932037353516" y="400" type="line"/>
      <point x="725" y="523.6067962646484" type="line"/>
      <point x="725" y="600" type="line"/>
      <point x="173.60679626464844" y="600" type="line"/>
    </contour>
    <contour>
      <point x="150" y="0" type="line"/>
      <point x="350" y="0" type="line"/>
      <point x="350" y="362.5" type="line"/>
      <point x="150" y="362.5" type="line"/>
    </contour>
    <contour>
      <point x="523.6067962646484" y="0" type="line"/>
      <point x="650" y="0" type="line"/>
      <point x="650" y="200" type="line"/>
      <point x="600" y="200" type="line"/>
      <point x="600" y="362.5" type="line"/>
      <point x="400" y="362.5" type="line"/>
      <point x="400" y="123.60679626464844" type="line"/>
    </contour>
  </outline>
</glyph>
<glyph name="sigma" format="2">
  <advance width="600.0"/>
  <unicode hex="03C3"/>
  <outline>
    <contour>
      <point x="173.60679626464844" y="-5" type="line"/>
      <point x="250" y="-5" type="line"/>
      <point x="250" y="600" type="line"/>
      <point x="173.60679626464844" y="600" type="line"/>
      <point x="50" y="476.39320373535156" type="line"/>
      <point x="50" y="118.60679626464844" type="line"/>
    </contour>
    <contour>
      <point x="500" y="400" type="line"/>
      <point x="550" y="400" type="line"/>
      <point x="550" y="600" type="line"/>
      <point x="300" y="600" type="line"/>
      <point x="300" y="-5" type="line"/>
      <point x="376.39320373535156" y="-5" type="line"/>
      <point x="500" y="118.60679626464844" type="line"/>
    </contour>
  </outline>
</glyph>
<glyph name="u_with_diaeresisbelow" format="2">
  <advance width="550.0"/>
  <unicode hex="1E73"/>
  <outline>
    <contour>
      <point x="173.60679626464844" y="-5" type="line"/>
      <point x="250" y="-5" type="line"/>
      <point x="250" y="600" type="line"/>
      <point x="50" y="600" type="line"/>
      <point x="50" y="118.60679626464844" type="line"/>
    </contour>
    <contour>
      <point x="376.39320373535156" y="-5" type="line"/>
      <point x="500" y="118.60679626464844" type="line"/>
      <point x="500" y="600" type="line"/>
      <point x="300" y="600" type="line"/>
      <point x="300" y="-5" type="line"/>
    </contour>
    <contour>
      <point x="50.0" y="-230.0" type="line"/>
      <point x="250.0" y="-230.0" type="line"/>
      <point x="250.0" y="-30.0" type="line"/>
      <point x="50.0" y="-30.0" type="line"/>
    </contour>
    <contour>
      <point x="300.0" y="-230.0" type="line"/>
      <point x="500.0" y="-230.0" type="line"/>
      <point x="500.0" y="-30.0" type="line"/>
      <point x="300.0" y="-30.0" type="line"/>
    </contour>
  </outline>
</glyph>
<glyph name="w_with_grave" format="2">
  <advance width="800.0"/>
  <unicode hex="1E81"/>
  <outline>
    <contour>
      <point x="412.5" y="833.3333333333334" type="line"/>
      <point x="212.5" y="833.3333333333334" type="line"/>
      <point x="212.5" y="756.9401333333334" type="line"/>
      <point x="336.1068" y="633.3333333333334" type="line"/>
      <point x="412.5" y="633.3333333333334" type="line"/>
    </contour>
    <contour>
      <point x="173.60679626464844" y="0" type="line"/>
      <point x="250" y="0" type="line"/>
      <point x="250" y="476.39320373535156" type="line"/>
      <point x="126.39320373535156" y="600" type="line"/>
      <point x="50" y="600" type="line"/>
      <point x="50" y="123.60679626464844" type="line"/>
    </contour>
    <contour>
      <point x="300" y="0" type="line"/>
      <point x="500" y="0" type="line"/>
      <point x="500" y="476.39320373535156" type="line"/>
      <point x="376.39320373535156" y="600" type="line"/>
      <point x="300" y="600" type="line"/>
    </contour>
    <contour>
      <point x="626.3932037353516" y="0" type="line"/>
      <point x="750" y="123.60679626464844" type="line"/>
      <point x="750" y="600" type="line"/>
      <point x="550" y="600" type="line"/>
      <point x="550" y="0" type="line"/>
    </contour>
  </outline>
</glyph>
<glyph name="W_with_diaeresis" format="2">
  <advance width="800.0"/>
  <unicode hex="1E84"/>
  <outline>
    <contour>
      <point x="175.0" y="833.3333333333334" type="line"/>
      <point x="375.0" y="833.3333333333334" type="line"/>
      <point x="375.0" y="1033.3333333333335" type="line"/>
      <point x="175.0" y="1033.3333333333335" type="line"/>
    </contour>
    <contour>
      <point x="425.0" y="833.3333333333334" type="line"/>
      <point x="625.0" y="833.3333333333334" type="line"/>
      <point x="625.0" y="1033.3333333333335" type="line"/>
      <point x="425.0" y="1033.3333333333335" type="line"/>
    </contour>
    <contour>
      <point x="173.60679626464844" y="0" type="line"/>
      <point x="250" y="0" type="line"/>
      <point x="250" y="676.3932037353516" type="line"/>
      <point x="126.39320373535156" y="800" type="line"/>
      <point x="50" y="800" type="line"/>
      <point x="50" y="123.60679626464844" type="line"/>
    </contour>
    <contour>
      <point x="300" y="0" type="line"/>
      <point x="500" y="0" type="line"/>
      <point x="500" y="676.3932037353516" type="line"/>
      <point x="376.39320373535156" y="800" type="line"/>
      <point x="300" y="800" type="line"/>
    </contour>
    <contour>
      <point x="626.3932037353516" y="0" type="line"/>
      <point x="750" y="123.60679626464844" type="line"/>
      <point x="750" y="800" type="line"/>
      <point x="550" y="800" type="line"/>
      <point x="550" y="0" type="line"/>
    </contour>
  </outline>
</glyph>
